<ttFont>
          <CharString index="0">
            -107 callgsubr
            1057 vlineto
            12 399 rlineto
            -70 hlineto
            -243 -116 -72 -178 -2 vhcurveto
            -392 -52 callsubr
            469 vlineto
            149 6 rlineto
            174 6 70 -6 -181 vvcurveto
            67 431 -91 hlineto
            15 -177 rlineto
            -384 330 hlineto
            return
          </CharString>
          <CharString index="1">
            3 -38 3 -31 8 -47 27 callsubr
            460 vlineto
            264 4 -107 116 -229 hhcurveto
            -235 -170 -109 -137 -55 30 -45 57 -1 hvcurveto
            68 -2 24 56 33 vvcurveto
            25 -6 29 -20 23 vhcurveto
            39 78 94 32 80 -2 rrcurveto
            178 -6 19 -136 -141 vvcurveto
            return
          </CharString>
          <CharString index="2">
            28 callsubr
            0 37 55 vvcurveto
            return
          </CharString>
          <CharString index="3">
            rmoveto
            -291 -223 -246 -324 -303 227 -217 287 291 225 252 318 -15 callgsubr
            hvcurveto
            -78 vmoveto
            219 88 -256 -246 -217 -76 -211 -215 -217 -104 244 254 223 90 209 215 hvcurveto
            endchar
          </CharString>
          <CharString index="4">
            rmoveto
            -59 hlineto
            -28 -31 -43 -27 -117 hhcurveto
            -63 -84 hlineto
            147 6 -4 callgsubr
            -2 -43 -66 vvcurveto
            -525 vlineto
            hintmask 10111100
            -57 -84 -102 -73 -103 -1 rrcurveto
            -162 -2 -60 114 236 vvcurveto
            624 60 callsubr
            -116 hhcurveto
            -64 -84 hlineto
            141 6 5 callgsubr
            -364 vlineto
            -338 113 -109 223 120 130 71 85 84 vhcurveto
            hintmask 01111100
            3 -38 4 -38 7 39 callgsubr
            -147 -8 6 55 2 94 2 43 rlinecurve
            endchar
          </CharString>
          <CharString index="5">
            rmoveto
            -59 hlineto
            -74 callgsubr
            -2 -35 -43 vvcurveto
            -467 -100 callsubr
            endchar
          </CharString>
          <CharString index="6">
            -1 -198 rmoveto
            0 -95 -1 -85 0 -11 0 -39 0 -36 -31 flex1
            -76 -82 -78 -44 -110 hhcurveto
            -85 -70 50 101 -4 hvcurveto
            -7 193 248 67 188 6 rrcurveto
            endchar
          </CharString>
          <CharString index="7">
            vlineto
            -100 callgsubr
            return
          </CharString>
          <CharString index="8">
            rmoveto
            23 -115 16 -66 -89 -163 54 -40 rcurveline
            97 97 64 109 104 vvcurveto
            36 -8 36 -16 34 vhcurveto
            endchar
          </CharString>
          <CharString index="9">
            1616 rmoveto
            45 -60 297 183 92 57 -26 57 -12 19 rlinecurve
            -7 10 -51 49 -80 -69 rrcurveto
            return
          </CharString>
          <CharString index="10">
            rmoveto
            -440 -84 hlineto
            95 callgsubr
            -55 -74 -34 -53 rlinecurve
            -256 44 callgsubr
            hintmask 01101100
            -84 callgsubr
            hintmask 01110100
            -27 callgsubr
            -30 callsubr
            53 74 vvcurveto
            452 vlineto
            100 2 49 -30 53 -68 52 -68 rlinecurve
            245 -331 rlineto
            hintmask 10101100
            -105 80 86 -96 41 hhcurveto
            250 68 hlineto
            -88 -57 16 207 -156 hvcurveto
            -229 305 -50 63 -43 64 -77 47 rlinecurve
            200 320 140 223 102 39 172 14 rlinecurve
            endchar
          </CharString>
          <CharString index="11">
            rmoveto
            57 -47 230 217 74 78 -39 53 -17 14 rlinecurve
            -10 9 -61 40 -62 -88 rrcurveto
            return
          </CharString>
          <CharString index="12">
            rlineto
            81 callsubr
            55 vvcurveto
            return
          </CharString>
          <CharString index="13">
            vhcurveto
            -105 callsubr
            return
          </CharString>
          <CharString index="14">
            -100 -154 -26 callsubr
            return
          </CharString>
          <CharString index="15">
            4 callsubr
            -3 4 -41 callgsubr
            return
          </CharString>
          <CharString index="16">
            90 92 62 190 105 vvcurveto
            104 -51 82 -94 -62 -51 -43 -76 -73 67 -49 78 34 vhcurveto
            15 -125 -64 -143 -45 -57 rrcurveto
            return
          </CharString>
          <CharString index="17">
            3 callgsubr
            -467 -68 callgsubr
            523 vlineto
            2 28 0 28 -1 24 rrcurveto
            return
          </CharString>
          <CharString index="18">
            86 0 79 632 73 563 86 -74 74 152 259 -63 callsubr
            -58 222 146 222 -139 49 callsubr
            487 1845 rmoveto
            -83 callsubr
            368 hmoveto
            -83 callsubr
            253 -770 -15 callsubr
            hintmask 1101101101000000
            -91 vlineto
            -107 callsubr
            hintmask 1110010011100000
            -88 callgsubr
          </CharString>
          <CharString index="19">
            -71 callsubr
            342 hmoveto
            -91 callgsubr
            return
          </CharString>
          <CharString index="20">
            -145 12 -93 callsubr
            461 90 vlineto
            -147 -65 callsubr
            870 vlineto
            return
          </CharString>
          <CharString index="21">
            141 0 85 -85 88 1257 88 -70 70 hstemhm
            18 1325 hintmask 00000000
            hintmask 01011000
            1275 -14 callgsubr
            -403 hlineto
            hintmask 01101000
            -91 vlineto
            172 9 -43 -39 -69 -100 -69 -99 rlinecurve
            -197 -284 -107 146 -98 138 -50 82 rlinecurve
            hintmask 01011000
            -47 76 -54 83 148 7 90 4 rcurveline
            68 -530 vlineto
            hintmask 10101000
            -91 vlineto
            114 5 45 -111 37 -40 357 -503 rlinecurve
            -265 -381 -94 -135 -57 -84 -131 -26 rlinecurve
            -68 403 90 vlineto
            -170 -10 66 78 51 82 49 73 rlinecurve
            68 102 68 101 68 99 124 -174 114 -139 62 -85 rrcurveto
            hintmask 01011000
            49 -67 23 -89 -158 7 rrcurveto
            -68 502 90 vlineto
            -119 -4 -141 190 -63 85 -152 196 -145 196 rlinecurve
            231 328 87 124 103 143 131 18 rlinecurve
            endchar
          </CharString>
          <CharString index="22">
            692 0 86 1262 85 -68 68 hstemhm
            1487 174 hintmask 00000000
            hintmask 11010000
            1745 -14 callgsubr
            -303 hlineto
            -127 -322 -133 -299 -119 -299 -29 -74 -45 -116 -31 -74 rrcurveto
            -4 hlineto
            -174 397 -149 359 -189 428 rrcurveto
            -313 -88 hlineto
            147 5 -45 -1095 -4 -100 -10 -86 -127 -2 rlinecurve
            -68 391 90 vlineto
            -154 -8 7 51 0 62 1 61 rlinecurve
            5 276 12 383 6 197 2 90 rcurveline
            161 -425 185 -396 179 -401 rrcurveto
            61 hlineto
            461 1138 9 24 10 22 8 20 rlinecurve
            53 -873 8 -155 -17 -84 -127 -4 rlinecurve
            -68 459 90 vlineto
            -149 -7 rlineto
            36 -1 44 -3 48 vhcurveto
            -54 932 rlineto
            hintmask 10110000
            -10 168 49 57 103 -2 rrcurveto
            endchar
          </CharString>
          <CharString index="23">
            411 0 133 1252 82 hstemhm
            117 201 -156 55 397 90 205 72 288 207 -73 55 hintmask 00000000
            hintmask 11101110
            615 133 rmoveto
            -145 hlineto
            hintmask 11011110
            -174 -78 25 118 hvcurveto
            -62 hlineto
            13 -276 rlineto
            536 154 hlineto
            hintmask 11101110
            -178 22 -209 213 383 vvcurveto
            303 168 310 311 320 160 -332 -336 -7 vhcurveto
            -6 -301 -182 -217 -172 -45 rrcurveto
            -154 vlineto
            hintmask 11101101
            543 hlineto
            12 276 rlineto
            -61 hlineto
            -118 -78 -25 -174 vhcurveto
            -170 2 hlineto
            hintmask 11101110
            234 88 261 246 307 vvcurveto
            322 -198 369 -480 -462 -220 -367 -324 -308 225 -258 273 -75 vhcurveto
            endchar
          </CharString>
          <CharString index="24">
            -59 -53 -58 -73 -71 51 -57 60 58 53 57 71 73 -47 58 -63 hvcurveto
            return
          </CharString>
          <CharString index="25">
            35 -522 61 428 82 858 82 -32 100 -13 -20 hstemhm
            196 174 555 211 hintmask 00000000
            300 1044 rmoveto
            -28 -30 18 callsubr
            -989 vlineto
            -147 -6 6 -103 -125 hhcurveto
            -105 callsubr
            339 vlineto
            -45 70 80 -22 96 hhcurveto
            276 246 232 349 hvcurveto
            hintmask 11101110
            317 -212 192 -238 -114 -121 -50 -73 -83 vhcurveto
            hintmask 11010110
            -2 48 -3 35 -3 27 rrcurveto
            hintmask 11001110
            253 -87 rmoveto
            223 89 -219 -221 -271 -121 -197 -194 -89 -83 29 51 -68 hvcurveto
            2 649 0 34 -1 30 rrcurveto
            61 57 90 54 95 hhcurveto
            endchar
          </CharString>
          <CharString index="26">
            -1 227 -161 133 -395 7 -158 3 -157 -3 -154 -2 rrcurveto
            320 -320 rmoveto
            146 -13 98 154 252 114 -105 -206 -236 -157 -86 -223 -8 vhcurveto
            -48 -2 -36 2 -43 3 rrcurveto
            return
          </CharString>
          <CharString index="27">
            409 0 86 602 85 573 86 -46 callsubr
            733 178 hintmask 00000000
            hintmask 11101100
            1485 -23 callsubr
            -4 -41 -2 -51 -56 vvcurveto
            -430 -733 340 vlineto
            hintmask 11011100
            -84 callgsubr
            hintmask 11101100
            -27 callgsubr
            -30 callsubr
            53 74 vvcurveto
            440 vlineto
            733 9 rlineto
            -374 vlineto
            -87 callsubr
            hintmask 11011100
            -30 callgsubr
            endchar
          </CharString>
          <CharString index="28">
            -90 callgsubr
            481 90 vlineto
            -170 -8 rlineto
            4 35 2 53 74 vvcurveto
            return
          </CharString>
          <CharString index="29">
            -286 -100 callsubr
            382 vlineto
            return
          </CharString>
          <CharString index="30">
            -27 callgsubr
            4 28 2 39 1 52 rlinecurve
            753 940 rlineto
            -822 vlineto
            -87 callsubr
            return
          </CharString>
          <CharString index="31">
            340 0 78 594 99 575 88 -76 76 hstemhm
            256 179 798 201 63 callsubr
            115 1436 rmoveto
            hintmask 11101100
            86 callsubr
            -432 -217 -106 vlineto
            217 3 rlineto
            -350 47 callgsubr
            hvcurveto
            hintmask 11011100
            85 callgsubr
            -765 rmoveto
            249 3 rlineto
            98 -249 342 vlineto
            -57 callsubr
          </CharString>
          <CharString index="32">
            rmoveto
            -59 -52 -55 -68 -67 50 -53 59 58 52 53 67 68 -47 55 -61 hvcurveto
            return
          </CharString>
          <CharString index="33">
            -62 callsubr
            -37 -55 vvcurveto
            return
          </CharString>
          <CharString index="34">
            rmoveto
            -35 -117 -88 -168 -145 -2 rrcurveto
            -88 157 -591 vlineto
            -329 -6 158 -49 123 hhcurveto
            69 119 14 180 121 hvcurveto
            -55 45 rlineto
            -78 -53 -74 -45 -70 hhcurveto
            -119 -36 101 186 3 1 34 2 533 hvcurveto
            345 4 rlineto
            80 -345 vlineto
            84 1 94 109 vvcurveto
            return
          </CharString>
          <CharString index="35">
            rmoveto
            -38 48 -36 38 -53 25 159 168 rcurveline
            37 callgsubr
            61 -373 vlineto
            hintmask 11101000
            1 callsubr
            -250 -262 rlineto
            -79 135 hlineto
            hintmask 11011000
            147 2 -18 callgsubr
            hintmask 11101000
            -95 callgsubr
            rlineto
            81 callsubr
            55 vvcurveto
            281 vlineto
            83 4 53 -51 72 -112 108 -146 rlinecurve
            -98 74 67 -95 75 hhcurveto
            186 61 hlineto
            -94 -129 189 33 -25 hvcurveto
            endchar
          </CharString>
          <CharString index="36">
            99 callgsubr
            -91 callgsubr
            return
          </CharString>
          <CharString index="37">
            1556 rmoveto
            45 60 -258 246 -80 69 -51 -49 -7 -10 rlinecurve
            -12 -19 -26 -57 92 -57 rrcurveto
            return
          </CharString>
          <CharString index="38">
            86 0 79 632 73 563 86 -74 74 -38 callgsubr
            hintmask 00000000
            hintmask 11011110
            return
          </CharString>
          <CharString index="39">
            369 0 86 1263 84 -46 callsubr
            693 178 -17 callgsubr
            1445 -14 callgsubr
            -1332 9 callgsubr
            938 vlineto
            2 96 18 62 116 6 557 7 rcurveline
            -1034 7 callsubr
          </CharString>
          <CharString index="40">
            rmoveto
            147 1 65 callgsubr
            -2 -13 -2 -12 -1 -12 rlinecurve
            -513 -633 rlineto
            437 vlineto
            hintmask 10111000
            147 4 -5 103 125 hhcurveto
            61 -418 vlineto
            hintmask 11011000
            -95 callgsubr
            3 20 2 17 1 18 rlinecurve
            512 642 rlineto
            -464 -50 callsubr
          </CharString>
          <CharString index="41">
            -9 callgsubr
            -38 callsubr
            return
          </CharString>
          <CharString index="42">
            -8 rlineto
            4 -82 callgsubr
            return
          </CharString>
          <CharString index="43">
            -74 callsubr
            -496 vlineto
            return
          </CharString>
          <CharString index="44">
            hstemhm
            254 179 return
          </CharString>
          <CharString index="45">
            -84 vlineto
            129 6 -47 callgsubr
            return
          </CharString>
          <CharString index="46">
            rmoveto
            313 vlineto
            55 -6 189 153 vhcurveto
            67 -463 -90 vlineto
            144 8 rlineto
            -448 vlineto
            -72 -107 -135 -30 -109 hhcurveto
            -323 -225 280 387 381 235 271 291 hvcurveto
            hintmask 11101101
            238 184 -146 -256 18 hvcurveto
            74 hlineto
            hintmask 11011101
            469 -113 vlineto
            9 -98 rlineto
            hintmask 11101110
            69 -115 -162 44 -147 hhcurveto
            -478 -235 -396 -385 -448 285 -271 411 90 125 21 33 84 hvcurveto
            38 99 77 15 45 hhcurveto
            return
          </CharString>
          <CharString index="47">
            1260 rmoveto
            -305 333 rlineto
            -4 hlineto
            -326 -325 51 -60 265 209 rlineto
            4 hlineto
            260 -223 rlineto
            return
          </CharString>
          <CharString index="48">
            -180 hhcurveto
            -86 vlineto
            return
          </CharString>
          <CharString index="49">
            4 -103 -125 return
          </CharString>
          <CharString index="50">
            146 -13 100 154 450 207 -250 -387 -367 -233 -278 -352 -17 -94 -2 6 -109 vhcurveto
            -5 callsubr
          </CharString>
          <CharString index="51">
            rmoveto
            -79 callsubr
            return
          </CharString>
          <CharString index="52">
            -33 -41 callsubr
            73 callgsubr
            hintmask 01111010
            return
          </CharString>
          <CharString index="53">
            -424 -33 84 1296 86 -68 68 hstemhm
            -4 179 192 178 -17 callgsubr
            703 -14 callgsubr
            -545 -91 hlineto
            209 9 rlineto
            -1067 vlineto
            -168 -40 -63 -81 -3 vhcurveto
            -21 -1 -43 8 -17 25 rrcurveto
            7 14 3 19 13 vvcurveto
            41 -24 53 -67 -3 vhcurveto
            -59 -3 -29 -51 -53 vvcurveto
            -90 102 -56 114 236 97 148 385 vhcurveto
            663 vlineto
            hintmask 10111000
            115 22 88 136 vhcurveto
            endchar
          </CharString>
          <CharString index="54">
            vvcurveto
            -123 86 -86 131 99 92 65 64 53 vhcurveto
            -35 37 rlineto
            -33 -39 -45 -23 -49 hhcurveto
            -68 -59 54 86 return
          </CharString>
          <CharString index="55">
            -6 rlineto
            -61 callgsubr
            return
          </CharString>
          <CharString index="56">
            1619 rmoveto
            54 -38 189 170 47 42 -6 51 -31 29 rlinecurve
            -42 39 -53 -17 -32 -56 rrcurveto
            122 -205 rmoveto
            29 -52 282 130 41 19 18 53 -24 44 rlinecurve
            -27 50 -56 0 -37 -35 rrcurveto
            return
          </CharString>
          <CharString index="57">
            vlineto
            -147 -3 4 -41 callgsubr
            31 callsubr
            endchar
          </CharString>
          <CharString index="58">
            148 9 rlineto
            return
          </CharString>
          <CharString index="59">
            -25 callsubr
            -10 callsubr
            return
          </CharString>
          <CharString index="60">
            75 66 -111 127 hhcurveto
            72 92 60 135 45 hvcurveto
            -60 31 rlineto
            -60 -32 -58 -39 -59 hhcurveto
            -90 -51 113 -4 -129 hvcurveto
            return
          </CharString>
          <CharString index="61">
            -68 68 -63 callsubr
            return
          </CharString>
          <CharString index="62">
            352 -33 117 1265 85 -68 68 64 callsubr
            856 94 -17 callgsubr
            return
          </CharString>
          <CharString index="63">
            68 -21 75 57 100 54 32 -10 51 hhcurveto
            230 204 164 231 94 -43 88 -67 62 hvcurveto
            14 62 36 63 70 10 8 -40 31 -31 46 -1 rrcurveto
            65 -2 24 55 32 vvcurveto
            return
          </CharString>
          <CharString index="64">
            147 3 -66 callsubr
            return
          </CharString>
          <CharString index="65">
            rmoveto
            -78 callgsubr
            return
          </CharString>
          <CharString index="66">
            117 -84 82 419 70 411 75 return
          </CharString>
          <CharString index="67">
            371 68 callgsubr
            -51 hlineto
            -228 -166 32 -58 127 76 rlineto
            5 -494 hlineto
            -84 -17 -67 -84 vhcurveto
            -58 318 70 vlineto
            -104 -4 3 22 1 27 -2 31 rlinecurve
            return
          </CharString>
          <CharString index="68">
            10 -33 82 930 78 hstem
            84 209 612 209 vstem
            return
          </CharString>
          <CharString index="69">
            hintmask 11011100
            -64 callsubr
            return
          </CharString>
          <CharString index="70">
            -54 -49 -56 -68 -67 47 -54 55 54 48 54 67 68 -43 56 -58 hvcurveto
            return
          </CharString>
          <CharString index="71">
            419 5 rlineto
            95 -419 267 -59 vlineto
            -28 -31 -45 -92 callgsubr
            0 -35 -43 vvcurveto
            -1 -148 -103 vlineto
            148 2 rlineto
            -867 vlineto
            -147 2 -103 -125 21 callsubr
            2 37 55 vvcurveto
            605 vlineto
            61 72 105 53 100 2 rrcurveto
            return
          </CharString>
          <CharString index="72">
            -170 -65 callsubr
            return
          </CharString>
          <CharString index="73">
            1892 rmoveto
            -56 -43 -98 -54 -104 hhcurveto
            -104 -98 54 56 -43 hvcurveto
            -55 -24 rlineto
            -137 63 112 -74 125 hhcurveto
            125 112 74 137 63 hvcurveto
            return
          </CharString>
          <CharString index="74">
            -240 -33 80 933 77 -10 -20 hstemhm
            106 161 -155 88 497 167 -157 83 hintmask 00000000
            return
          </CharString>
          <CharString index="75">
            1509 rmoveto
            -75 -39 -88 -72 -94 hhcurveto
            -94 -88 68 75 -41 hvcurveto
            -60 -30 rlineto
            -162 51 119 -76 107 hhcurveto
            127 96 84 164 59 hvcurveto
            return
          </CharString>
          <CharString index="76">
            rmoveto
            115 -543 -123 vlineto
            return
          </CharString>
          <CharString index="77">
            rlineto
            5 35 2 return
          </CharString>
          <CharString index="78">
            209 152 31 87 80 vvcurveto
            151 -119 68 -127 -166 -88 -117 -80 -35 21 -30 37 -1 vhcurveto
            45 -1 16 38 23 vvcurveto
            18 -7 19 -12 10 vhcurveto
            43 11 50 39 67 hhcurveto
            82 47 -59 -88 -58 -17 -86 -114 -94 hvcurveto
            -127 -104 -113 -107 -170 vvcurveto
            endchar
          </CharString>
          <CharString index="79">
            486 -780 -72 375 vvcurveto
            129 92 111 170 return
          </CharString>
          <CharString index="80">
            -513 -195 rmoveto
            158 80 -160 -180 -160 -76 -120 -152 -153 -88 135 196 164 84 125 147 hvcurveto
            return
          </CharString>
          <CharString index="81">
            -6 vhcurveto
            -68 return
          </CharString>
          <CharString index="82">
            -61 418 return
          </CharString>
          <CharString index="83">
            2 -33 4 -34 7 -40 27 callsubr
            -175 98 rmoveto
            -1 -43 0 -37 1 -33 rrcurveto
            return
          </CharString>
          <CharString index="84">
            -16 callsubr
            rlineto
            return
          </CharString>
          <CharString index="85">
            0 -7 callsubr
            return
          </CharString>
          <CharString index="86">
            242 0 118 1216 133 0 -20 hstemhm
            57 1317 hintmask 00000000
            hintmask 10110000
            1374 hmoveto
            -594 1467 rlineto
            -163 hlineto
            -560 -1467 rlineto
            169 118 rmoveto
            hintmask 11010000
            447 1216 474 -1216 rlineto
            endchar
          </CharString>
          <CharString index="87">
            -66 -22 callsubr
            -74 74 -63 callsubr
            573 62 93 callsubr
            return
          </CharString>
          <CharString index="88">
            vlineto
            27 callgsubr
            return
          </CharString>
          <CharString index="89">
            -613 0 61 846 82 55 -20 return
          </CharString>
          <CharString index="90">
            -129 -6 -95 callsubr
            496 vlineto
            return
          </CharString>
          <CharString index="91">
            39 callsubr
            -91 hlineto
            148 9 return
          </CharString>
          <CharString index="92">
            rmoveto
            -10 359 rlineto
            -985 hlineto
            return
          </CharString>
          <CharString index="93">
            -502 -2 callsubr
            254 179 hintmask 00000000
            hintmask 11010000
            return
          </CharString>
          <CharString index="94">
            -60 -62 23 55 -8 hvcurveto
            9 12 7 17 15 vvcurveto
            31 -17 37 -48 -2 vhcurveto
            -39 -1 -23 -36 -38 vvcurveto
            -86 83 -93 158 -4 vhcurveto
            187 -4 111 108 138 vvcurveto
            110 -72 95 -142 12 vhcurveto
            2 vlineto
            return
          </CharString>
          <CharString index="95">
            366 1546 rmoveto
            -59 hlineto
            -28 -31 -45 -92 callgsubr
            0 -35 -43 vvcurveto
            -969 -19 callsubr
            98 callgsubr
            -2 55 rlinecurve
            return
          </CharString>
          <CharString index="96">
            147 59 callsubr
            return
          </CharString>
          <CharString index="97">
            52 callgsubr
            -6 return
          </CharString>
          <CharString index="98">
            -42 callgsubr
            -65 callgsubr
            return
          </CharString>
          <CharString index="99">
            244 -33 107 1309 84 -15 -20 98 callsubr
            918 106 return
          </CharString>
          <CharString index="100">
            86 1261 86 return
          </CharString>
          <CharString index="101">
            19 callsubr
            1016 vlineto
            return
          </CharString>
          <CharString index="102">
            -61 callgsubr
            endchar
          </CharString>
          <CharString index="103">
            -7 rcurveline
            1034 vlineto
            hintmask 10111100
            145 -12 83 callgsubr
            147 8 rlineto
            -4 34 callsubr
            -870 vlineto
            -146 12 -100 -153 -26 callsubr
            return
          </CharString>
          <CharString index="104">
            50 -76 -93 27 -91 hhcurveto
            -213 -218 -159 -246 -143 82 -110 124 -59 hvcurveto
            return
          </CharString>
          <CharString index="105">
            79 callsubr
            hstemhm
            return
          </CharString>
          <CharString index="106">
            89 callgsubr
            214 173 return
          </CharString>
          <CharString index="107">
            -49 -85 -30 -18 -52 19 rrcurveto
            13 15 6 12 24 vvcurveto
            43 -30 47 -65 -2 vhcurveto
            -63 -2 -40 -46 -66 vvcurveto
            -95 82 -29 85 143 71 113 226 93 vhcurveto
            331 801 return
          </CharString>
          <CharString index="108">
            -82 vlineto
            140 6 -39 -24 -37 -37 -45 -47 rlinecurve
            return
          </CharString>
          <CharString index="109">
            147 1 -18 callgsubr
            return
          </CharString>
          <CharString index="110">
            55 0 61 846 82 -36 104 -13 -20 return
          </CharString>
          <CharString index="111">
            11 callgsubr
            -147 return
          </CharString>
          <CharString index="112">
            -98 -33 107 907 76 hstem
            84 209 514 190 vstem
            return
          </CharString>
          <CharString index="113">
            68 callgsubr
            -193 -143 -157 -203 -191 143 -137 188 193 141 146 208 -2 hvcurveto
            197 -2 -137 137 -188 hhcurveto
            return
          </CharString>
          <CharString index="114">
            vlineto
            -87 callsubr
            hintmask 10111000
            -30 callgsubr
            endchar
          </CharString>
          <CharString index="115">
            -2 5 -46 hvcurveto
            3 25 2 36 53 vvcurveto
            endchar
          </CharString>
          <CharString index="116">
            188 -122 195 -254 -5 vhcurveto
            1055 -82 rmoveto
            -93 82 -1156 -1430 87 -72 rlineto
            109 1429 rmoveto
            153 45 -201 -137 return
          </CharString>
          <CharString index="117">
            94 0 86 362 82 return
          </CharString>
          <CharString index="118">
            -148 -8 return
          </CharString>
          <CharString index="119">
            rmoveto
            4 65 14 56 callsubr
            -77 -26 callgsubr
          </CharString>
          <CharString index="120">
            -55 vvcurveto
            -571 17 callgsubr
            528 29 callsubr
            139 -331 -8 hvcurveto
            -127 return
          </CharString>
          <CharString index="121">
            20 callgsubr
            hstemhm
            94 173 hintmask 00000000
            hintmask 11010000
            return
          </CharString>
          <CharString index="122">
            rmoveto
            -98 -66 -129 -78 -127 hhcurveto
            return
          </CharString>
          <CharString index="123">
            -217 -170 125 242 -15 return
          </CharString>
          <CharString index="124">
            -25 callgsubr
            -145 13 -100 -154 -6 vhcurveto
            -68 return
          </CharString>
          <CharString index="125">
            -31 -2 callgsubr
            return
          </CharString>
          <CharString index="126">
            vlineto
            -145 -98 callgsubr
            return
          </CharString>
          <CharString index="127">
            373 0 68 1279 86 -68 68 return
          </CharString>
          <CharString index="128">
            vhcurveto
            28 callsubr
            return
          </CharString>
          <CharString index="129">
            -317 190 -199 252 136 115 55 85 78 vhcurveto
            return
          </CharString>
          <CharString index="130">
            113 1343 rmoveto
            -107 callgsubr
            return
          </CharString>
          <CharString index="131">
            4 callgsubr
            endchar
          </CharString>
          <CharString index="132">
            147 2 64 callgsubr
            return
          </CharString>
          <CharString index="133">
            61 0 80 1274 80 hstem
            119 64 899 63 vstem
            return
          </CharString>
          <CharString index="134">
            -21 callgsubr
            -145 -8 rlineto
            6 55 2 41 43 vvcurveto
            return
          </CharString>
          <CharString index="135">
            -48 callsubr
            rlineto
            8 47 return
          </CharString>
          <CharString index="136">
            vlineto
            179 156 107 197 162 -106 return
          </CharString>
          <CharString index="137">
            -82 -141 -156 -102 -61 -126 return
          </CharString>
          <CharString index="138">
            81 callsubr
            3 55 rlinecurve
            return
          </CharString>
          <CharString index="139">
            -8 callgsubr
            289 195 -17 callgsubr
            return
          </CharString>
          <CharString index="140">
            rmoveto
            -127 vlineto
            912 405 rlineto
            138 vlineto
            -912 397 rlineto
            -131 vlineto
            773 -342 rlineto
            return
          </CharString>
          <CharString index="141">
            -35 -2 -53 -74 vvcurveto
            return
          </CharString>
          <CharString index="142">
            rmoveto
            8 193 rlineto
            -51 hlineto
            -95 -80 10 -116 3 vhcurveto
            -173 4 17 59 53 60 92 68 rlinecurve
            return
          </CharString>
          <CharString index="143">
            1 -148 8 -99 -150 -4 rrcurveto
            -68 return
          </CharString>
          <CharString index="144">
            1278 rmoveto
            61 39 61 25 50 hhcurveto
            return
          </CharString>
          <CharString index="145">
            -3 56 -3 38 -3 30 rrcurveto
            endchar
          </CharString>
          <CharString index="146">
            -14 callgsubr
            -461 return
          </CharString>
          <CharString index="147">
            -91 vlineto
            127 5 10 -52 19 -70 54 -107 rlinecurve
            405 -802 -35 -82 -28 -62 -14 -24 rlinecurve
            return
          </CharString>
          <CharString index="148">
            -120 -20 -84 -95 -96 vvcurveto
            -87 54 -47 88 -27 vhcurveto
            return
          </CharString>
          <CharString index="149">
            -395 -33 116 859 82 hstem
            200 177 return
          </CharString>
          <CharString index="150">
            149 288 241 -146 return
          </CharString>
          <CharString index="151">
            rlineto
            -5 34 callsubr
            return
          </CharString>
          <CharString index="152">
            70 349 63 292 68 hstemhm
            111 127 -106 118 230 129 -98 139 return
          </CharString>
          <CharString index="153">
            141 -12 107 153 4 vhcurveto
            149 94 callgsubr
            129 -49 -242 vvcurveto
            return
          </CharString>
          <CharString index="154">
            -22 callgsubr
            383 175 return
          </CharString>
          <CharString index="155">
            -141 0 81 868 75 hstem
            82 875 vstem
            return
          </CharString>
          <CharString index="156">
            -10 callgsubr
            hintmask 0000000000000000
            return
          </CharString>
          <CharString index="157">
            493 -342 230 -494 -2 return
          </CharString>
          <CharString index="158">
            0 86 684 104 482 77 callgsubr
            return
          </CharString>
          <CharString index="159">
            110 0 86 1259 88 -68 68 hstemhm
            581 177 hintmask 00000000
            hintmask 10110000
            return
          </CharString>
          <CharString index="160">
            hvcurveto
            24 25 7 31 27 vvcurveto
            35 -24 59 -71 -2 vhcurveto
            -61 -1 -34 -49 -58 vvcurveto
            return
          </CharString>
          <CharString index="161">
            82 55 -20 hstemhm
            86 211 554 175 return
          </CharString>
          <CharString index="162">
            -43 vvcurveto
            -467 vlineto
            -147 return
          </CharString>
          <CharString index="163">
            2 81 hhcurveto
            187 38 callgsubr
            -211 -26 return
          </CharString>
          <CharString index="164">
            -86 -2 -99 -90 -47 -119 rrcurveto
            return
          </CharString>
          <CharString index="165">
            0 61 1348 82 55 -20 return
          </CharString>
          <CharString index="166">
            1 64 callgsubr
            return
          </CharString>
          <CharString index="167">
            -59 81 callgsubr
            return
          </CharString>
          <CharString index="168">
            -60 -53 -59 -73 -71 51 -58 60 59 53 58 71 73 -48 59 -62 hvcurveto
            return
          </CharString>
          <CharString index="169">
            19 callsubr
            461 -57 callgsubr
            return
          </CharString>
          <CharString index="170">
            hintmask 00000000
            hintmask 11011100
            return
          </CharString>
          <CharString index="171">
            hstemhm
            202 180 return
          </CharString>
          <CharString index="172">
            -84 vlineto
            131 6 -12 -24 -26 -52 -23 -65 rlinecurve
            -163 -449 return
          </CharString>
          <CharString index="173">
            76 -84 4 -66 -9 vhcurveto
            -100 -13 -102 -21 -101 -21 23 123 36 return
          </CharString>
          <CharString index="174">
            rmoveto
            135 -727 -143 vlineto
            endchar
          </CharString>
          <CharString index="175">
            -73 -127 hhcurveto
            return
          </CharString>
          <CharString index="176">
            330 hlineto
            166 2 74 154 4 vhcurveto
            176 4 rlineto
            return
          </CharString>
          <CharString index="177">
            vvcurveto
            37 -22 60 -74 -4 vhcurveto
            -61 -3 -33 -49 -61 vvcurveto
            -121 return
          </CharString>
          <CharString index="178">
            rmoveto
            4 65 64 2 81 hhcurveto
            return
          </CharString>
          <CharString index="179">
            254 94 889 95 return
          </CharString>
          <CharString index="180">
            51 74 66 42 112 164 45 -144 205 hhcurveto
            return
          </CharString>
          <CharString index="181">
            -127 -45 -162 -149 -162 -39 205 131 return
          </CharString>
          <CharString index="182">
            101 -20 102 -21 99 -13 rrcurveto
            66 -8 84 4 76 vvcurveto
            return
          </CharString>
          <CharString index="183">
            54 callgsubr
            endchar
          </CharString>
          <CharString index="184">
            119 -52 -26 109 125 hhcurveto
            61 -377 vlineto
            return
          </CharString>
          <CharString index="185">
            -76 84 -4 66 8 vhcurveto
            99 13 102 21 100 21 -31 return
          </CharString>
          <CharString index="186">
            -22 callsubr
            -68 68 return
          </CharString>
          <CharString index="187">
            86 -68 68 hstemhm
            254 178 return
          </CharString>
          <CharString index="188">
            8 47 0 37 return
          </CharString>
          <CharString index="189">
            hstemhm
            70 195 return
          </CharString>
          <CharString index="190">
            1074 1075 rmoveto
            -11 359 rlineto
            -950 hlineto
            return
          </CharString>
          <CharString index="191">
            -453 -522 126 1816 126 hstem
            return
          </CharString>
          <CharString index="192">
            147 3 -9 callgsubr
            return
          </CharString>
          <CharString index="193">
            -93 vlineto
            -49 callsubr
            -5 -46 callgsubr
            return
          </CharString>
          <CharString index="194">
            65 -555 -555 rlineto
            -8 vlineto
            561 -575 return
          </CharString>
          <CharString index="195">
            76 51 41 47 59 hhcurveto
            return
          </CharString>
          <CharString index="196">
            -6 -95 callsubr
            281 vlineto
            return
          </CharString>
          <CharString index="197">
            -4 rcurveline
            81 callsubr
            55 vvcurveto
            496 vlineto
            return
          </CharString>
          <CharString index="198">
            -33 74 626 80 -60 80 627 73 hstemhm
            return
          </CharString>
          <CharString index="199" raw="1">
            5c1d6654 1a0b  
          </CharString>
          <CharString index="200">
            hintmask 00000000
            hintmask 10111000
            return
          </CharString>
          <CharString index="201">
            hstemhm
            213 174 return
          </CharString>
          <CharString index="202">
            119 238 143 -33 47 hintmask 00000000
            return
          </CharString>
          <CharString index="203">
            338 0 78 1269 88 -76 76 return
          </CharString>
          <CharString index="204">
            hlineto
            -9 -309 rlineto
            78 hlineto
            172 48 return
          </CharString>
          <CharString index="205">
            hstemhm
            94 201 return
          </CharString>
        <CharString name=".notdef">
          8 callgsubr
        </CharString>
        <CharString name="A">
          -32 callgsubr
          657 1473 rmoveto
          -99 callgsubr
          rrcurveto
          hintmask 11010000
          -103 callgsubr
        </CharString>
        <CharString name="AE">
          756 0 79 -79 86 361 82 181 73 563 86 -74 74 hstemhm
          924 178 394 49 callsubr
          hintmask 1011011110000000
          1778 1075 rmoveto
          -10 359 rlineto
          -1026 hlineto
          hintmask 0111101110000000
          -91 vlineto
          184 9 rlineto
          -1 vlineto
          -739 -1095 rlineto
          -82 -55 -66 -106 -109 hhcurveto
          -68 383 90 vlineto
          -156 -8 241 360 499 11 rlineto
          -187 vlineto
          hintmask 1011011111000000
          -125 -18 -59 -107 -8 vhcurveto
          -16 -74 1057 hlineto
          12 399 rlineto
          -70 hlineto
          -238 -109 -88 -174 3 vhcurveto
          -403 6 rlineto
          4 35 2 51 74 vvcurveto
          461 vlineto
          154 8 rlineto
          170 70 -1 -180 hvcurveto
          67 447 -67 hlineto
          -180 -70 -13 -172 vhcurveto
          -152 69 callsubr
          hintmask 1011011110000000
          154 4 123 -49 -242 vvcurveto
          -1228 -545 rmoveto
          441 661 rlineto
          -661 vlineto
          endchar
        </CharString>
        <CharString name="Aacute">
          -32 callgsubr
          461 -98 callsubr
          -62 -389 rmoveto
          -99 callgsubr
          rrcurveto
          hintmask 11010000
          -103 callgsubr
        </CharString>
        <CharString name="Abreve">
          10 callsubr
          1127 125 hstemhm
          -12 1319 -348 208 hintmask 00000000
          hintmask 11110000
          886 -34 callsubr
          -284 -395 rmoveto
          -99 callgsubr
          rrcurveto
          hintmask 11101000
          -103 callgsubr
        </CharString>
        <CharString name="Acircumflex">
          -32 callgsubr
          1015 -59 callgsubr
          -313 -75 rmoveto
          -99 callgsubr
          rrcurveto
          hintmask 11010000
          -103 callgsubr
        </CharString>
        <CharString name="Acute">
          -594 1556 342 hstem
          68 408 vstem
          68 -98 callsubr
          endchar
        </CharString>
        <CharString name="Adieresis">
          10 callsubr
          1056 259 hstemhm
          341 222 147 222 hintmask 00000000
          453 1845 rmoveto
          -83 callsubr
          369 hmoveto
          -83 callsubr
          -165 -372 rmoveto
          -99 callgsubr
          rrcurveto
          hintmask 11111000
          -103 callgsubr
        </CharString>
        <CharString name="Agrave">
          -32 callgsubr
          776 -70 callsubr
          178 -266 rmoveto
          -99 callgsubr
          rrcurveto
          hintmask 11010000
          -103 callgsubr
        </CharString>
        <CharString name="Amacron">
          10 callsubr
          1195 119 hstemhm
          -12 1319 -348 208 hintmask 00000000
          hintmask 11110000
          912 1729 -31 callsubr
          288 -248 rmoveto
          -99 callgsubr
          rrcurveto
          hintmask 11101000
          -103 callgsubr
        </CharString>
        <CharString name="Aogonek">
          94 -531 110 421 86 362 82 hstem
          719 166 74 208 vstem
          1307 hmoveto
          90 vlineto
          -140 -8 4 61 -34 107 -23 57 rlinecurve
          -457 1166 rlineto
          -99 callgsubr
          533 12 rcurveline
          72 -192 29 -76 24 -114 -153 -4 rlinecurve
          -68 172 vlineto
          -157 -73 -134 -113 -136 -53 callsubr
          135 125 94 145 52 hvcurveto
          -317 530 36 callgsubr
        </CharString>
        <CharString name="Aring">
          10 callsubr
          1253 70 hstem
          397 119 229 119 95 208 vstem
          1307 90 rmoveto
          -140 -8 4 61 -34 107 -23 57 rlinecurve
          -431 1099 97 22 87 86 -3 126 rlinecurve
          147 -6 -119 66 -110 hhcurveto
          -117 -119 -96 -142 4 hvcurveto
          5 -127 85 -67 96 -17 -397 -1080 rcurveline
          -152 -56 -19 -104 -123 hhcurveto
          -68 383 90 vlineto
          -160 -8 19 45 12 31 20 65 rlinecurve
          20 67 22 68 29 84 533 12 rcurveline
          72 -192 29 -76 24 -114 -153 -4 rlinecurve
          -68 469 vlineto
          -685 1473 rmoveto
          -65 9 -41 62 92 vvcurveto
          86 43 57 63 4 vhcurveto
          70 4 53 -59 -117 vvcurveto
          -79 -43 -51 -51 -8 vhcurveto
          187 -943 36 callgsubr
        </CharString>
        <CharString name="Atilde">
          10 callsubr
          1061 129 17 127 hstemhm
          -12 1319 -348 208 hintmask 00000000
          hintmask 11101000
          297 1614 rmoveto
          hintmask 11111000
          88 callsubr
          hintmask 11101000
          -48 callgsubr
          hintmask 11111000
          57 callsubr
          430 -180 rmoveto
          -99 callgsubr
          rrcurveto
          hintmask 11100100
          -103 callgsubr
        </CharString>
        <CharString name="B">
          -85 callgsubr
        </CharString>
        <CharString name="Breve">
          -445 1657 125 hstem
          75 600 vstem
          620 -34 callsubr
          endchar
        </CharString>
        <CharString name="C">
          -8 callsubr
          -17 callgsubr
          1317 309 -94 callgsubr
        </CharString>
        <CharString name="Cacute">
          -8 callsubr
          -17 callgsubr
          640 -98 callsubr
          419 -1553 -94 callgsubr
        </CharString>
        <CharString name="Caron">
          -225 1528 362 hstem
          92 778 vstem
          870 1825 rmoveto
          -41 65 -348 -184 -344 180 -45 -69 377 -289 rlineto
          4 hlineto
          endchar
        </CharString>
        <CharString name="Ccaron">
          -8 callsubr
          hintmask 11011000
          1209 -77 callgsubr
          505 -1289 -94 callgsubr
        </CharString>
        <CharString name="Ccedilla">
          244 -224 100 1507 84 -15 -20 98 callsubr
          574 184 160 106 63 callsubr
          1317 309 rmoveto
          -153 -111 -184 -82 -178 hhcurveto
          -303 -246 264 387 401 233 257 291 238 159 -150 -256 29 hvcurveto
          74 hlineto
          hintmask 10111100
          475 -111 vlineto
          10 -110 rlineto
          hintmask 11011100
          84 -126 -133 41 -154 hhcurveto
          -477 -234 -388 -385 -373 239 -299 355 -48 hvcurveto
          -48 -191 7 callgsubr
          39 124 168 3 229 58 172 238 rlinecurve
          endchar
        </CharString>
        <CharString name="Cedilla">
          -570 -224 100 hstem
          342 184 vstem
          290 16 rmoveto
          -118 hlineto
          -59 -233 7 callgsubr
          endchar
        </CharString>
        <CharString name="Circumflex">
          -225 1548 359 hstem
          92 778 vstem
          870 -59 callgsubr
          endchar
        </CharString>
        <CharString name="D">
          96 callsubr
          -63 callsubr
          798 201 93 callsubr
          113 1436 rmoveto
          hintmask 11011000
          -93 vlineto
          -107 callgsubr
          539 vlineto
          514 266 338 377 hvcurveto
          hintmask 10111000
          85 callgsubr
          -322 rmoveto
          -57 callsubr
        </CharString>
        <CharString name="Dcaron">
          96 callsubr
          hstem
          254 179 798 201 vstem
          1139 -77 callgsubr
          -629 -162 rmoveto
          -93 vlineto
          -107 callgsubr
          539 vlineto
          514 266 338 377 50 callsubr
          hvcurveto
          -163 -322 rmoveto
          -57 callsubr
        </CharString>
        <CharString name="Dcroat">
          -76 callsubr
        </CharString>
        <CharString name="Delta">
          -21 callsubr
        </CharString>
        <CharString name="Dieresis">
          -412 205 1850 rmoveto
          61 callsubr
          368 hmoveto
          61 callsubr
          endchar
        </CharString>
        <CharString name="E">
          -69 callsubr
          1108 1075 -15 callsubr
          hintmask 11101111
          -91 vlineto
          -107 callsubr
          hintmask 11011110
          -88 callgsubr
        </CharString>
        <CharString name="Eacute">
          -69 callsubr
          490 -98 callsubr
          360 -787 -15 callsubr
          hintmask 11101111
          -91 vlineto
          -107 callsubr
          hintmask 11011110
          -88 callgsubr
        </CharString>
        <CharString name="Ecaron">
          86 0 79 632 73 563 86 -74 74 hstem
          254 179 393 -10 callgsubr
          vstem
          1079 -77 callgsubr
          426 -523 rmoveto
          -10 359 rlineto
          -985 -91 hlineto
          -107 callsubr
          -88 callgsubr
        </CharString>
        <CharString name="Ecircumflex">
          -69 callsubr
          1059 -59 callgsubr
          94 -473 -15 callsubr
          hintmask 11101111
          -91 vlineto
          -107 callsubr
          hintmask 11011110
          -88 callgsubr
        </CharString>
        <CharString name="Edieresis">
          -89 callsubr
        </CharString>
        <CharString name="Edotaccent">
          86 0 79 632 73 563 86 -74 74 224 243 -63 callsubr
          128 219 46 49 callsubr
          hintmask 1101111110000000
          672 1901 -75 callsubr
          436 -826 -15 callsubr
          hintmask 1110111111000000
          -91 vlineto
          -107 callsubr
          hintmask 1101111110000000
          -88 callgsubr
        </CharString>
        <CharString name="Egrave">
          -69 callsubr
          805 -70 callsubr
          600 -664 -15 callsubr
          hintmask 11101111
          -91 vlineto
          -107 callsubr
          hintmask 11011110
          -88 callgsubr
        </CharString>
        <CharString name="Emacron">
          86 0 79 632 73 563 86 -74 74 291 119 -38 callgsubr
          hintmask 0000000000000000
          hintmask 1101111100000000
          941 1729 -31 callsubr
          710 -646 -15 callsubr
          hintmask 1110111110000000
          -91 vlineto
          -107 callsubr
          hintmask 1101111100000000
          -88 callgsubr
        </CharString>
        <CharString name="Eogonek">
          86 0 79 632 73 575 74 -38 callgsubr
          hintmask 00000000
          1170 hmoveto
          12 399 rlineto
          -70 hlineto
          -243 -116 -72 -178 -2 vhcurveto
          -392 -52 callsubr
          469 vlineto
          149 6 rlineto
          174 6 70 -6 -181 vvcurveto
          67 431 -91 hlineto
          15 -177 rlineto
          -384 330 hlineto
          166 2 74 153 4 vhcurveto
          176 4 rlineto
          hintmask 11111110
          154 4 123 -49 -242 vvcurveto
          67 hlineto
          -10 359 rlineto
          -985 hlineto
          hintmask 11111100
          -91 vlineto
          -107 callgsubr
          867 vlineto
          -147 -73 -121 -109 -129 -53 callsubr
          126 109 90 132 54 hvcurveto
          endchar
        </CharString>
        <CharString name="Eth">
          -76 callsubr
        </CharString>
        <CharString name="Euro">
          368 -33 113 428 122 -120 117 180 122 -121 118 455 86 -17 -20 hstemhm
          261 184 hintmask 00000000
          101 929 rmoveto
          -29 -122 rlineto
          191 hlineto
          -8 -58 1 -61 4 -58 rrcurveto
          -159 hlineto
          -29 -122 rlineto
          202 hlineto
          -313 63 228 -228 347 hhcurveto
          168 215 54 243 176 hvcurveto
          -53 43 rlineto
          -153 -111 -164 -74 -178 hhcurveto
          hintmask 11010101
          -243 -187 166 264 -65 hvcurveto
          487 hlineto
          57 117 rlineto
          -565 hlineto
          -5 59 0 65 4 57 rrcurveto
          650 hlineto
          55 118 rlineto
          -689 hlineto
          293 61 192 162 223 hhcurveto
          235 100 -150 -195 30 hvcurveto
          74 hlineto
          hintmask 10101101
          41 414 rlineto
          -111 hlineto
          -3 -101 rlineto
          hintmask 10101011
          78 -118 -114 40 -148 hhcurveto
          -346 -218 -247 -291 -76 hvcurveto
          endchar
        </CharString>
        <CharString name="F">
          -66 0 86 593 73 595 86 -74 74 -63 callsubr
          365 67 141 62 hintmask 00000000
          hintmask 11011110
          83 callsubr
          hintmask 11101110
          -91 vlineto
          -107 callgsubr
          522 90 vlineto
          -209 -8 rlineto
          5 -82 callgsubr
          429 vlineto
          121 6 rlineto
          174 9 70 -9 -181 vvcurveto
          67 431 -91 hlineto
          15 -177 rlineto
          -356 354 hlineto
          hintmask 11011110
          46 callsubr
          endchar
        </CharString>
        <CharString name="G">
          48 callgsubr
          hstemhm
          96 201 899 79 callgsubr
          hintmask 11101100
          1368 74 rmoveto
          313 vlineto
          55 -6 189 153 vhcurveto
          67 -463 -90 vlineto
          144 8 rlineto
          -448 vlineto
          -72 -107 -135 -30 -109 hhcurveto
          -323 -225 280 387 381 235 271 291 hvcurveto
          hintmask 11101010
          238 184 -146 -256 18 hvcurveto
          74 hlineto
          hintmask 11011010
          469 -113 vlineto
          9 -98 rlineto
          hintmask 11101100
          69 -115 -162 44 -147 hhcurveto
          -478 -235 -396 -385 -448 285 -271 411 90 125 21 33 84 hvcurveto
          38 99 77 15 45 hhcurveto
          endchar
        </CharString>
        <CharString name="Gamma">
          -20 callsubr
          1074 1075 rmoveto
          -11 359 rlineto
          -950 -81 callgsubr
          149 94 callgsubr
          129 -49 -242 vvcurveto
          endchar
        </CharString>
        <CharString name="Gbreve">
          48 callgsubr
          225 125 hstemhm
          96 201 899 79 callgsubr
          hintmask 11101110
          1057 -34 callsubr
          256 -1794 -61 callsubr
          endchar
        </CharString>
        <CharString name="Gcommaaccent">
          48 callgsubr
          hstemhm
          96 201 476 147 276 79 callgsubr
          hintmask 11101110
          1368 74 -61 callsubr
          -557 -221 -99 callsubr
        </CharString>
        <CharString name="Grave">
          -594 1556 342 hstem
          94 408 vstem
          457 -70 callsubr
          endchar
        </CharString>
        <CharString name="H">
          -80 callsubr
        </CharString>
        <CharString name="I">
          -14 callsubr
          574 1434 rmoveto
          -461 9 callgsubr
          870 vlineto
          hintmask 10110000
          -84 callgsubr
          endchar
        </CharString>
        <CharString name="Iacute">
          -14 callsubr
          170 -98 callsubr
          146 -428 rmoveto
          -461 9 callgsubr
          870 vlineto
          hintmask 10110000
          -84 callgsubr
          endchar
        </CharString>
        <CharString name="Icircumflex">
          -502 -2 callsubr
          253 179 hintmask 00000000
          hintmask 11010000
          719 1618 rmoveto
          -356 289 rlineto
          -4 hlineto
          -377 -291 41 -66 328 179 rlineto
          4 hlineto
          319 -181 rlineto
          -101 -114 rmoveto
          -461 9 callgsubr
          870 vlineto
          hintmask 10110000
          -84 callgsubr
          endchar
        </CharString>
        <CharString name="Idieresis">
          58 callgsubr
          152 259 hstemhm
          86 222 -54 179 -21 222 hintmask 00000000
          198 1845 rmoveto
          -83 callsubr
          326 hmoveto
          -83 callsubr
          50 -411 rmoveto
          -461 -91 hlineto
          hintmask 11110100
          148 9 rlineto
          -5 -41 -2 -51 -56 vvcurveto
          -885 35 callgsubr
          870 vlineto
          hintmask 11001000
          -84 callgsubr
          endchar
        </CharString>
        <CharString name="Idotaccent">
          58 callgsubr
          51 callgsubr
          241 219 -206 179 hintmask 00000000
          352 1901 -75 callsubr
          222 -467 rmoveto
          -461 -91 hlineto
          hintmask 11110000
          148 9 rlineto
          -5 -41 -2 -51 -56 vvcurveto
          -885 35 callgsubr
          870 vlineto
          hintmask 11001000
          -84 callgsubr
          endchar
        </CharString>
        <CharString name="Igrave">
          -14 callsubr
          485 -70 callsubr
          386 -305 rmoveto
          -461 9 callgsubr
          870 vlineto
          hintmask 10110000
          -84 callgsubr
          endchar
        </CharString>
        <CharString name="Imacron">
          -502 79 callsubr
          291 119 -63 callsubr
          -17 callgsubr
          621 1729 -31 callsubr
          496 -287 rmoveto
          -461 9 callgsubr
          870 76 callsubr
        </CharString>
        <CharString name="Iogonek">
          -502 -531 110 421 -7 callsubr
          -68 68 hstemhm
          126 166 -38 179 hintmask 00000000
          hintmask 11100100
          552 -365 rmoveto
          -33 -39 -45 -23 -49 hhcurveto
          hintmask 11101000
          78 callgsubr
          12 90 hlineto
          hintmask 11010100
          11 callsubr
          rlineto
          5 -82 callgsubr
          870 vlineto
          -84 callgsubr
          hintmask 11100100
          68 -461 -91 vlineto
          -107 callgsubr
          304 vlineto
          hintmask 11101000
          1 callgsubr
          endchar
        </CharString>
        <CharString name="J">
          -54 callsubr
        </CharString>
        <CharString name="K">
          -13 callgsubr
          hintmask 00000000
          hintmask 01110100
          1303 1434 -97 callsubr
        </CharString>
        <CharString name="Kcommaaccent">
          -13 callgsubr
          241 147 hintmask 00000000
          hintmask 01110110
          1303 -14 callgsubr
          -440 -84 hlineto
          95 callgsubr
          -55 -74 -34 -53 rlinecurve
          -256 44 callgsubr
          hintmask 01101110
          -84 callgsubr
          hintmask 01110110
          -27 callgsubr
          -30 callsubr
          53 74 vvcurveto
          452 vlineto
          100 2 49 -30 53 -68 52 -68 rlinecurve
          245 -331 rlineto
          hintmask 10101110
          -105 80 86 -96 41 hhcurveto
          250 68 hlineto
          -88 -57 16 207 -156 hvcurveto
          -229 305 -50 63 -43 64 -77 47 rlinecurve
          200 320 140 223 102 39 172 14 rlinecurve
          -647 -1513 -99 callsubr
        </CharString>
        <CharString name="L">
          -4 0 79 1268 86 -46 callsubr
          639 63 -17 callgsubr
          17 callsubr
          1016 vlineto
          12 424 rlineto
          -35 callgsubr
          878 76 callsubr
        </CharString>
        <CharString name="Lacute">
          -4 0 79 1268 86 -46 callsubr
          639 63 -17 callgsubr
          213 -98 callsubr
          103 -428 rmoveto
          -461 -91 hlineto
          -107 callgsubr
          1016 vlineto
          12 424 rlineto
          -35 callgsubr
          878 76 callsubr
        </CharString>
        <CharString name="Lcaron">
          -4 0 79 961 -20 327 86 19 -20 -63 callsubr
          441 145 53 63 hintmask 00000000
          855 1453 -39 callgsubr
          hintmask 11011110
          -422 8 rmoveto
          -461 -91 hlineto
          -107 callgsubr
          1016 vlineto
          12 424 rlineto
          -35 callgsubr
          878 vlineto
          hintmask 11101110
          -84 callgsubr
          endchar
        </CharString>
        <CharString name="Lcommaaccent">
          -4 0 79 1268 86 -46 callsubr
          120 147 372 63 63 callsubr
          17 callsubr
          1016 vlineto
          12 424 rlineto
          -35 callgsubr
          878 vlineto
          hintmask 10111100
          -84 callgsubr
          -39 -1513 -99 callsubr
        </CharString>
        <CharString name="Lslash">
          -4 0 79 1268 86 -68 68 hstemhm
          253 179 639 63 -17 callgsubr
          1140 424 rmoveto
          -35 callgsubr
          482 vlineto
          208 156 rlineto
          111 vlineto
          -208 -155 rlineto
          284 54 callgsubr
          hintmask 11011000
          68 -461 -91 vlineto
          -49 callsubr
          -5 -46 callgsubr
          -507 vlineto
          -155 -115 rlineto
          -115 vlineto
          155 116 rlineto
          -264 -6 callsubr
          endchar
        </CharString>
        <CharString name="M">
          -85 callsubr
        </CharString>
        <CharString name="N">
          20 callsubr
          hstemhm
          72 callsubr
          -17 callgsubr
          1473 1434 -101 callgsubr
          hintmask 10111000
          4 146 -17 -12 callgsubr
        </CharString>
        <CharString name="Nacute">
          20 callsubr
          hstemhm
          72 callsubr
          -17 callgsubr
          652 -98 callsubr
          563 -428 -101 callgsubr
          hintmask 10111000
          4 146 -17 -12 callgsubr
        </CharString>
        <CharString name="Ncaron">
          20 callsubr
          hstem
          72 callsubr
          vstem
          1189 -77 callgsubr
          681 -164 -101 callgsubr
          4 146 -17 -12 callgsubr
        </CharString>
        <CharString name="Ncommaaccent">
          20 callsubr
          hstemhm
          254 94 332 147 410 95 63 callsubr
          1473 1434 -101 callgsubr
          hintmask 10111100
          4 146 -17 100 154 6 rrcurveto
          -811 -1513 -99 callsubr
        </CharString>
        <CharString name="Ntilde">
          20 callsubr
          157 129 17 127 hstemhm
          72 callsubr
          hintmask 00000000
          hintmask 11010110
          468 1614 rmoveto
          hintmask 11011110
          88 callsubr
          hintmask 11010110
          -48 callgsubr
          hintmask 11011110
          57 callsubr
          1075 -219 -101 callgsubr
          hintmask 10110110
          4 146 -17 -12 callgsubr
        </CharString>
        <CharString name="O">
          -37 callgsubr
          807 1467 -105 callgsubr
        </CharString>
        <CharString name="OE">
          905 -33 99 -66 82 629 73 576 74 -53 86 98 callsubr
          778 178 398 67 143 63 9 63 hintmask 0000000000000000
          1988 hmoveto
          13 399 rlineto
          -70 hlineto
          -243 -115 -86 -178 6 vhcurveto
          -393 12 rlineto
          4 35 2 51 74 vvcurveto
          454 vlineto
          154 9 rlineto
          174 6 70 -6 -181 vvcurveto
          67 431 -91 hlineto
          15 -177 rlineto
          -389 69 callsubr
          hintmask 0111011111000000
          154 4 122 -49 -242 vvcurveto
          68 hlineto
          -10 359 rlineto
          -844 hlineto
          hintmask 0111011110000000
          19 -81 -102 14 -76 hhcurveto
          -496 -12 -224 -396 -385 vvcurveto
          -408 262 -299 432 vhcurveto
          hintmask 1010111110000000
          80 96 10 23 109 hvcurveto
          hintmask 0111011110000000
          98 vmoveto
          -22 -82 -67 -10 -76 hhcurveto
          -324 -225 251 388 -4 hvcurveto
          421 -4 237 255 291 hhcurveto
          80 96 -13 -35 78 hvcurveto
          endchar
        </CharString>
        <CharString name="Oacute">
          -37 callgsubr
          616 -98 callsubr
          -67 -395 -105 callgsubr
        </CharString>
        <CharString name="Ocircumflex">
          -37 callgsubr
          1210 -59 callgsubr
          -358 -81 -105 callgsubr
        </CharString>
        <CharString name="Odieresis">
          438 -33 84 1334 82 119 259 hstem
          94 201 224 222 147 222 221 205 vstem
          631 1845 rmoveto
          -83 callsubr
          369 hmoveto
          -83 callsubr
          -193 -378 -105 callgsubr
        </CharString>
        <CharString name="Ograve">
          -37 callgsubr
          931 -70 callsubr
          173 -272 -105 callgsubr
        </CharString>
        <CharString name="Ohungarumlaut">
          -37 callgsubr
          569 -51 callsubr
          -236 -376 -105 callgsubr
        </CharString>
        <CharString name="Omacron">
          438 -33 84 1334 82 258 119 hstem
          94 201 1036 205 vstem
          1067 1729 -31 callsubr
          283 -254 -105 callgsubr
        </CharString>
        <CharString name="Omega">
          -84 callsubr
        </CharString>
        <CharString name="Oslash">
          438 -33 84 1334 82 79 -20 hstem
          92 201 1036 205 vstem
          1362 1477 rmoveto
          -111 69 -94 -162 rlineto
          52 -97 -117 31 -138 hhcurveto
          -484 -229 -406 -344 -239 93 -255 218 -142 hvcurveto
          -106 -183 98 -62 112 190 rlineto
          -38 88 105 -21 121 hhcurveto
          483 230 410 340 210 -87 235 -182 150 hvcurveto
          -786 -1100 rmoveto
          -127 144 -59 216 182 vvcurveto
          303 168 328 337 116 99 -43 -70 79 vhcurveto
          90 -101 rmoveto
          96 -136 51 -183 -174 vvcurveto
          -301 -168 -326 -336 -100 -85 30 50 -71 vhcurveto
          endchar
        </CharString>
        <CharString name="Otilde">
          438 -33 84 1334 82 124 129 17 127 98 callsubr
          1036 205 hintmask 00000000
          hintmask 11101100
          502 1614 rmoveto
          hintmask 11111100
          88 callsubr
          hintmask 11101100
          -48 callgsubr
          hintmask 11111100
          57 callsubr
          375 -186 -105 callgsubr
        </CharString>
        <CharString name="P">
          -69 callgsubr
        </CharString>
        <CharString name="Pi">
          -68 callsubr
        </CharString>
        <CharString name="Q">
          442 -446 67 346 84 -67 -20 1421 82 98 callsubr
          1036 205 hintmask 00000000
          809 -33 rmoveto
          131 73 -133 -166 185 hvcurveto
          -114 127 71 0 148 hhcurveto
          65 67 hlineto
          -79 -58 57 177 -190 hvcurveto
          hintmask 11011100
          -121 113 -71 15 -101 1 rrcurveto
          370 82 177 353 298 vvcurveto
          342 -230 408 -499 -484 -229 -406 -344 vhcurveto
          hintmask 10111100
          -354 205 -389 510 -7 vhcurveto
          -514 787 rmoveto
          303 168 328 337 340 191 -371 -336 -301 -168 -326 -336 -366 -166 399 304 vhcurveto
          endchar
        </CharString>
        <CharString name="R">
          50 callgsubr
          -63 callsubr
          507 199 hintmask 00000000
          113 1343 -97 callgsubr
          rrcurveto
          hintmask 11111000
          -81 callsubr
          endchar
        </CharString>
        <CharString name="Racute">
          50 callgsubr
          -78 78 -63 callsubr
          507 199 63 callsubr
          486 -98 callsubr
          hintmask 11101100
          -631 -519 -97 callgsubr
          rrcurveto
          hintmask 11011100
          -81 callsubr
          endchar
        </CharString>
        <CharString name="Rcaron">
          50 callgsubr
          -78 78 hstem
          254 179 507 199 vstem
          999 -77 callgsubr
          -489 -255 -97 callgsubr
          -81 callsubr
          endchar
        </CharString>
        <CharString name="Rcommaaccent">
          50 callgsubr
          -63 callsubr
          150 147 210 199 hintmask 00000000
          113 1343 -97 callgsubr
          rrcurveto
          hintmask 11111100
          -81 callsubr
          132 -867 -99 callsubr
        </CharString>
        <CharString name="Ring">
          -533 1464 72 311 70 hstem
          94 119 229 119 vstem
          326 1917 rmoveto
          -117 -119 -96 -142 4 hvcurveto
          -149 6 115 -66 115 hhcurveto
          114 121 92 148 -4 hvcurveto
          147 -6 -119 66 -110 hhcurveto
          -7 -70 rmoveto
          70 4 53 -59 -117 vvcurveto
          -84 -49 -53 -55 -2 vhcurveto
          -76 -2 -49 65 101 vvcurveto
          86 43 57 63 4 vhcurveto
          endchar
        </CharString>
        <CharString name="S">
          -76 callgsubr
        </CharString>
        <CharString name="Sacute">
          -31 callgsubr
          hintmask 00000000
          hintmask 11010010
          401 -98 callsubr
          hintmask 11001100
          -540 -1442 -54 callgsubr
          hintmask 11010100
          -28 callsubr
          vhcurveto
          hintmask 11010010
          16 callgsubr
          hvcurveto
          74 hlineto
          hintmask 10110010
          55 callgsubr
          hintmask 11010100
          -66 callgsubr
          hintmask 11001010
          16 callsubr
          hvcurveto
          endchar
        </CharString>
        <CharString name="Scaron">
          -31 callgsubr
          hintmask 11001100
          982 -77 callgsubr
          -466 -1178 -54 callgsubr
          hintmask 11010010
          -28 callsubr
          16 callgsubr
          vhcurveto
          74 hlineto
          hintmask 10101010
          449 -104 vlineto
          hintmask 11001100
          8 -88 rlineto
          82 -112 -139 24 -106 hhcurveto
          hintmask 11010100
          -331 -84 -222 -139 hvcurveto
          -483 772 84 -398 vvcurveto
          -166 -135 -90 -160 16 callsubr
          vhcurveto
          endchar
        </CharString>
        <CharString name="Scedilla">
          -27 -208 92 84 85 1332 82 -18 -20 hstemhm
          123 168 -166 107 509 168 -14 176 -154 74 hintmask 0000000000000000
          hintmask 1110100010000000
          991 1000 rmoveto
          hintmask 1101100010000000
          55 callgsubr
          hintmask 1110100100000000
          -66 callgsubr
          hintmask 1110011010000000
          16 callsubr
          hvcurveto
          -79 hlineto
          12 -436 rlineto
          106 hlineto
          -10 88 92 -64 126 -35 115 -5 rlinecurve
          -46 -172 69 -34 rlineto
          -83 callgsubr
          41 123 rlineto
          hintmask 1110100100000000
          255 26 143 153 206 -28 callsubr
          vhcurveto
          hintmask 1110100010000000
          16 callgsubr
          hvcurveto
          endchar
        </CharString>
        <CharString name="Scommaaccent">
          -27 -33 86 1332 82 -18 -20 hstemhm
          123 168 -166 107 369 147 147 176 -154 74 hintmask 00000000
          119 420 -54 callgsubr
          hintmask 11001110
          -28 callsubr
          vhcurveto
          hintmask 11010110
          16 callgsubr
          hvcurveto
          74 hlineto
          hintmask 11010101
          55 callgsubr
          hintmask 10110101
          -66 callgsubr
          hintmask 11010110
          16 callsubr
          hvcurveto
          385 -567 -99 callsubr
        </CharString>
        <CharString name="T">
          123 0 -11 callgsubr
          443 71 63 callsubr
          1263 1001 -73 callgsubr
        </CharString>
        <CharString name="Tcaron">
          123 0 -11 callgsubr
          443 71 hintmask 11011100
          1049 -77 callgsubr
          611 -597 -73 callgsubr
        </CharString>
        <CharString name="Thorn">
          33 0 86 244 80 698 78 161 86 -46 callsubr
          536 199 hintmask 00000000
          hintmask 11110110
          433 331 rmoveto
          -1 21 21 0 11 hhcurveto
          561 135 260 213 -14 hvcurveto
          262 -17 -213 121 -395 hhcurveto
          -110 -2 rlineto
          hintmask 11101110
          107 13 70 128 5 vhcurveto
          hintmask 11110110
          -27 callgsubr
          -30 callsubr
          53 74 vvcurveto
          860 vmoveto
          2 38 36 2 48 hhcurveto
          273 141 -119 -217 -203 -129 -153 -274 -6 hvcurveto
          -50 -2 -33 0 -50 7 rrcurveto
          endchar
        </CharString>
        <CharString name="Tilde">
          -213 1591 129 17 127 hstemhm
          92 791 hintmask 00000000
          hintmask 10100000
          162 1614 rmoveto
          hintmask 11100000
          88 callsubr
          hintmask 10100000
          -48 callgsubr
          hintmask 11100000
          57 callsubr
          endchar
        </CharString>
        <CharString name="U">
          -45 callsubr
          1478 1434 -102 callgsubr
        </CharString>
        <CharString name="Uacute">
          -45 callsubr
          614 -98 callsubr
          606 -428 -102 callgsubr
        </CharString>
        <CharString name="Ucircumflex">
          -45 callsubr
          1188 -59 callgsubr
          335 -114 -102 callgsubr
        </CharString>
        <CharString name="Udieresis">
          352 -33 117 1265 85 -68 68 152 259 64 callsubr
          129 222 147 222 136 94 hintmask 00000000
          hintmask 11011111
          623 1845 rmoveto
          -83 callsubr
          369 hmoveto
          -83 callsubr
          486 -411 rmoveto
          -381 -91 hlineto
          147 -44 callgsubr
          -8 -575 rlineto
          -320 -4 -125 -225 -295 hhcurveto
          -367 -57 299 305 hvcurveto
          516 vlineto
          hintmask 10111111
          56 2 106 139 vhcurveto
          hintmask 11011111
          68 -460 -88 vlineto
          147 6 rlineto
          -4 -54 -4 -112 -72 vvcurveto
          -416 vlineto
          -506 141 -225 438 410 139 316 356 2 vhcurveto
          475 vlineto
          hintmask 10111111
          4 146 -12 -12 callgsubr
        </CharString>
        <CharString name="Ugrave">
          -45 callsubr
          929 -70 callsubr
          846 -305 -102 callgsubr
        </CharString>
        <CharString name="Uhungarumlaut">
          -45 callsubr
          567 -51 callsubr
          437 -409 -102 callgsubr
        </CharString>
        <CharString name="Umacron">
          352 -33 117 1265 85 -68 68 291 119 64 callsubr
          856 94 63 callsubr
          1065 1729 -31 callsubr
          956 -287 rmoveto
          -381 -91 hlineto
          147 -44 callgsubr
          -8 -575 rlineto
          -320 -4 -125 -225 -295 hhcurveto
          -367 -57 299 305 hvcurveto
          516 vlineto
          hintmask 10111100
          56 2 106 139 vhcurveto
          hintmask 11011100
          68 -460 -88 vlineto
          147 6 rlineto
          -4 -54 -4 -112 -72 vvcurveto
          -416 vlineto
          -506 141 -225 438 410 139 316 356 2 vhcurveto
          475 vlineto
          hintmask 10111100
          4 146 -12 -12 callgsubr
        </CharString>
        <CharString name="Uogonek">
          352 -519 110 376 117 1265 85 -68 68 64 callsubr
          201 166 489 94 hintmask 00000000
          hintmask 01101010
          1478 -14 callgsubr
          -381 -91 hlineto
          147 -44 callgsubr
          -8 -575 rlineto
          -320 -4 -125 -225 -295 hhcurveto
          -367 -57 299 305 hvcurveto
          516 vlineto
          hintmask 01011010
          56 2 106 139 vhcurveto
          hintmask 11101110
          68 -460 -88 vlineto
          147 6 rlineto
          -4 -54 -4 -112 -72 vvcurveto
          -416 vlineto
          -506 141 -225 438 vhcurveto
          8 hlineto
          -118 -71 -88 -96 -110 -53 callsubr
          124 106 90 130 54 hvcurveto
          11 4 10 4 10 4 3 1 rcurveline
          228 100 83 251 2 276 rrcurveto
          475 vlineto
          hintmask 01011010
          4 146 -12 -12 callgsubr
        </CharString>
        <CharString name="Uring">
          352 -33 117 1265 85 -68 68 143 64 264 64 64 callsubr
          212 88 callgsubr
          243 94 hintmask 0000000000000000
          hintmask 1101111110000000
          793 1969 -58 callgsubr
          685 -471 rmoveto
          -381 -91 hlineto
          147 -44 callgsubr
          -8 -575 rlineto
          -320 -4 -125 -225 -295 hhcurveto
          -367 -57 299 305 hvcurveto
          516 vlineto
          hintmask 1011111110000000
          56 2 106 139 vhcurveto
          hintmask 1101111110000000
          68 -460 -88 vlineto
          147 6 rlineto
          -4 -54 -4 -112 -72 vvcurveto
          -416 vlineto
          -506 141 -225 438 410 139 316 356 2 vhcurveto
          475 vlineto
          hintmask 1011111110000000
          4 146 -12 -12 callgsubr
        </CharString>
        <CharString name="V">
          149 1345 88 -68 68 hstemhm
          -8 1382 -1267 227 hintmask 00000000
          hintmask 10100000
          1374 -14 callgsubr
          -415 -91 hlineto
          157 9 -16 -33 -19 -49 -24 -70 rlinecurve
          -43 -121 -64 -174 -120 -342 -43 -121 -29 -77 -31 -95 rrcurveto
          -4 hlineto
          -33 92 -67 150 -66 154 -74 174 -55 141 -65 162 rrcurveto
          hintmask 01010000
          -56 135 21 78 137 8 2 2 rcurveline
          hintmask 10010000
          68 -475 -91 vlineto
          115 5 8 -62 20 -78 60 -139 rlinecurve
          465 -1089 rlineto
          57 hlineto
          401 1099 14 42 16 44 rrcurveto
          hintmask 01100000
          52 148 53 47 121 6 rrcurveto
          endchar
        </CharString>
        <CharString name="W">
          850 1346 87 -68 68 4 -20 hstemhm
          14 2054 hintmask 00000000
          1013 1438 rmoveto
          -35 -123 -121 -359 -116 -364 -19 -55 -37 -123 -28 -92 rrcurveto
          -4 hlineto
          -41 129 -39 92 -39 123 -53 165 -54 132 -49 180 rrcurveto
          hintmask 00110000
          -45 164 19 51 159 8 rrcurveto
          hintmask 01010000
          68 -497 -91 vlineto
          116 5 11 -62 26 -74 49 -143 rlinecurve
          365 -1089 rlineto
          59 hlineto
          361 1095 383 -1095 rlineto
          61 hlineto
          129 354 115 358 125 371 rrcurveto
          hintmask 10010000
          86 252 29 35 139 16 rrcurveto
          hintmask 01010000
          68 -416 -91 vlineto
          164 7 -26 -47 -21 -58 -15 -45 rlinecurve
          -43 -127 -28 -106 -140 -406 -32 -93 -29 -92 -24 -79 rrcurveto
          -5 hlineto
          -38 129 -44 117 -38 123 rrcurveto
          hintmask 10010000
          -54 165 -149 426 -51 181 rrcurveto
          endchar
        </CharString>
        <CharString name="X">
          -86 callsubr
        </CharString>
        <CharString name="Y">
          52 callsubr
          1319 1434 -71 callgsubr
        </CharString>
        <CharString name="Yacute">
          52 callsubr
          497 -98 callsubr
          564 -428 -71 callgsubr
        </CharString>
        <CharString name="Ydieresis">
          110 0 86 1259 88 -68 68 227 245 hstemhm
          404 204 -27 177 -12 204 hintmask 00000000
          507 1906 rmoveto
          -37 callsubr
          342 hmoveto
          -37 callsubr
          470 -472 rmoveto
          -418 hlineto
          hintmask 10111010
          -70 callgsubr
          hintmask 11000010
          2 callgsubr
          hintmask 10100100
          -5 callgsubr
          355 -563 rlineto
          -234 vlineto
          -1 -3 callgsubr
          -2 1 2 269 1 100 80 151 84 160 95 177 rrcurveto
          hintmask 11000100
          34 callgsubr
        </CharString>
        <CharString name="Z">
          26 callsubr
          1141 1362 -89 callgsubr
        </CharString>
        <CharString name="Zacute">
          26 callsubr
          468 -98 callsubr
          415 -500 -89 callgsubr
        </CharString>
        <CharString name="Zcaron">
          26 callsubr
          1052 -77 callgsubr
          486 -236 -89 callgsubr
        </CharString>
        <CharString name="Zdotaccent">
          61 0 80 1274 80 224 243 hstem
          119 64 333 219 347 63 vstem
          627 1901 -75 callsubr
          514 -539 -89 callgsubr
        </CharString>
        <CharString name="a">
          -55 callsubr
          695 571 -42 callgsubr
          hintmask 10111010
          -65 callgsubr
          hintmask 01110110
          -106 callsubr
          hintmask 10111010
          -101 callsubr
        </CharString>
        <CharString name="aacute">
          -55 callsubr
          349 1235 -96 callsubr
          174 -940 -42 callgsubr
          hintmask 10111010
          -65 callgsubr
          hintmask 01110110
          -106 callsubr
          hintmask 10111010
          -101 callsubr
        </CharString>
        <CharString name="abreve">
          -33 -41 callsubr
          180 125 73 callgsubr
          hintmask 01111101
          738 -32 callsubr
          -98 -914 -42 callgsubr
          hintmask 10111101
          -65 callgsubr
          hintmask 01111011
          -106 callsubr
          hintmask 10111101
          -101 callsubr
        </CharString>
        <CharString name="acircumflex">
          -55 callsubr
          831 -60 callsubr
          -81 -623 -42 callgsubr
          hintmask 10111010
          -65 callgsubr
          hintmask 01110110
          -106 callsubr
          hintmask 10111010
          -101 callsubr
        </CharString>
        <CharString name="acute">
          -672 1188 379 hstem
          92 330 vstem
          92 1235 -96 callsubr
          endchar
        </CharString>
        <CharString name="adieresis">
          -33 -41 callsubr
          191 243 -22 callgsubr
          -86 61 callgsubr
          -76 175 hintmask 0000000000000000
          328 -88 callsubr
          hintmask 0111100110000000
          25 -920 -9 callsubr
          hintmask 1011010001000000
          -106 callsubr
          hintmask 0111001001000000
          -101 callsubr
        </CharString>
        <CharString name="ae">
          403 -33 105 -105 117 409 70 35 80 299 80 -75 75 82 callsubr
          -129 174 379 179 443 185 hintmask 0000000000000000
          hintmask 1011011011000000
          689 563 rmoveto
          -273 4 -346 -110 -252 vvcurveto
          hintmask 0111011011000000
          -137 113 -101 186 147 137 52 142 104 vhcurveto
          2 hlineto
          hintmask 1011010111000000
          -136 76 129 -58 161 hhcurveto
          139 131 64 170 113 hvcurveto
          -51 41 rlineto
          -97 -68 -88 68 callsubr
          -188 -140 184 336 25 hvcurveto
          625 12 rlineto
          326 -2 -154 127 -207 hhcurveto
          -146 -112 -73 -104 -76 hvcurveto
          110 -49 -97 67 -137 hhcurveto
          -236 -144 -130 -123 -61 34 -36 51 -1 hvcurveto
          65 -1 24 56 32 vvcurveto
          16 -9 34 -19 17 vhcurveto
          74 29 85 48 90 hhcurveto
          185 18 -148 -146 hvcurveto
          196 -10 rmoveto
          hintmask 0111101011000000
          162 19 61 137 160 hhcurveto
          160 26 -154 -145 hvcurveto
          -625 -185 rmoveto
          3 -79 11 -139 7 -56 -80 -90 -97 -53 -122 8 -65 4 -74 41 -4 101 -7 191 241 65 187 7 rrcurveto
          endchar
        </CharString>
        <CharString name="agrave">
          -55 callsubr
          622 -79 callgsubr
          303 -834 -42 callgsubr
          hintmask 10111010
          -65 callgsubr
          hintmask 01110110
          -106 callsubr
          hintmask 10111010
          -101 callsubr
        </CharString>
        <CharString name="amacron">
          -33 -41 callsubr
          258 119 73 callgsubr
          hintmask 01111101
          785 1319 -31 callsubr
          453 -740 -42 callgsubr
          hintmask 10111101
          -65 callgsubr
          hintmask 01111011
          -106 callsubr
          hintmask 10111101
          -101 callsubr
        </CharString>
        <CharString name="ampersand">
          235 -33 103 -70 68 644 80 607 67 hstemhm
          74 205 -39 172 392 157 62 98 hintmask 00000000
          1440 hmoveto
          68 vlineto
          -43 -92 51 110 -123 hvcurveto
          -39 34 -33 31 -31 28 34 87 10 84 -2 54 -3 75 -18 57 -43 37 170 -7 rcurveline
          84 -358 -68 vlineto
          121 -6 33 -105 -94 vvcurveto
          -37 -6 -45 -13 -48 vhcurveto
          -107 99 -51 51 -57 60 -56 58 -57 58 -52 56 rrcurveto
          247 126 90 130 152 vvcurveto
          161 -135 126 -207 -219 -158 -126 -196 -2 vhcurveto
          -1 -129 47 -109 110 -136 rrcurveto
          hintmask 01110111
          -198 -86 -124 -141 -175 vvcurveto
          -291 242 -111 238 215 139 90 112 87 vhcurveto
          hintmask 10111011
          -123 142 87 -46 26 hhcurveto
          -641 1400 rmoveto
          125 70 -95 -132 -120 -71 -131 -154 -100 hvcurveto
          -96 105 -71 118 116 vvcurveto
          154 84 85 113 vhcurveto
          hintmask 01110111
          -161 -690 rmoveto
          99 -113 139 -134 185 -180 20 -20 19 -18 19 -17 -68 -93 -110 -72 -171 7 rrcurveto
          -151 6 -150 99 225 vvcurveto
          84 38 148 131 78 vhcurveto
          endchar
        </CharString>
        <CharString name="aogonek">
          -520 110 377 -41 callsubr
          -22 callgsubr
          215 166 2 175 hintmask 0000000000000000
          hintmask 1011110010000000
          1006 hmoveto
          86 vlineto
          -145 -8 rlineto
          6 55 2 41 43 vvcurveto
          460 vlineto
          264 4 -107 116 -229 hhcurveto
          hintmask 1011101010000000
          -235 -170 -109 -137 -55 30 -45 57 -1 hvcurveto
          68 -2 24 56 33 vvcurveto
          25 -6 29 -20 23 vhcurveto
          39 78 94 32 80 -2 rrcurveto
          178 -6 19 -136 -141 vvcurveto
          -128 vlineto
          hintmask 1101110010000000
          -274 5 -351 -113 -253 vvcurveto
          -65 callgsubr
          hintmask 1011110100000000
          3 -38 3 -31 8 -47 rrcurveto
          81 hlineto
          -147 -73 -121 -109 -129 -53 callsubr
          126 109 90 132 54 hvcurveto
          hintmask 1101110010000000
          -239 204 rmoveto
          -76 -82 -78 -44 -110 hhcurveto
          -85 -70 50 101 -4 hvcurveto
          -7 193 248 67 188 6 rrcurveto
          0 -95 -1 -85 0 -11 0 -39 0 -36 -31 flex1
          endchar
        </CharString>
        <CharString name="approxequal">
          24 310 130 14 131 53 130 14 131 hstemhm
          152 910 hintmask 00000000
          hintmask 01011000
          152 689 rmoveto
          73 callsubr
          hintmask 01111000
          53 callgsubr
          13 -146 -33 132 -211 hhcurveto
          -108 -66 -37 -65 -86 hvcurveto
          -450 vmoveto
          73 callsubr
          hintmask 11011000
          53 callgsubr
          12 -146 -33 133 -211 hhcurveto
          -108 -66 -37 -65 -86 hvcurveto
          endchar
        </CharString>
        <CharString name="aring">
          -33 -41 callsubr
          110 64 264 64 -22 callgsubr
          3 88 callgsubr
          -21 175 hintmask 0000000000000000
          513 1559 -58 callgsubr
          hintmask 0111111011000000
          182 -924 -9 callsubr
          hintmask 1011111010100000
          -106 callsubr
          hintmask 0111110100100000
          -101 callsubr
        </CharString>
        <CharString name="asciicircum">
          498 1394 73 hstem
          123 1440 vstem
          1563 894 rmoveto
          -627 573 rlineto
          -182 hlineto
          -631 -563 rlineto
          168 hlineto
          546 490 545 -500 rlineto
          endchar
        </CharString>
        <CharString name="asciitilde">
          0 473 139 15 139 hstemhm
          139 910 hintmask 00000000
          hintmask 01100000
          139 528 rmoveto
          54 74 66 45 112 164 45 -154 205 hhcurveto
          hintmask 11100000
          108 80 45 62 56 hvcurveto
          129 vlineto
          -70 -64 -92 -41 -98 8 rrcurveto
          hintmask 01100000
          13 -146 -33 141 -211 hhcurveto
          -108 -66 -39 -70 -86 hvcurveto
          endchar
        </CharString>
        <CharString name="asterisk">
          -123 984 57 0 -20 446 -20 hstemhm
          452 157 hintmask 00000000
          hintmask 01110000
          532 68 callgsubr
          -76 -10 -84 -65 8 hvcurveto
          10 -92 13 -105 24 -80 -69 47 -95 43 -84 39 -61 29 -82 16 -25 -71 rrcurveto
          hintmask 10110000
          -24 -72 76 -33 65 -14 88 -17 107 -20 86 -4 -68 -51 -69 -74 -64 -68 -43 -49 -41 -78 59 -45 62 -43 53 60 33 57 43 80 53 98 31 78 29 -78 55 -98 43 -80 rrcurveto
          35 -57 53 -60 59 43 62 45 -43 80 -45 47 -64 68 -71 72 -66 53 84 4 106 20 89 17 67 16 74 31 -25 72 -22 69 -86 -14 -60 -29 -84 -41 -92 -43 -71 -45 rrcurveto
          24 80 12 105 11 92 rrcurveto
          hintmask 01110000
          65 8 -6 84 -76 hhcurveto
          endchar
        </CharString>
        <CharString name="at">
          442 -195 89 238 70 -59 78 705 61 232 84 hstemhm
          102 158 188 143 369 129 309 146 hintmask 0000000000000000
          hintmask 1101111110000000
          1339 84 rmoveto
          -143 -170 -201 -25 -142 5 rrcurveto
          -305 8 -288 192 445 vvcurveto
          344 200 307 338 27 vhcurveto
          338 26 275 -182 -13 -494 -6 -241 -115 -146 -114 25 -76 16 -6 111 8 106 10 135 29 201 22 187 rrcurveto
          18 -67 -90 8 -64 hhcurveto
          -313 -168 -260 -299 hvcurveto
          hintmask 1011111110000000
          -201 102 -84 115 88 123 43 312 100 vhcurveto
          4 hlineto
          -28 -158 -27 -172 189 -33 rrcurveto
          hintmask 1101111110000000
          137 -24 293 110 430 vvcurveto
          328 -246 350 -483 -26 vhcurveto
          -490 -27 -223 -406 -344 vvcurveto
          -393 250 -338 504 10 vhcurveto
          215 5 186 71 131 152 rrcurveto
          -510 893 rmoveto
          51 43 -6 -13 33 hvcurveto
          hintmask 1011111110000000
          -286 -2 -156 -400 -147 hhcurveto
          -70 -39 88 137 hvcurveto
          hintmask 1101111110000000
          216 95 264 192 vhcurveto
          endchar
        </CharString>
        <CharString name="atilde">
          -33 -41 callsubr
          196 127 -16 125 -41 -20 47 callsubr
          hintmask 0000000000000000
          231 37 callsubr
          hintmask 0111010101000000
          -47 callsubr
          hintmask 0111101101000000
          72 callgsubr
          525 -742 -9 callsubr
          hintmask 1011010101000000
          -106 callsubr
          hintmask 0111101011000000
          -101 callsubr
        </CharString>
        <CharString name="b">
          4 -33 84 905 101 352 82 55 -20 hstem
          155 176 563 211 vstem
          331 1546 rmoveto
          -59 hlineto
          -28 -31 -45 -92 callgsubr
          0 -35 -43 vvcurveto
          -1280 68 vlineto
          49 92 rlineto
          -98 86 123 -27 92 hhcurveto
          276 256 220 349 321 -202 200 -261 -128 -107 -46 -76 -76 hvcurveto
          -95 vmoveto
          70 63 95 46 90 hhcurveto
          213 102 -195 -275 -258 -123 -177 -198 -125 -117 53 218 hvcurveto
          endchar
        </CharString>
        <CharString name="backslash">
          69 callgsubr
          -481 rmoveto
          -1197 2037 -132 -83 1210 -2029 rlineto
          endchar
        </CharString>
        <CharString name="bar">
          -715 1556 -20 hstem
          162 153 vstem
          315 -555 rmoveto
          2111 -153 -2111 vlineto
          endchar
        </CharString>
        <CharString name="braceleft">
          84 callgsubr
          14 178 45 158 -137 164 hintmask 00000000
          hintmask 01101000
          659 1556 rmoveto
          -57 hlineto
          -281 -84 -133 -289 hvcurveto
          -121 21 -116 -106 vvcurveto
          hintmask 01110100
          -140 -45 -59 -152 vhcurveto
          -47 -106 47 hlineto
          152 45 -68 -139 hvcurveto
          -107 -21 -168 -121 vvcurveto
          hintmask 11101000
          -288 84 -150 281 vhcurveto
          57 57 hlineto
          -211 -6 -53 125 234 92 27 213 96 vvcurveto
          hintmask 01110100
          170 -113 88 -117 23 vhcurveto
          4 vlineto
          117 22 113 80 170 96 -27 162 92 vvcurveto
          hintmask 01101000
          233 53 97 211 -7 vhcurveto
          endchar
        </CharString>
        <CharString name="braceright">
          84 callgsubr
          262 164 -137 158 45 178 hintmask 00000000
          hintmask 01101000
          25 1556 rmoveto
          -70 vlineto
          211 7 53 -97 -233 -92 -27 -162 -96 vvcurveto
          hintmask 01110100
          -170 113 -80 117 -22 vhcurveto
          -4 vlineto
          -117 -23 -113 -88 -170 -96 27 -213 -92 vvcurveto
          hintmask 11101000
          -234 -53 -125 -211 6 vhcurveto
          -57 57 vlineto
          281 84 150 288 hvcurveto
          121 -21 168 107 vvcurveto
          hintmask 01110100
          139 45 68 152 vhcurveto
          47 106 -47 hlineto
          -152 -45 59 140 hvcurveto
          106 21 116 121 vvcurveto
          hintmask 01101000
          289 -84 133 -281 vhcurveto
          endchar
        </CharString>
        <CharString name="bracketleft">
          84 callsubr
          164 144 vstem
          707 1423 rmoveto
          123 -543 -2068 547 123 vlineto
          -403 6 rlineto
          1810 vlineto
          endchar
        </CharString>
        <CharString name="bracketright">
          84 callsubr
          428 144 vstem
          29 -399 rmoveto
          -123 543 2068 -547 -123 vlineto
          403 -6 rlineto
          -1810 vlineto
          endchar
        </CharString>
        <CharString name="breve">
          -445 1237 125 hstem
          92 559 vstem
          596 -32 callsubr
          endchar
        </CharString>
        <CharString name="brokenbar">
          -690 1556 -20 hstem
          172 149 vstem
          317 789 rmoveto
          8 767 rlineto
          -153 -767 hlineto
          145 -1344 rmoveto
          8 762 rlineto
          -153 -762 hlineto
          endchar
        </CharString>
        <CharString name="bullet">
          -367 463 606 hstem
          102 617 vstem
          409 1069 rmoveto
          -170 -137 -133 -170 -170 137 -133 170 170 140 133 170 170 -140 133 -170 hvcurveto
          endchar
        </CharString>
        <CharString name="c">
          5 callsubr
          967 250 -93 callgsubr
        </CharString>
        <CharString name="cacute">
          5 callsubr
          432 1235 -96 callsubr
          363 -1261 -93 callgsubr
        </CharString>
        <CharString name="caron">
          -369 1174 403 hstem
          92 635 vstem
          727 -75 callgsubr
          endchar
        </CharString>
        <CharString name="ccaron">
          5 callsubr
          914 -75 callgsubr
          379 -924 -93 callgsubr
        </CharString>
        <CharString name="ccedilla">
          -98 -208 92 84 106 907 76 hstemhm
          84 209 446 168 -100 190 hintmask 00000000
          hintmask 11111000
          76 callgsubr
          -211 -141 197 60 callgsubr
          153 187 hvcurveto
          hintmask 11110100
          57 122 -14 -96 36 hvcurveto
          -24 -25 -7 -31 -27 vvcurveto
          -35 24 -59 71 2 vhcurveto
          61 1 34 49 58 vvcurveto
          133 -151 120 -228 -317 -217 -280 -283 -320 212 -192 262 -14 vhcurveto
          -46 -172 69 -34 rlineto
          hintmask 11111000
          -83 callgsubr
          42 127 123 23 137 73 88 138 rlinecurve
          endchar
        </CharString>
        <CharString name="cedilla">
          -590 -208 92 hstem
          338 168 vstem
          285 16 rmoveto
          -115 hlineto
          -59 -220 69 -34 rlineto
          -83 callgsubr
          endchar
        </CharString>
        <CharString name="cent">
          -101 983 74 hstemhm
          74 209 226 120 -117 133 152 190 hintmask 00000000
          645 1274 rmoveto
          -133 -217 hlineto
          -264 -48 -174 -261 -254 vvcurveto
          hintmask 11010000
          -304 191 -193 244 -30 vhcurveto
          -241 120 241 vlineto
          131 15 154 76 96 150 -53 41 rcurveline
          -98 -66 -129 -80 -127 hhcurveto
          -211 -141 200 60 callgsubr
          155 187 57 122 -14 -96 36 hvcurveto
          -24 -25 -7 -31 -27 vvcurveto
          -35 24 -59 71 2 vhcurveto
          61 1 34 49 58 vvcurveto
          hintmask 11101000
          126 -136 113 -206 12 vhcurveto
          endchar
        </CharString>
        <CharString name="circumflex">
          -369 1194 399 hstem
          92 635 vstem
          727 -60 callsubr
          endchar
        </CharString>
        <CharString name="colon">
          -676 1057 -20 hstem
          137 239 vstem
          258 1057 -42 callsubr
          -825 vmoveto
          14 callgsubr
        </CharString>
        <CharString name="comma">
          -670 -11 218 hstem
          282 111 vstem
          241 -366 rmoveto
          -91 callsubr
          endchar
        </CharString>
        <CharString name="commaaccentcomb">
          -1188 -531 416 hstem
          260 147 vstem
          242 -147 -99 callsubr
        </CharString>
        <CharString name="copyright">
          608 -102 102 209 129 778 111 209 100 hstem
          90 138 186 192 573 98 297 135 vstem
          901 1536 rmoveto
          -471 -340 -371 -452 -471 322 -344 485 453 360 366 449 452 -333 371 -476 hvcurveto
          -4 -100 rmoveto
          406 272 -344 -379 -377 -264 -336 -408 -419 -256 336 377 379 268 344 401 hvcurveto
          367 -947 rmoveto
          -94 -76 -129 -57 -90 hhcurveto
          -215 -148 168 227 252 162 131 156 141 109 -65 -179 22 hvcurveto
          82 345 -102 hlineto
          7 -74 rlineto
          50 -70 -97 34 -100 hhcurveto
          -330 -172 -277 -241 -281 213 -219 283 116 178 43 166 121 hvcurveto
          endchar
        </CharString>
        <CharString name="currency">
          -92 138 80 627 73 hstem
          172 176 402 176 vstem
          973 910 rmoveto
          -83 66 -110 -138 rlineto
          49 -60 -78 31 -93 hhcurveto
          -93 -78 -31 -49 -60 hvcurveto
          -110 138 -83 -66 126 -143 rlineto
          -52 -72 -27 -89 -85 vvcurveto
          -86 25 -83 48 -67 vhcurveto
          -120 -137 83 -66 105 132 rlineto
          -47 60 79 -29 96 hhcurveto
          96 80 29 47 60 hvcurveto
          106 -132 83 66 -121 137 rlineto
          49 67 25 84 85 vvcurveto
          85 -27 89 -52 72 vhcurveto
          -298 -549 rmoveto
          -162 -39 205 131 104 47 187 154 154 47 -187 -104 -131 -39 -205 -162 hvcurveto
          endchar
        </CharString>
        <CharString name="d">
          37 -33 101 -68 82 894 81 352 54 callsubr
          hintmask 00000000
          hintmask 01111110
          1026 1546 6 callgsubr
          hintmask 10111110
          22 callsubr
          hintmask 01111110
          -24 callsubr
          hintmask 10111110
          -24 callgsubr
        </CharString>
        <CharString name="dagger">
          -139 853 146 -143 146 554 -20 hstemhm
          432 185 -121 57 hintmask 00000000
          hintmask 01101000
          553 -555 rmoveto
          23 379 10 389 47 360 -30 75 -27 111 -32 151 75 callsubr
          hintmask 10110000
          66 callsubr
          188 15 152 rrcurveto
          65 6 -21 84 -75 hhcurveto
          -76 -25 -84 -65 6 hvcurveto
          14 -152 37 -188 67 callgsubr
          hintmask 01101000
          78 callsubr
          -151 -27 -112 -30 -75 47 -360 10 -389 23 -379 rrcurveto
          endchar
        </CharString>
        <CharString name="daggerdbl">
          -101 11 146 -143 146 680 146 -143 146 567 -20 hstemhm
          451 185 hintmask 00000000
          hintmask 01011100
          546 1556 rmoveto
          -76 -25 -84 -65 6 hvcurveto
          hintmask 01101100
          14 -152 37 -201 67 callgsubr
          hintmask 10011100
          78 callsubr
          -155 -27 -166 -30 -75 30 -75 27 -170 31 -155 -100 20 -102 22 -99 13 rrcurveto
          -66 8 -84 -4 -76 vvcurveto
          hintmask 01011100
          -75 84 -5 66 9 vhcurveto
          100 13 102 21 100 21 -22 -123 -37 -199 -14 -152 rrcurveto
          -65 -6 21 -85 75 hhcurveto
          76 25 85 65 -6 hvcurveto
          -15 152 -36 199 -23 123 101 -21 102 -21 100 -13 rrcurveto
          66 -9 84 5 75 vvcurveto
          hintmask 10011100
          76 -84 4 -66 -8 vhcurveto
          -99 -13 -102 -21 -101 -21 32 156 27 169 30 75 -30 75 -27 165 -32 155 75 callsubr
          hintmask 01101100
          66 callsubr
          201 15 152 rrcurveto
          hintmask 01011100
          65 6 -21 84 -75 hhcurveto
          endchar
        </CharString>
        <CharString name="dcaron">
          170 -33 101 -68 82 894 81 352 54 callsubr
          205 145 hintmask 00000000
          hintmask 01111111
          1212 1588 -39 callgsubr
          -327 -15 6 callgsubr
          hintmask 10111111
          22 callsubr
          hintmask 01111111
          -24 callsubr
          hintmask 10111111
          -24 callgsubr
        </CharString>
        <CharString name="dcroat">
          37 -33 101 -68 82 894 81 138 91 123 54 callsubr
          hintmask 00000000
          hintmask 01111111
          1026 1199 rmoveto
          159 2 rlineto
          85 -159 260 -59 vlineto
          -28 -31 -43 21 callgsubr
          -6 -52 0 -35 -40 vvcurveto
          -330 -93 hlineto
          330 4 rlineto
          -197 vlineto
          29 -54 -95 28 -91 hhcurveto
          -304 -222 -240 -334 hvcurveto
          hintmask 10111111
          22 callsubr
          hintmask 01111111
          -24 callsubr
          hintmask 10111111
          -24 callgsubr
        </CharString>
        <CharString name="degree">
          -359 828 105 432 102 hstem
          96 129 379 129 vstem
          417 68 callgsubr
          -174 -147 -141 -178 -178 123 -142 192 174 148 142 178 178 -123 141 -193 hvcurveto
          -4 -102 rmoveto
          115 76 -105 -112 -113 -76 -102 -113 -114 -76 102 113 112 76 105 112 hvcurveto
          endchar
        </CharString>
        <CharString name="dieresis">
          -395 1251 245 hstem
          123 204 138 204 vstem
          226 1496 rmoveto
          -37 callsubr
          342 hmoveto
          -37 callsubr
          endchar
        </CharString>
        <CharString name="divide">
          -647 1057 -20 hstem
          152 239 vstem
          273 1057 -42 callsubr
          -702 vmoveto
          14 callgsubr
        </CharString>
        <CharString name="dollar">
          -105 -33 81 1340 79 hstemhm
          102 166 -151 105 267 111 -100 108 227 173 -164 75 hintmask 00000000
          600 1706 rmoveto
          -111 -239 hlineto
          -286 -7 -101 -221 -129 -469 733 39 -377 vvcurveto
          -149 -112 -106 -160 vhcurveto
          hintmask 11101010
          -217 -143 106 252 -15 hvcurveto
          -71 -433 110 hlineto
          -10 83 76 -48 112 -37 95 -4 rlinecurve
          -280 108 280 vlineto
          269 19 131 171 191 vvcurveto
          hintmask 11010110
          461 -740 -19 357 vvcurveto
          120 78 121 172 vhcurveto
          hintmask 11100110
          240 73 -172 -197 13 hvcurveto
          75 448 -102 hlineto
          hintmask 11100101
          8 -87 -73 55 -77 23 -75 8 rlinecurve
          endchar
        </CharString>
        <CharString name="dotaccent">
          -782 1248 243 hstem
          94 219 vstem
          205 1491 -75 callsubr
          endchar
        </CharString>
        <CharString name="dotlessi">
          -18 callsubr
          hstem
          211 176 vstem
          387 1044 -102 callsubr
        </CharString>
        <CharString name="e">
          -52 callgsubr
          980 242 -33 callgsubr
          -106 callgsubr
        </CharString>
        <CharString name="eacute">
          -52 callgsubr
          408 1235 -96 callsubr
          400 -1269 -33 callgsubr
          -106 callgsubr
        </CharString>
        <CharString name="ecaron">
          -52 callgsubr
          890 -75 callgsubr
          416 -932 -33 callgsubr
          -106 callgsubr
        </CharString>
        <CharString name="ecircumflex">
          -52 callgsubr
          890 -60 callsubr
          145 -952 -33 callgsubr
          -106 callgsubr
        </CharString>
        <CharString name="edieresis">
          -78 -33 105 526 80 299 80 191 243 hstemhm
          86 211 11 61 callgsubr
          hintmask 00000000
          411 -88 callsubr
          227 86 callgsubr
          hintmask 11111110
          -106 callgsubr
        </CharString>
        <CharString name="edotaccent">
          -78 -33 105 526 80 299 80 191 243 hstem
          86 211 167 219 142 193 vstem
          575 1491 -75 callsubr
          405 86 callgsubr
          -106 callgsubr
        </CharString>
        <CharString name="egrave">
          -52 callgsubr
          681 -79 callgsubr
          529 -1163 -33 callgsubr
          -106 callgsubr
        </CharString>
        <CharString name="eight">
          -37 -33 82 1338 80 hstemhm
          121 172 -144 191 484 160 -136 201 hintmask 00000000
          hintmask 11101000
          584 68 callgsubr
          hintmask 11011000
          -207 -228 -114 -258 -119 75 -124 208 -124 hvcurveto
          hintmask 11100100
          -160 -100 -151 -137 -184 vvcurveto
          -258 253 -82 191 254 230 114 258 177 -160 155 -182 107 vhcurveto
          hintmask 11101000
          151 75 126 121 162 vvcurveto
          213 -193 118 -207 vhcurveto
          hintmask 11011000
          4 -80 rmoveto
          145 -2 94 -97 -3 -175 -2 -103 -66 -108 -122 -83 rrcurveto
          -166 58 -128 115 148 vvcurveto
          127 86 122 162 -2 vhcurveto
          hintmask 11100100
          -79 -697 rmoveto
          253 -106 86 -141 -141 vvcurveto
          -161 -103 -94 -176 2 vhcurveto
          -174 2 -112 119 10 174 6 101 60 137 150 108 rrcurveto
          endchar
        </CharString>
        <CharString name="ellipsis">
          422 252 232 -42 callsubr
          553 hmoveto
          -78 callgsubr
          553 hmoveto
          14 callgsubr
        </CharString>
        <CharString name="emacron">
          -78 -33 105 526 80 299 80 258 119 hstem
          86 211 528 193 vstem
          844 1319 -31 callsubr
          679 -1069 -33 callgsubr
          -106 callgsubr
        </CharString>
        <CharString name="emdash">
          246 584 143 hstem
          135 1157 vstem
          1292 584 rmoveto
          143 -1157 -143 vlineto
          endchar
        </CharString>
        <CharString name="endash">
          20 584 143 hstem
          135 932 vstem
          1067 584 rmoveto
          143 -932 -143 vlineto
          endchar
        </CharString>
        <CharString name="eogonek">
          -78 -520 110 377 105 526 80 299 80 hstem
          86 211 64 166 298 193 vstem
          796 11 rmoveto
          88 37 85 61 61 92 -50 41 rcurveline
          -97 -68 -150 68 callsubr
          -240 -100 206 314 2 hvcurveto
          721 12 rlineto
          305 -189 148 -227 -309 -207 -260 -287 -325 208 -209 275 -9 vhcurveto
          -119 -71 -89 -96 -111 -53 callsubr
          125 107 90 131 54 hvcurveto
          11 3 10 4 10 5 rrcurveto
          -493 667 rmoveto
          211 33 108 88 160 hhcurveto
          160 61 -154 -145 hvcurveto
          endchar
        </CharString>
        <CharString name="equal">
          24 383 127 258 127 hstem
          150 912 vstem
          1062 895 rmoveto
          -912 -127 912 hlineto
          -258 vmoveto
          -912 -127 912 hlineto
          endchar
        </CharString>
        <CharString name="estimated">
          -8 -26 70 463 71 396 67 hstem
          84 221 570 221 vstem
          967 275 rmoveto
          -153 -90 -126 -78 -162 hhcurveto
          -108 -96 39 75 -80 hvcurveto
          349 791 vlineto
          293 -10 -172 241 -325 hhcurveto
          -303 -202 -231 -303 -300 196 -233 309 190 145 91 169 111 hvcurveto
          -160 344 rmoveto
          -570 279 hlineto
          79 77 94 38 111 hhcurveto
          110 96 -38 -79 82 hvcurveto
          endchar
        </CharString>
        <CharString name="eth">
          -43 -33 82 883 84 439 -20 35 86 0 -20 hstemhm
          88 205 553 182 hintmask 00000000
          hintmask 11101110
          655 1569 rmoveto
          -59 55 -111 -130 -81 34 -87 23 -97 5 rlinecurve
          hintmask 11110110
          -9 -86 76 -6 69 -21 62 -28 rlinecurve
          -119 -141 74 -62 125 158 183 -120 108 -205 40 -164 rlinecurve
          -4 hlineto
          -65 104 -131 35 -103 -4 rrcurveto
          -274 -10 -164 -261 -290 vvcurveto
          -303 197 -185 245 348 152 266 324 -2 vhcurveto
          hintmask 11101110
          -2 381 -167 351 -294 166 rrcurveto
          14 -523 rmoveto
          207 -10 62 -263 -2 -190 rrcurveto
          -279 -2 -131 -141 -150 hhcurveto
          -154 -116 158 291 237 102 205 184 -8 hvcurveto
          endchar
        </CharString>
        <CharString name="exclam">
          -643 1467 -20 hstem
          151 240 vstem
          233 471 rmoveto
          76 hlineto
          80 845 rlineto
          73 6 -35 78 -88 hhcurveto
          -84 -41 -78 -73 6 hvcurveto
          119 -1084 rmoveto
          -64 -57 -60 -74 -73 55 -58 64 63 58 58 73 74 -51 60 -68 hvcurveto
          endchar
        </CharString>
        <CharString name="exclamdown">
          -690 1057 -20 hstem
          129 240 vstem
          248 792 rmoveto
          64 57 60 74 73 -55 58 -64 -63 -58 -58 -73 -74 51 -60 68 hvcurveto
          39 -239 rmoveto
          -76 hlineto
          -80 -845 rlineto
          -73 -6 35 -78 88 hhcurveto
          84 41 78 73 -6 hvcurveto
          endchar
        </CharString>
        <CharString name="f">
          -496 0 61 872 90 -83 82 459 73 hstemhm
          219 179 236 173 93 callsubr
          219 1024 rmoveto
          -168 hlineto
          hintmask 11011000
          -92 vlineto
          -19 callgsubr
          hintmask 10111100
          97 callgsubr
          215 vlineto
          117 34 127 127 29 39 -10 -26 20 vhcurveto
          -8 -17 -3 -17 -16 vvcurveto
          -32 23 -55 65 2 vhcurveto
          54 1 31 41 51 vvcurveto
          107 -131 44 -88 -270 -99 -186 -303 vhcurveto
          endchar
        </CharString>
        <CharString name="fi">
          88 0 61 873 90 -78 77 20 -20 455 77 hstemhm
          219 179 505 181 -176 0 callgsubr
          hintmask 10101101
          219 1024 rmoveto
          1 -74 -60 -1 -34 hhcurveto
          hintmask 11001101
          -92 vlineto
          168 4 rlineto
          -625 vlineto
          -147 4 5 -103 -125 hhcurveto
          -61 415 -10 callsubr
          rlineto
          9 47 0 35 55 vvcurveto
          hintmask 10101101
          726 vlineto
          518 11 rlineto
          -6 -55 -2 -35 -43 vvcurveto
          -508 vlineto
          -147 -58 callsubr
          vhcurveto
          -61 417 -10 callsubr
          rlineto
          9 47 0 37 55 vvcurveto
          hintmask 10011101
          827 -60 vlineto
          hintmask 10101101
          -8 -10 -57 -12 -93 hhcurveto
          -468 76 hlineto
          256 131 123 186 vhcurveto
          hintmask 10101110
          86 67 -22 -35 48 hvcurveto
          -8 -18 -3 -20 -17 vvcurveto
          -33 25 -57 68 2 vhcurveto
          57 1 31 42 54 vvcurveto
          107 -146 73 -184 vhcurveto
          hintmask 10101101
          -387 -148 -211 -317 hvcurveto
          endchar
        </CharString>
        <CharString name="five">
          -74 -33 80 750 92 400 145 hstemhm
          106 190 -135 95 555 213 -128 51 hintmask 00000000
          hintmask 11101010
          941 1296 rmoveto
          12 271 rlineto
          -57 hlineto
          -92 -49 -41 -154 vhcurveto
          -532 -656 hlineto
          62 -53 rlineto
          45 70 131 27 70 hhcurveto
          hintmask 11110100
          288 29 -250 -154 -174 -84 -163 -199 -9 hvcurveto
          -96 -4 -141 42 -17 102 rrcurveto
          13 23 9 29 27 70 callsubr
          152 -158 262 266 238 160 303 221 -135 238 -336 vhcurveto
          hintmask 11101010
          -120 -111 -31 -26 -66 hvcurveto
          450 vlineto
          endchar
        </CharString>
        <CharString name="fl">
          117 0 61 872 90 -83 82 446 86 -10 -20 hstemhm
          219 179 540 174 hintmask 00000000
          hintmask 10110110
          219 1024 rmoveto
          -168 hlineto
          hintmask 11010110
          -92 vlineto
          -19 callgsubr
          hintmask 10110110
          97 callgsubr
          156 vlineto
          184 55 106 186 76 137 -20 -53 88 vhcurveto
          -1086 -19 callsubr
          rlineto
          8 47 -2 37 55 vvcurveto
          hintmask 10101110
          1329 -59 vlineto
          hintmask 10110110
          -78 -139 -88 88 -230 hhcurveto
          -225 -152 -161 -308 hvcurveto
          endchar
        </CharString>
        <CharString name="florin">
          -486 -555 80 1414 87 -82 82 451 79 hstemhm
          -248 1061 93 callsubr
          68 1026 rmoveto
          hintmask 11011000
          -10 -88 178 2 -16 -141 -8 -151 -11 -147 rlinecurve
          -498 -39 10 -478 -193 hhcurveto
          -14 -27 2 13 -17 hvcurveto
          58 7 -33 48 -55 hhcurveto
          -59 -29 -40 -54 -66 69 -41 89 422 -2 541 497 39 hvcurveto
          hintmask 10111000
          13 160 5 158 9 141 294 4 rcurveline
          6 80 rlineto
          -294 hlineto
          20 256 39 184 127 11 23 2 25 -3 13 -8 rrcurveto
          -60 -10 35 -46 57 hhcurveto
          55 27 41 45 78 -87 30 -65 -274 -95 -232 -298 -44 hvcurveto
          endchar
        </CharString>
        <CharString name="foundry">
          1322 -395 53 345 52 -44 56 -42 46 741 48 163 -20 hstemhm
          85 187 139 102 -73 153 -90 159 83 148 168 8 112 130 27 147 64 60 32 130 59 144 68 166 72 94 hintmask 000000000000000000000000
          297 1023 rmoveto
          -157 -137 -57 -236 2 -234 rrcurveto
          -204 5 85 -209 217 hhcurveto
          97 47 68 58 20 hvcurveto
          -62 31 46 -42 69 hhcurveto
          18 18 15 12 7 hvcurveto
          hintmask 010001110000000000000000
          -23 -190 -2 -127 -120 -77 rrcurveto
          -4 19 -3 23 24 vvcurveto
          40 6 41 4 35 vhcurveto
          38 -38 -57 15 -47 hhcurveto
          -11 -39 -10 -43 -46 vvcurveto
          -103 26 -57 100 231 96 330 367 89 -5 90 -10 88 vhcurveto
          -38 40 -80 34 -50 -7 rrcurveto
          11 -74 24 -130 -132 vvcurveto
          -56 -4 -58 -12 -53 vhcurveto
          hintmask 100000001010000000000000
          -3 -10 -6 -23 -21 -5 rrcurveto
          -29 90 -8 99 103 vvcurveto
          47 1 47 3 48 vhcurveto
          -37 35 -69 12 -30 6 rrcurveto
          -17 -33 -10 -48 -72 vvcurveto
          -76 6 -78 20 -66 vhcurveto
          -21 -47 -47 -83 -74 -24 rrcurveto
          -83 59 -32 155 159 vvcurveto
          187 44 190 51 48 vhcurveto
          hintmask 010000100100000000000000
          20 -25 24 -89 -73 vvcurveto
          -13 -1 -14 -1 -13 vhcurveto
          -3 -8 0 -14 17 19 rrcurveto
          53 45 37 57 70 vvcurveto
          hintmask 000001010000000000000000
          179 -130 31 -86 18 vhcurveto
          hintmask 010001110000000000000000
          1775 -876 rmoveto
          -12 -22 -31 -65 -28 7 rrcurveto
          -20 68 -7 89 90 vvcurveto
          100 9 100 11 79 vhcurveto
          -22 22 -72 30 -31 -9 -13 -8 -15 -79 -5 -14 rrcurveto
          11 -30 -38 8 -33 hhcurveto
          -66 -70 -23 -97 -5 -103 rrcurveto
          -77 vlineto
          -18 -45 -32 -67 -56 -24 -27 18 -9 40 -10 40 rrcurveto
          78 24 42 109 98 vvcurveto
          85 -31 53 -52 26 vhcurveto
          -2 1 0 0 1 vvcurveto
          -11 20 -13 26 -13 26 134 21 45 176 43 87 20 24 rcurveline
          0 1 0 -1 1 vhcurveto
          -24 hlineto
          5 28 rlineto
          0 4 1 -5 vhcurveto
          -25 -9 rlineto
          8 -11 -13 1 -14 hhcurveto
          -36 -36 -24 -42 -12 hvcurveto
          -21 -21 -136 -22 -138 -26 rrcurveto
          -27 -169 15 4 -2 hvcurveto
          -8 -3 -8 -7 7 hvcurveto
          37 -34 94 4 27 -24 57 -68 69 -68 77 -16 6 -19 8 -21 10 -17 rrcurveto
          -9 1 -9 1 -8 -8 -8 -1 -9 hflex1
          -36 -58 -22 -124 -2 -105 rrcurveto
          -1 -10 0 -9 -10 vvcurveto
          -128 54 -113 139 vhcurveto
          63 7 42 44 24 39 rrcurveto
          hintmask 000110000001011110000000
          -52 14 40 -38 76 hhcurveto
          36 5 49 30 10 40 rrcurveto
          -40 17 43 -49 55 hhcurveto
          47 34 44 43 11 hvcurveto
          -55 34 52 -32 70 hhcurveto
          142 35 158 112 12 0 9 -1 10 hvcurveto
          -5 -5 2 -5 -10 hvcurveto
          -30 -122 -45 -76 -58 -44 rrcurveto
          -41 60 -20 80 99 vvcurveto
          107 50 57 198 164 vvcurveto
          174 -45 73 -169 28 vhcurveto
          -77 -139 -41 -212 -204 vvcurveto
          -94 8 -93 19 -83 vhcurveto
          203 643 rmoveto
          6 -28 2 -36 -40 vvcurveto
          -116 -24 -146 -48 -70 vhcurveto
          7 149 29 171 28 116 rrcurveto
          -826 -175 rmoveto
          22 hlineto
          10 -24 13 -23 13 -17 -13 4 -13 1 -15 3 rrcurveto
          -274 35 rmoveto
          -11 -22 -11 -44 -25 vvcurveto
          -13 -39 -22 -43 -32 -62 -6 76 -19 55 -22 38 -15 18 -21 12 -25 5 -23 5 -30 4 -39 2 62 -150 7 -256 11 -170 rrcurveto
          -2 7 6 -1 7 hhcurveto
          52 32 42 53 16 hvcurveto
          14 41 0 79 48 vvcurveto
          13 53 40 39 14 40 rrcurveto
          -63 9 30 -32 52 hhcurveto
          15 14 3 5 18 hvcurveto
          -5 27 -3 32 32 vvcurveto
          49 6 51 7 41 vhcurveto
          -19 37 -56 16 -60 6 rrcurveto
          hintmask 001000000000100101100000
          335 -131 rmoveto
          10 -20 15 -42 -42 vvcurveto
          -71 -20 -83 -44 -6 vhcurveto
          91 14 94 25 79 vhcurveto
          308 -15 rmoveto
          -2 -16 0 -25 -30 vvcurveto
          -63 5 -84 17 -72 vhcurveto
          -2 -40 -40 -41 -23 -19 rrcurveto
          -11 34 -5 41 42 vvcurveto
          111 30 124 31 38 vhcurveto
          endchar
        </CharString>
        <CharString name="four">
          -78 0 81 314 130 942 -20 hstem
          648 186 vstem
          834 516 rmoveto
          951 -69 vlineto
          -740 -971 rlineto
          -101 623 -69 vlineto
          -150 -25 -98 -139 -10 vhcurveto
          -16 -68 516 84 hlineto
          -158 -6 rlineto
          8 41 0 49 55 vvcurveto
          172 207 121 vlineto
          -397 659 rmoveto
          4 -653 hlineto
          -488 6 rlineto
          endchar
        </CharString>
        <CharString name="fraction">
          -213 1467 -20 hstem
          -37 1046 vstem
          1009 1402 29 callgsubr
          endchar
        </CharString>
        <CharString name="g">
          22 callgsubr
          49 callgsubr
          529 200 -28 131 hintmask 0000000000000000
          1057 1180 71 callgsubr
          hintmask 1110101001000000
          -3 callsubr
          hintmask 1111001001000000
          41 callsubr
          hintmask 1111000101000000
          -40 callgsubr
          hintmask 1111010001000000
          -44 callsubr
          hintmask 1110100110000000
          63 -40 39 -69 vhcurveto
          hintmask 1110101001000000
          -27 callsubr
          hintmask 1111001010000000
          -43 callgsubr
        </CharString>
        <CharString name="gbreve">
          22 callgsubr
          57 125 49 callgsubr
          529 200 -28 131 hintmask 0000000000000000
          hintmask 1111010100100000
          765 -32 callsubr
          hintmask 1110110100100000
          237 -305 71 callgsubr
          hintmask 1111010100100000
          -3 callsubr
          hintmask 1111010010100000
          41 callsubr
          hintmask 1111011000100000
          -40 callgsubr
          hintmask 1110110011000000
          -44 callsubr
          hintmask 1110110100100000
          63 -40 39 -69 vhcurveto
          hintmask 1111010101000000
          -27 callsubr
          hintmask 1111011000100000
          -43 callgsubr
        </CharString>
        <CharString name="gcommaaccent">
          22 callgsubr
          49 callgsubr
          186 147 196 200 -28 131 hintmask 0000000000000000
          hintmask 1111001010100000
          604 1226 rmoveto
          -23 115 -16 66 89 163 -54 40 rcurveline
          -97 -97 -64 -109 -104 vvcurveto
          -36 8 -36 16 -34 vhcurveto
          hintmask 1110101010100000
          594 -14 71 callgsubr
          hintmask 1111001010100000
          -3 callsubr
          hintmask 1111000110100000
          41 callsubr
          hintmask 1111010010100000
          -40 callgsubr
          hintmask 1110100111000000
          -44 callsubr
          hintmask 1110101010100000
          63 -40 39 -69 vhcurveto
          hintmask 1111001011000000
          -27 callsubr
          hintmask 1111010010100000
          -43 callgsubr
        </CharString>
        <CharString name="germandbls">
          207 -33 80 -47 61 872 90 -40 73 412 87 hstemhm
          219 179 239 162 -131 57 284 177 -20 172 hintmask 0000000000000000
          219 1024 rmoveto
          -168 -92 hlineto
          -19 callgsubr
          721 vlineto
          -2 156 10 123 45 92 49 98 82 59 123 3 rrcurveto
          hintmask 0110111001000000
          106 2 205 -19 -7 -395 rrcurveto
          -241 5 -131 -118 -184 vvcurveto
          hintmask 0101111010000000
          -336 529 31 -242 vvcurveto
          -109 -88 -57 -92 vhcurveto
          hintmask 1001111001000000
          -159 -92 119 170 -10 hvcurveto
          -63 hlineto
          12 -352 rlineto
          86 hlineto
          -6 49 rlineto
          -44 71 105 -22 60 hhcurveto
          207 141 96 207 hvcurveto
          hintmask 1001110101000000
          314 -539 -4 245 vvcurveto
          185 258 -23 123 -8 vhcurveto
          hintmask 0101111001000000
          3 24 2 20 1 16 rrcurveto
          448 18 -337 69 -155 hhcurveto
          hintmask 0101111010000000
          -326 -167 -226 -304 hvcurveto
          endchar
        </CharString>
        <CharString name="grave">
          -672 1188 379 hstem
          94 330 vstem
          367 -79 callgsubr
          endchar
        </CharString>
        <CharString name="greater">
          -80 174 940 hstem
          127 912 vstem
          127 301 33 callsubr
          endchar
        </CharString>
        <CharString name="greaterequal">
          -2 0 115 hstem
          156 913 vstem
          156 342 33 callsubr
          140 -682 rmoveto
          115 -912 -115 vlineto
          endchar
        </CharString>
        <CharString name="guillemotleft">
          -103 1058 -20 hstem
          65 907 vstem
          685 1058 rmoveto
          -65 87 callsubr
          63 65 -403 518 rlineto
          4 vlineto
          682 318 rmoveto
          -66 61 -401 -389 rlineto
          -6 vlineto
          406 -399 65 61 -248 332 rlineto
          4 vlineto
          endchar
        </CharString>
        <CharString name="guillemotright">
          -103 1058 -20 hstem
          113 907 vstem
          1020 568 rmoveto
          -555 555 -65 -65 399 -486 rlineto
          -4 vlineto
          -403 -518 63 -65 561 575 rlineto
          -436 2 rmoveto
          -401 389 -66 -61 244 -336 rlineto
          -4 vlineto
          -248 -332 65 -61 406 399 rlineto
          endchar
        </CharString>
        <CharString name="guilsinglleft">
          -404 -14 1138 hstem
          64 625 vstem
          685 1059 rmoveto
          -66 87 callsubr
          64 65 -404 518 rlineto
          4 vlineto
          endchar
        </CharString>
        <CharString name="guilsinglright">
          -404 -14 1138 hstem
          94 625 vstem
          719 569 rmoveto
          -555 555 -66 -65 400 -486 rlineto
          -4 vlineto
          -404 -518 64 -65 561 575 rlineto
          endchar
        </CharString>
        <CharString name="h">
          39 0 61 888 108 352 82 55 -20 hstem
          192 176 500 176 vstem
          368 1546 rmoveto
          -59 hlineto
          -28 -31 -45 -92 callgsubr
          0 -35 -43 vvcurveto
          -969 vlineto
          -147 2 -103 -125 21 callsubr
          2 37 55 vvcurveto
          605 vlineto
          61 72 105 53 100 2 rrcurveto
          162 2 72 -119 -235 vvcurveto
          -78 callsubr
          313 -4 -98 145 -238 hhcurveto
          93 callgsubr
          hvcurveto
          endchar
        </CharString>
        <CharString name="hungarumlaut">
          -391 1205 383 hstem
          147 596 vstem
          147 -49 callgsubr
          endchar
        </CharString>
        <CharString name="hungarumlaut.case">
          -391 1581 313 hstem
          126 604 vstem
          126 -51 callsubr
          endchar
        </CharString>
        <CharString name="hyphen">
          -187 588 139 hstem
          137 727 vstem
          864 592 67 callsubr
        </CharString>
        <CharString name="i">
          -18 callsubr
          51 callgsubr
          185 219 hintmask 00000000
          296 1491 -75 callsubr
          hintmask 11111000
          91 -447 -102 callsubr
        </CharString>
        <CharString name="iacute">
          -18 callsubr
          hstem
          211 176 vstem
          206 1235 -96 callsubr
          9 -467 -102 callsubr
        </CharString>
        <CharString name="icircumflex">
          -18 callsubr
          hstem
          212 176 vstem
          574 1260 rmoveto
          -275 333 rlineto
          -4 hlineto
          -295 -325 51 -60 234 199 rlineto
          4 hlineto
          229 -213 rlineto
          -130 -150 -102 callsubr
        </CharString>
        <CharString name="idieresis">
          -18 callsubr
          51 callgsubr
          38 203 84 203 hintmask 00000000
          141 -71 callsubr
          287 hmoveto
          -91 callgsubr
          hintmask 11111100
          -41 -447 -102 callsubr
        </CharString>
        <CharString name="igrave">
          -18 callsubr
          hstem
          211 176 vstem
          283 -79 callgsubr
          334 -361 -102 callsubr
        </CharString>
        <CharString name="imacron">
          -18 callsubr
          291 119 hstem
          211 176 vstem
          550 1319 -31 callsubr
          380 -267 -102 callsubr
        </CharString>
        <CharString name="infinity">
          604 276 156 -147 147 545 162 -131 141 hstemhm
          154 86 1313 88 hintmask 00000000
          hintmask 01011100
          1301 1149 rmoveto
          -164 -154 -127 -167 -82 hvcurveto
          hintmask 01101100
          185 -117 -112 99 -164 hhcurveto
          -217 -137 -183 -233 -205 99 -233 266 161 131 126 154 77 hvcurveto
          hintmask 10011100
          -226 146 120 -63 143 hhcurveto
          209 135 197 234 hvcurveto
          hintmask 01011100
          245 -94 197 -246 vhcurveto
          12 -141 rmoveto
          144 96 -121 -162 hvcurveto
          hintmask 10011100
          -160 -94 -133 -172 -158 -94 178 163 -86 vhcurveto
          hintmask 01011100
          178 118 123 57 123 hhcurveto
          hintmask 01101100
          -821 -31 rmoveto
          180 84 -186 -136 78 hvcurveto
          2 -4 2 -4 3 -4 rrcurveto
          -140 -87 -115 -71 -126 hhcurveto
          -158 -115 115 162 176 121 92 131 hvcurveto
          endchar
        </CharString>
        <CharString name="integral">
          -371 -555 81 1956 74 hstemhm
          -20 159 169 176 -164 176 -164 176 169 159 hintmask 00000000
          hintmask 11001000
          332 -228 rmoveto
          hintmask 11100100
          3 -164 -50 -77 -70 -5 -23 -2 -45 6 -17 25 rrcurveto
          7 16 2 12 15 vvcurveto
          29 -20 54 -60 -2 vhcurveto
          -50 -1 -29 -40 -47 vvcurveto
          -94 90 -52 102 245 96 199 269 -5 vhcurveto
          hintmask 11001000
          -24 1326 rlineto
          hintmask 11010010
          -3 189 51 48 74 6 23 2 42 -8 17 -25 rrcurveto
          -7 -16 -4 -17 -15 vvcurveto
          -29 21 -52 60 2 vhcurveto
          50 1 28 38 47 vvcurveto
          94 -103 50 -82 2 vhcurveto
          -252 6 -96 -211 5 -264 rrcurveto
          endchar
        </CharString>
        <CharString name="iogonek">
          -613 -531 110 421 61 846 82 55 -20 51 callgsubr
          72 166 -53 219 -193 0 callgsubr
          294 1248 rmoveto
          58 52 53 67 68 -47 55 -61 -59 -52 -55 -68 -67 50 -53 59 hvcurveto
          204 -1613 rmoveto
          -33 -39 -45 -23 -49 hhcurveto
          hintmask 11111010
          78 callgsubr
          84 vlineto
          hintmask 11110100
          -129 -6 -95 callsubr
          827 62 callgsubr
          -2 -35 55 callsubr
          -58 callsubr
          vhcurveto
          -61 273 vlineto
          hintmask 11110001
          1 callgsubr
          endchar
        </CharString>
        <CharString name="j">
          -67 callgsubr
        </CharString>
        <CharString name="k">
          30 callgsubr
          385 82 55 -20 hstemhm
          192 174 hintmask 00000000
          hintmask 11101110
          -56 callgsubr
          hintmask 11011110
          37 callgsubr
          hintmask 11101110
          61 -373 1 callsubr
          -250 -262 rlineto
          endchar
        </CharString>
        <CharString name="kcommaaccent">
          30 callgsubr
          385 82 55 -20 hstemhm
          192 174 83 147 hintmask 00000000
          hintmask 11101111
          -56 callgsubr
          hintmask 11011111
          37 callgsubr
          hintmask 11101111
          61 -373 1 callsubr
          -250 -262 rlineto
          -17 -725 -99 callsubr
        </CharString>
        <CharString name="l">
          -631 42 callgsubr
          vstem
          -12 callsubr
          endchar
        </CharString>
        <CharString name="lacute">
          -631 42 callgsubr
          vstem
          114 1648 -96 callsubr
          80 -378 rmoveto
          -59 hlineto
          -28 -31 -45 -92 callgsubr
          0 -35 -43 vvcurveto
          -969 -19 callsubr
          98 callgsubr
          -2 55 rlinecurve
          endchar
        </CharString>
        <CharString name="lcaron">
          -489 42 callgsubr
          205 145 vstem
          552 1588 -39 callgsubr
          -327 -15 rmoveto
          -59 hlineto
          -28 -31 -45 -92 callgsubr
          0 -35 -43 vvcurveto
          -969 -19 callsubr
          98 callgsubr
          -2 55 rlinecurve
          endchar
        </CharString>
        <CharString name="lcommaaccent">
          -631 58 callsubr
          hstemhm
          178 147 -135 0 callgsubr
          hintmask 11101000
          -12 callsubr
          hintmask 11110000
          -206 -364 -99 callsubr
        </CharString>
        <CharString name="less">
          -78 174 940 hstem
          70 912 vstem
          982 987 33 callgsubr
          endchar
        </CharString>
        <CharString name="lessequal">
          -2 0 115 hstem
          119 913 vstem
          1032 1024 33 callgsubr
          772 -569 rmoveto
          -912 -115 912 hlineto
          endchar
        </CharString>
        <CharString name="logicalnot">
          24 578 127 hstem
          953 108 vstem
          1062 705 rmoveto
          -912 -127 800 hlineto
          7 -256 rlineto
          105 hlineto
          endchar
        </CharString>
        <CharString name="lozenge">
          -191 1556 -20 hstem
          74 848 vstem
          922 788 rmoveto
          -387 768 rlineto
          -53 hlineto
          -408 -782 rlineto
          -54 vlineto
          398 -754 rlineto
          53 hlineto
          397 769 rlineto
          -420 629 rmoveto
          5 hlineto
          299 -605 -295 -590 rlineto
          -4 hlineto
          -304 592 rlineto
          endchar
        </CharString>
        <CharString name="lslash">
          -588 58 callsubr
          hstem
          230 177 vstem
          566 836 rmoveto
          116 vlineto
          -159 -114 rlineto
          708 -60 vlineto
          -28 -31 -45 -92 callgsubr
          0 -35 -43 vvcurveto
          -569 vlineto
          -176 -127 rlineto
          -121 vlineto
          176 128 rlineto
          -280 -19 callsubr
          rlineto
          98 callgsubr
          55 vvcurveto
          503 vlineto
          endchar
        </CharString>
        <CharString name="m">
          643 0 61 846 82 -40 108 -104 104 -13 -20 hstemhm
          211 176 453 174 455 0 callgsubr
          316 1044 rmoveto
          -28 -31 18 callsubr
          -467 -100 callsubr
          527 vlineto
          hintmask 11001111
          41 -1 37 32 vvcurveto
          57 58 85 40 87 1 161 2 66 -123 -2 -235 rrcurveto
          -286 -68 callgsubr
          482 vlineto
          4 53 -7 50 -14 46 rrcurveto
          hintmask 10010111
          62 57 89 43 87 1 rrcurveto
          162 2 72 -119 -235 vvcurveto
          -78 callsubr
          323 8 -111 135 -237 hhcurveto
          -118 -131 -61 -77 -91 hvcurveto
          84 -52 -91 54 -138 hhcurveto
          -106 -113 -52 -70 -82 hvcurveto
          hintmask 10100111
          -2 49 -3 33 -3 27 rrcurveto
          endchar
        </CharString>
        <CharString name="macron">
          -461 1315 119 hstem
          92 543 vstem
          635 1319 -31 callsubr
          endchar
        </CharString>
        <CharString name="minus">
          24 522 133 hstem
          150 912 vstem
          1062 655 rmoveto
          -912 -133 912 hlineto
          endchar
        </CharString>
        <CharString name="mu">
          -64 callgsubr
        </CharString>
        <CharString name="multiply">
          -58 182 912 hstem
          111 912 vstem
          1023 1006 rmoveto
          -82 88 -374 -367 -357 356 -95 -92 359 -356 -363 -356 88 -89 362 359 370 -367 92 92 -369 367 rlineto
          endchar
        </CharString>
        <CharString name="n">
          46 callgsubr
          318 1044 rmoveto
          -28 -31 -31 -27 -180 hhcurveto
          -86 vlineto
          -90 callsubr
          hintmask 11011100
          60 74 102 57 99 2 162 2 72 -123 2 -235 rrcurveto
          -78 callsubr
          313 -104 145 -238 -118 -128 -60 -77 -87 vhcurveto
          hintmask 10101100
          38 callsubr
        </CharString>
        <CharString name="nacute">
          40 callgsubr
          488 1235 -96 callsubr
          hintmask 11011100
          -342 -467 rmoveto
          -28 -31 -31 -27 -180 hhcurveto
          -86 vlineto
          -90 callsubr
          hintmask 10101100
          60 74 102 57 99 2 162 2 72 -123 2 -235 rrcurveto
          -78 callsubr
          313 -104 145 -238 -118 -128 -60 -77 -87 vhcurveto
          hintmask 10011100
          38 callsubr
        </CharString>
        <CharString name="ncaron">
          40 callgsubr
          970 -75 callgsubr
          hintmask 11011100
          -326 -130 rmoveto
          -28 -31 -31 -27 -180 hhcurveto
          -86 vlineto
          -90 callsubr
          hintmask 10101100
          60 74 102 57 99 2 162 2 72 -123 2 -235 rrcurveto
          -78 callsubr
          313 -104 145 -238 -118 -128 -60 -77 -87 vhcurveto
          hintmask 10011100
          38 callsubr
        </CharString>
        <CharString name="ncommaaccent">
          3 callsubr
          94 callsubr
          134 147 217 0 callgsubr
          318 1044 rmoveto
          -28 -31 -31 -27 -180 hhcurveto
          -86 vlineto
          -90 callsubr
          hintmask 11011110
          60 74 102 57 99 2 162 2 72 -123 2 -235 rrcurveto
          -78 callsubr
          313 -104 145 -238 -118 -128 -60 -77 -87 vhcurveto
          hintmask 10101110
          -3 56 -3 38 -3 30 rrcurveto
          126 -1191 -99 callsubr
        </CharString>
        <CharString name="nine">
          -4 -33 78 492 92 759 79 hstemhm
          98 203 -147 181 535 193 hintmask 00000000
          hintmask 11110100
          582 68 callgsubr
          -295 -189 -208 -266 -206 101 -250 327 161 115 80 91 68 hvcurveto
          -234 3 -46 -429 -311 hhcurveto
          hintmask 11101100
          -130 -60 51 59 -18 hvcurveto
          18 28 9 29 27 vvcurveto
          35 -26 56 -66 -3 vhcurveto
          -58 -3 -31 -46 -58 vvcurveto
          -108 104 -147 268 2 vhcurveto
          467 3 70 466 299 vvcurveto
          hintmask 11110100
          414 -96 318 -385 vhcurveto
          -15 -79 rmoveto
          221 67 -278 -256 13 hvcurveto
          -119 -38 -132 -106 -129 hhcurveto
          -229 -39 256 153 181 90 169 176 hvcurveto
          endchar
        </CharString>
        <CharString name="noBreak">
          -649 endchar
        </CharString>
        <CharString name="nonmarkingreturn">
          -649 endchar
        </CharString>
        <CharString name="notequal">
          -43 368 122 262 124 hstem
          115 912 vstem
          949 1065 rmoveto
          -94 65 -169 -254 rlineto
          -571 -124 490 hlineto
          -174 -260 rlineto
          -316 -125 233 hlineto
          -147 -220 90 -65 192 286 rlineto
          544 122 -462 hlineto
          176 264 rlineto
          286 121 -205 hlineto
          endchar
        </CharString>
        <CharString name="ntilde">
          3 callsubr
          229 127 -16 125 -41 -20 94 callsubr
          498 176 hintmask 0000000000000000
          370 37 callsubr
          hintmask 1010010110000000
          -47 callsubr
          hintmask 1010101110000000
          72 callgsubr
          9 -269 rmoveto
          -28 -31 -31 -27 -180 hhcurveto
          -86 vlineto
          -90 callsubr
          hintmask 1101010110000000
          60 74 102 57 99 2 162 2 72 -123 2 -235 rrcurveto
          -78 callsubr
          313 -104 145 -238 -118 -128 -60 -77 -87 vhcurveto
          hintmask 1010101110000000
          38 callsubr
        </CharString>
        <CharString name="numbersign">
          512 365 122 474 122 384 -20 hstem
          68 1563 vstem
          1288 1083 rmoveto
          91 callgsubr
          -435 hlineto
          91 callgsubr
          -341 hlineto
          -33 -122 rlineto
          345 hlineto
          -112 -474 rlineto
          -335 hlineto
          -33 -122 rlineto
          340 hlineto
          -93 -398 rlineto
          147 hlineto
          90 398 rlineto
          429 hlineto
          -93 -398 rlineto
          148 hlineto
          90 398 rlineto
          337 hlineto
          32 122 rlineto
          -342 hlineto
          107 474 rlineto
          340 hlineto
          31 120 rlineto
          2 vlineto
          -944 -122 rmoveto
          434 hlineto
          -112 -474 rlineto
          -430 hlineto
          endchar
        </CharString>
        <CharString name="o">
          -39 callsubr
          598 1057 -104 callsubr
        </CharString>
        <CharString name="oacute">
          -39 callsubr
          434 1235 -96 callsubr
          -8 -454 -104 callsubr
        </CharString>
        <CharString name="ocircumflex">
          -39 callsubr
          916 -60 callsubr
          -263 -137 -104 callsubr
        </CharString>
        <CharString name="odieresis">
          10 -33 82 930 78 191 243 hstemhm
          84 209 24 61 callgsubr
          43 209 hintmask 00000000
          420 -88 callsubr
          -164 -434 rmoveto
          hintmask 11111110
          -291 -223 -246 -324 -303 227 -217 287 291 225 252 318 hvcurveto
          hintmask 11010010
          -15 callgsubr
          vhcurveto
          hintmask 11111110
          -78 vmoveto
          219 88 -256 -246 -217 -76 -211 -215 -217 -104 244 254 223 90 209 215 hvcurveto
          endchar
        </CharString>
        <CharString name="oe">
          620 -33 82 -82 105 524 80 303 78 hstemhm
          84 209 555 190 475 193 hintmask 00000000
          hintmask 10111110
          941 840 rmoveto
          139 -86 -124 78 -164 hhcurveto
          -291 -192 -246 -324 -303 197 -217 286 156 123 82 127 80 hvcurveto
          2 hlineto
          hintmask 01111110
          -137 75 143 -72 161 hhcurveto
          139 170 64 170 112 hvcurveto
          -51 41 rlineto
          -97 -67 -127 68 callsubr
          -232 -86 204 314 hvcurveto
          668 12 rlineto
          305 -162 150 -227 vhcurveto
          hintmask 10111110
          -165 -133 -95 -122 -76 hvcurveto
          -374 139 rmoveto
          191 78 -215 -256 10 hvcurveto
          -215 -42 -244 -225 -209 -79 244 254 223 71 209 205 vhcurveto
          475 -303 rmoveto
          30 197 86 107 147 -3 155 -3 48 -142 3 -156 rrcurveto
          endchar
        </CharString>
        <CharString name="ogonek">
          -543 -531 110 hstem
          92 166 vstem
          528 54 rmoveto
          -209 -60 -227 -139 -177 -53 callsubr
          135 125 94 145 52 hvcurveto
          endchar
        </CharString>
        <CharString name="ograve">
          -39 callsubr
          707 -79 callgsubr
          121 -348 -104 callsubr
        </CharString>
        <CharString name="ohungarumlaut">
          -39 callsubr
          376 -49 callgsubr
          -238 -471 -104 callsubr
        </CharString>
        <CharString name="omacron">
          10 -33 82 930 78 258 119 hstem
          84 209 612 209 vstem
          870 1319 -31 callsubr
          271 -254 -104 callsubr
        </CharString>
        <CharString name="one">
          -443 0 86 1381 -20 hstem
          328 178 vstem
          506 68 callgsubr
          -69 hlineto
          -400 -298 41 -60 246 159 rlineto
          4 -967 hlineto
          2 -141 -37 -86 -141 -6 rrcurveto
          -68 522 90 vlineto
          -172 -8 6 39 0 49 -2 53 rlinecurve
          endchar
        </CharString>
        <CharString name="onehalf">
          420 2 113 501 68 84 74 625 -20 hstemhm
          256 115 634 95 callsubr
          hintmask 11111001
          -40 callsubr
          934 640 29 callgsubr
          1179 35 35 callsubr
          hintmask 11111110
          -29 callsubr
        </CharString>
        <CharString name="onequarter">
          362 0 68 147 79 322 68 783 -20 hstem
          256 115 862 115 vstem
          -40 callsubr
          934 640 29 callgsubr
          1012 322 -51 callgsubr
        </CharString>
        <CharString name="onesuperior">
          -608 616 68 783 -20 hstem
          256 115 vstem
          -40 callsubr
          endchar
        </CharString>
        <CharString name="ordfeminine">
          -350 779 88 -84 88 231 64 232 69 hstemhm
          111 145 -112 132 232 129 hintmask 00000000
          hintmask 10111010
          512 1166 rmoveto
          -178 2 -223 -73 -164 vvcurveto
          -88 68 -64 133 85 66 36 55 50 vhcurveto
          hintmask 01110110
          -43 10 27 -44 73 hhcurveto
          49 59 35 31 23 hvcurveto
          -23 39 rlineto
          -11 -14 -12 -6 -10 hhcurveto
          -37 -21 33 90 hvcurveto
          228 vlineto
          170 4 -84 75 -147 hhcurveto
          -154 -112 -95 -94 -39 24 -32 41 -1 hvcurveto
          50 -1 17 40 25 vvcurveto
          20 -5 16 -12 14 vhcurveto
          17 49 60 31 53 -2 rrcurveto
          115 -4 8 -76 -82 vvcurveto
          hintmask 10111010
          -1 -134 rmoveto
          -1 -65 -2 -65 -31 vvcurveto
          -53 -52 -63 -31 -64 9 -23 4 -45 19 -4 55 rrcurveto
          108 -9 138 49 126 hhcurveto
          endchar
        </CharString>
        <CharString name="ordmasculine">
          -330 779 72 547 69 hstem
          98 149 371 143 vstem
          434 6 callsubr
          -9 -69 12 callgsubr
          endchar
        </CharString>
        <CharString name="oslash">
          -39 callsubr
          1051 1094 rmoveto
          -97 63 -103 -164 rlineto
          41 -75 -86 23 -92 hhcurveto
          -291 -223 -246 -324 -173 74 -144 116 -93 hvcurveto
          -110 -175 76 -56 116 178 rlineto
          -37 72 82 -20 88 hhcurveto
          291 225 252 318 159 -66 138 -105 94 hvcurveto
          -580 -709 rmoveto
          -47 91 -23 117 120 vvcurveto
          223 90 209 215 79 62 -34 -54 47 vhcurveto
          64 -106 rmoveto
          38 -89 17 -111 -108 vvcurveto
          -217 -76 -211 -215 -77 -63 31 51 -49 vhcurveto
          endchar
        </CharString>
        <CharString name="otilde">
          10 -33 82 930 78 196 127 -16 125 -41 -20 hstemhm
          84 209 612 209 hintmask 00000000
          316 37 callsubr
          hintmask 11010110
          -47 callsubr
          hintmask 11101110
          72 callgsubr
          343 -256 -104 callsubr
        </CharString>
        <CharString name="p">
          -82 callsubr
        </CharString>
        <CharString name="paragraph">
          -162 1347 87 hstem
          357 139 184 143 vstem
          823 -522 rmoveto
          1956 -464 vlineto
          -146 -145 -102 -196 -210 153 -79 136 -10 hvcurveto
          -1359 139 1866 vlineto
          184 6 rlineto
          -1872 vlineto
          endchar
        </CharString>
        <CharString name="parenleft">
          -563 1556 -20 hstem
          73 207 vstem
          589 -508 rmoveto
          -211 280 -98 332 385 vvcurveto
          385 98 354 211 281 vhcurveto
          -51 47 rlineto
          -203 -186 -262 -426 -455 vvcurveto
          -455 262 -403 203 -186 vhcurveto
          endchar
        </CharString>
        <CharString name="parenright">
          -563 1556 -20 hstem
          346 207 vstem
          37 1509 rmoveto
          211 -280 98 -332 -385 vvcurveto
          -385 -98 -354 -211 -281 vhcurveto
          51 -47 rlineto
          203 186 262 426 455 vvcurveto
          455 -262 403 -203 186 vhcurveto
          endchar
        </CharString>
        <CharString name="partialdiff">
          -146 -33 78 903 82 454 72 hstemhm
          76 176 512 166 hintmask 00000000
          258 1484 rmoveto
          386 11 92 -274 21 -278 -54 56 -73 28 -75 3 rrcurveto
          -252 8 -227 -245 -375 vvcurveto
          -297 164 -154 184 266 240 193 553 vhcurveto
          hintmask 11111000
          483 -172 398 -500 -41 vhcurveto
          297 -605 rmoveto
          91 69 -37 -89 48 hvcurveto
          -34 1 -35 -32 vvcurveto
          -252 -67 -424 -236 -119 -90 141 254 326 160 182 143 vhcurveto
          endchar
        </CharString>
        <CharString name="percent">
          594 91 callsubr
          74 176 395 176 140 178 395 0 callgsubr
          hintmask 10111111
          445 74 callgsubr
          66 callgsubr
          9 callsubr
          74 callsubr
          104 43 187 154 hvcurveto
          hintmask 11011111
          893 -647 rmoveto
          -34 callgsubr
          -7 -80 rmoveto
          162 39 -204 -132 23 callgsubr
          161 149 hvcurveto
          endchar
        </CharString>
        <CharString name="period">
          -684 -33 265 hstem
          131 239 vstem
          252 232 rmoveto
          14 callgsubr
        </CharString>
        <CharString name="periodcentered">
          -676 540 265 hstem
          137 239 vstem
          258 805 rmoveto
          14 callgsubr
        </CharString>
        <CharString name="perthousand">
          1456 91 callsubr
          80 176 395 176 140 178 395 176 111 178 395 176 hintmask 0000000000000000
          hintmask 1101111111000000
          451 74 callgsubr
          hintmask 0010110000000000
          66 callgsubr
          vhcurveto
          hintmask 1101111111000000
          9 callsubr
          hvcurveto
          hintmask 0010110000000000
          74 callsubr
          vhcurveto
          hintmask 1101111111000000
          104 43 187 154 vhcurveto
          893 -647 rmoveto
          -34 callgsubr
          860 hmoveto
          -34 callgsubr
          -7 -80 rmoveto
          162 2 39 -206 -132 vvcurveto
          23 callgsubr
          159 149 2 vhcurveto
          -860 hmoveto
          162 39 -204 -132 23 callgsubr
          161 149 hvcurveto
          endchar
        </CharString>
        <CharString name="pi">
          -2 -33 110 -110 178 728 137 -103 142 -139 139 8 -20 hstemhm
          335 84 348 179 hintmask 00000000
          1083 1057 rmoveto
          -38 -76 -53 -9 -70 hhcurveto
          hintmask 10100111
          -115 -204 39 -211 hhcurveto
          -129 -88 -69 -70 -58 hvcurveto
          33 -45 71 34 47 10 105 1 rlinecurve
          -218 7 -537 -130 -41 vhcurveto
          21 -22 -28 10 -26 hhcurveto
          -32 -53 -22 -65 -61 46 -30 52 92 86 63 117 41 hvcurveto
          hintmask 01001011
          54 157 -3 381 222 vvcurveto
          hintmask 10010011
          111 -7 109 -20 132 -7 rrcurveto
          -164 -4 -512 -17 vvcurveto
          -76 23 -137 145 78 80 55 47 35 vhcurveto
          -25 33 rlineto
          -17 -24 -27 -8 -18 hhcurveto
          -58 -30 49 142 hvcurveto
          617 vlineto
          84 28 58 62 30 39 rrcurveto
          endchar
        </CharString>
        <CharString name="plus">
          -133 590 117 hstem
          461 132 vstem
          593 707 rmoveto
          405 -132 -403 -389 -121 389 -420 132 422 391 117 vlineto
          endchar
        </CharString>
        <CharString name="plusminus">
          -8 6 115 495 117 324 -20 hstem
          522 132 vstem
          654 733 rmoveto
          324 -132 -322 -389 -121 389 -338 132 340 391 117 vlineto
          -727 vmoveto
          115 -912 -115 vlineto
          endchar
        </CharString>
        <CharString name="product">
          440 -522 86 1784 85 -46 callsubr
          763 178 -17 callgsubr
          1515 -14 callgsubr
          -1402 -91 hlineto
          -49 callsubr
          -5 -46 callgsubr
          -1407 35 callgsubr
          1622 vlineto
          763 9 rlineto
          -1556 vlineto
          -145 12 -93 callsubr
          461 90 vlineto
          -147 -65 callsubr
          1392 vlineto
          hintmask 10111000
          -30 callgsubr
          endchar
        </CharString>
        <CharString name="q">
          -8 -522 61 428 101 914 75 -13 -20 hstemhm
          86 211 555 0 callgsubr
          hintmask 11101100
          852 -211 rmoveto
          -100 callgsubr
          hintmask 11011100
          1349 -59 vlineto
          hintmask 11101100
          -81 -73 -117 94 -167 hhcurveto
          -291 -235 -226 -342 -317 203 -205 256 130 105 48 81 72 hvcurveto
          102 vmoveto
          -78 -56 -88 -52 -90 hhcurveto
          -202 -119 208 263 264 120 179 200 175 60 -82 -165 hvcurveto
          endchar
        </CharString>
        <CharString name="question">
          -217 -33 242 176 94 908 80 hstemhm
          68 181 49 139 -72 220 116 193 hintmask 00000000
          hintmask 01111010
          599 494 rmoveto
          -11 -25 -32 -4 -19 hhcurveto
          -65 -21 35 33 137 440 148 17 277 hvcurveto
          172 10 -106 186 -316 hhcurveto
          -258 -156 -166 -120 -58 28 -46 59 -3 hvcurveto
          67 -3 27 56 35 vvcurveto
          29 -9 27 -14 24 vhcurveto
          64 10 97 81 118 hhcurveto
          193 61 -124 -148 -4 hvcurveto
          -10 -313 -393 -95 -185 vvcurveto
          -100 84 -37 80 51 67 12 25 43 vhcurveto
          hintmask 11110110
          -147 -213 rmoveto
          -57 -54 -55 -66 -76 54 -45 57 63 46 54 67 66 -48 55 -61 hvcurveto
          endchar
        </CharString>
        <CharString name="questiondown">
          -232 -443 80 908 94 418 -20 hstemhm
          69 193 116 220 116 181 hintmask 00000000
          487 815 rmoveto
          57 54 55 66 76 -54 45 -57 -63 -46 -54 -67 -66 48 -55 61 hvcurveto
          -123 -285 rmoveto
          hintmask 11111100
          11 25 32 4 19 hhcurveto
          65 21 -35 -33 -137 -440 -148 -17 -277 hvcurveto
          -172 -10 106 -186 316 hhcurveto
          258 156 166 120 58 -28 46 -59 3 hvcurveto
          -67 3 -27 -56 -35 vvcurveto
          -29 9 -27 14 -24 vhcurveto
          -64 -10 -97 -81 -118 hhcurveto
          -193 -61 124 148 4 hvcurveto
          10 313 393 95 185 vvcurveto
          100 -84 37 -80 -51 -67 -12 -25 -43 vhcurveto
          endchar
        </CharString>
        <CharString name="quotedbl">
          -479 1467 -20 hstem
          135 142 150 142 vstem
          269 1006 rmoveto
          90 callgsubr
          418 hmoveto
          90 callgsubr
          endchar
        </CharString>
        <CharString name="quotedblbase">
          -309 -11 218 hstem
          282 111 249 111 vstem
          241 -366 rmoveto
          -91 callsubr
          415 -41 rmoveto
          -91 callsubr
          endchar
        </CharString>
        <CharString name="quotedblleft">
          -369 982 218 355 -20 hstem
          94 111 250 111 vstem
          246 1555 -20 callgsubr
          306 41 -20 callgsubr
          endchar
        </CharString>
        <CharString name="quotedblright">
          -473 1025 -20 334 218 hstem
          198 111 249 111 vstem
          157 984 rmoveto
          -91 callsubr
          415 -41 rmoveto
          -91 callsubr
          endchar
        </CharString>
        <CharString name="quoteleft">
          -729 982 218 355 -20 hstem
          94 111 vstem
          246 1555 -20 callgsubr
          endchar
        </CharString>
        <CharString name="quoteright">
          -832 1025 -20 334 218 hstem
          198 111 vstem
          157 984 rmoveto
          -91 callsubr
          endchar
        </CharString>
        <CharString name="quotesinglbase">
          -670 -11 218 hstem
          282 111 vstem
          241 -366 rmoveto
          -91 callsubr
          endchar
        </CharString>
        <CharString name="quotesingle">
          -762 1467 -20 hstem
          136 153 vstem
          281 1006 rmoveto
          18 461 rlineto
          -172 hlineto
          19 -461 rlineto
          endchar
        </CharString>
        <CharString name="r">
          32 callsubr
          316 1044 -86 callgsubr
        </CharString>
        <CharString name="racute">
          32 callsubr
          358 1235 -96 callsubr
          -214 -467 -86 callgsubr
        </CharString>
        <CharString name="radical">
          538 949 75 660 80 hstem
          4 1769 vstem
          1773 1681 rmoveto
          84 -624 vlineto
          -442 -1512 -302 771 rlineto
          -401 -72 hlineto
          246 -6 7 -33 18 -49 34 -84 rlinecurve
          320 -786 rlineto
          102 hlineto
          500 1694 rlineto
          endchar
        </CharString>
        <CharString name="rcaron">
          32 callsubr
          840 -75 callgsubr
          -198 -130 -86 callgsubr
        </CharString>
        <CharString name="rcommaaccent">
          -8 callgsubr
          -46 147 188 195 -17 callgsubr
          316 1044 rmoveto
          -28 -31 -31 -27 -117 hhcurveto
          -63 -84 hlineto
          145 6 -47 callgsubr
          -42 -43 vvcurveto
          -468 vlineto
          -147 -58 callsubr
          vhcurveto
          -61 420 -10 callsubr
          -95 callsubr
          503 vlineto
          hintmask 10101010
          70 135 115 94 104 -4 -8 -60 40 -54 61 -1 rrcurveto
          73 -2 29 64 36 vvcurveto
          90 -68 39 -76 -147 -135 -114 -101 -62 vhcurveto
          hintmask 11011000
          -2 99 -4 60 -4 43 rrcurveto
          hintmask 11010100
          -50 -1191 -99 callsubr
        </CharString>
        <CharString name="registered">
          610 -102 104 268 70 -61 79 303 84 395 89 207 100 hstemhm
          90 140 383 151 348 160 303 135 hintmask 0000000000000000
          hintmask 1011111111000000
          901 1536 rmoveto
          -473 -338 -369 -454 -475 320 -340 487 455 358 362 453 454 -329 369 -480 hvcurveto
          -4 -100 rmoveto
          408 270 -342 -381 -379 -262 -332 -410 -421 -252 332 379 381 264 342 403 hvcurveto
          -383 -301 rmoveto
          103 10 rlineto
          -4 -27 0 -35 -36 vvcurveto
          -535 vlineto
          -96 2 -66 -101 -2 vhcurveto
          -69 348 vlineto
          -4 81 -98 -4 rlineto
          2 25 2 33 47 vvcurveto
          201 vlineto
          23 -3 62 -2 27 4 41 -60 55 -84 58 -83 rrcurveto
          hintmask 1101111111000000
          66 -94 47 -59 41 -11 rrcurveto
          178 70 hlineto
          -59 -39 25 231 -154 hvcurveto
          -34 49 -30 24 -23 11 rrcurveto
          2 vlineto
          191 53 58 132 91 vvcurveto
          142 -115 123 -264 6 vhcurveto
          -104 2 -174 -6 -101 -4 rrcurveto
          250 -473 rmoveto
          221 vlineto
          98 -4 63 100 11 vhcurveto
          125 10 127 -66 -133 vvcurveto
          -151 -149 -51 -96 -5 vhcurveto
          -35 -2 -33 2 -33 3 rrcurveto
          endchar
        </CharString>
        <CharString name="ring">
          -537 1167 64 264 64 hstem
          125 88 callgsubr
          vstem
          324 1559 -58 callgsubr
          endchar
        </CharString>
        <CharString name="s">
          -72 callgsubr
        </CharString>
        <CharString name="sacute">
          -33 callsubr
          hintmask 11010010
          303 1235 -96 callsubr
          hintmask 11001100
          -369 -1173 -60 callgsubr
        </CharString>
        <CharString name="scaron">
          -33 callsubr
          hintmask 11010010
          785 -75 callgsubr
          hintmask 11001100
          -353 -836 -60 callgsubr
        </CharString>
        <CharString name="scedilla">
          -240 -208 92 86 77 933 77 -10 -20 hstemhm
          106 161 -155 88 427 168 -98 167 -157 83 hintmask 0000000000000000
          hintmask 1110100010000000
          560 -30 rmoveto
          hintmask 1110100100000000
          157 16 148 96 186 -23 callgsubr
          hintmask 1110100010000000
          -7 callgsubr
          hintmask 1101100010000000
          359 -86 vlineto
          hintmask 1110100010000000
          -36 callgsubr
          hintmask 1110100100000000
          -28 callgsubr
          hintmask 1110011000000000
          4 callgsubr
          -63 hlineto
          12 -352 rlineto
          86 hlineto
          -7 71 57 -40 85 -36 109 -11 rlinecurve
          -47 -174 69 -34 rlineto
          -83 callgsubr
          endchar
        </CharString>
        <CharString name="scommaaccent">
          -240 -33 80 933 77 -10 -20 hstemhm
          106 161 -155 88 287 147 63 167 -157 83 hintmask 00000000
          106 338 -53 callgsubr
          hintmask 11001110
          -23 callgsubr
          hintmask 11010110
          -7 callgsubr
          hintmask 11010101
          359 -86 vlineto
          hintmask 10110101
          -36 callgsubr
          hintmask 11010101
          -28 callgsubr
          hintmask 11010110
          4 callgsubr
          301 -485 -99 callsubr
        </CharString>
        <CharString name="section">
          -96 -467 79 1866 78 hstemhm
          78 158 -66 174 -171 141 439 171 -145 141 -59 155 hintmask 00000000
          558 1556 rmoveto
          -291 -99 -223 -141 5 hvcurveto
          3 -96 31 -74 52 -60 rrcurveto
          hintmask 11001100
          -114 -95 -67 -130 -115 -452 701 -33 -309 vvcurveto
          -90 -64 -126 -188 vhcurveto
          hintmask 11100010
          -107 -93 65 68 -6 hvcurveto
          15 18 8 31 14 vvcurveto
          44 -22 50 -65 -2 vhcurveto
          -54 -1 -33 -53 -51 vvcurveto
          -123 125 -139 240 291 94 227 131 96 -34 72 -51 60 vhcurveto
          hintmask 11010010
          114 95 67 131 116 452 -702 33 309 vvcurveto
          90 63 133 189 vhcurveto
          hintmask 11001001
          104 81 -50 -68 27 hvcurveto
          -19 -17 -6 -36 -16 vvcurveto
          -32 21 -54 65 2 vhcurveto
          54 1 31 43 51 vvcurveto
          hintmask 11100100
          123 -147 131 -219 vhcurveto
          hintmask 11001100
          -252 -640 rmoveto
          200 -174 355 -65 -292 vvcurveto
          -76 -24 -84 -47 -60 vhcurveto
          -199 175 -355 64 294 vvcurveto
          74 23 83 47 61 vhcurveto
          endchar
        </CharString>
        <CharString name="semicolon">
          -649 -11 218 850 -20 hstemhm
          143 239 hintmask 00000000
          264 1057 -42 callsubr
          -15 -1423 rmoveto
          hintmask 11100000
          -91 callsubr
          endchar
        </CharString>
        <CharString name="seven">
          -244 1290 144 hstem
          45 49 vstem
          903 -14 callgsubr
          -858 -304 49 hlineto
          112 64 47 110 1 vhcurveto
          541 hlineto
          -135 -280 -131 -343 -76 -192 rrcurveto
          -53 -135 -86 -194 -88 vvcurveto
          -49 18 -38 54 -4 vhcurveto
          65 -4 30 63 17 67 119 482 74 312 198 407 rrcurveto
          endchar
        </CharString>
        <CharString name="six">
          -4 -33 80 756 92 495 77 hstemhm
          115 192 546 181 -157 207 hintmask 00000000
          672 68 callgsubr
          -467 -90 -549 -244 -434 125 -273 364 hvcurveto
          hintmask 11111000
          275 205 213 256 207 -105 252 -328 -160 -116 -82 -91 -68 hvcurveto
          195 6 50 473 313 hhcurveto
          hintmask 11110100
          113 75 -70 -49 15 hvcurveto
          -17 -27 -9 -32 -27 vvcurveto
          -35 24 -53 70 3 vhcurveto
          59 3 28 46 58 vvcurveto
          101 -118 159 -244 vhcurveto
          hintmask 11111000
          -64 -664 rmoveto
          230 39 -258 -154 -180 -76 -164 -193 -215 -70 271 259 -14 hvcurveto
          118 39 132 108 128 hhcurveto
          endchar
        </CharString>
        <CharString name="slash">
          69 callgsubr
          1473 rmoveto
          -132 83 -1197 -2037 119 -75 rlineto
          endchar
        </CharString>
        <CharString name="space">
          -649 endchar
        </CharString>
        <CharString name="sterling">
          -66 -33 158 39 84 391 98 652 78 hstemhm
          227 163 -63 141 294 164 62 64 hintmask 00000000
          hintmask 11111011
          128 737 rmoveto
          -98 vlineto
          hintmask 11110111
          163 hlineto
          20 -73 16 -71 -87 vvcurveto
          -76 -23 -63 -30 -48 vhcurveto
          -103 -30 -75 -74 -74 vvcurveto
          -38 28 -38 49 66 65 90 105 13 vhcurveto
          2 10 12 0 11 184 137 -197 172 hhcurveto
          133 70 123 164 6 hvcurveto
          -64 hlineto
          -88 -6 -43 -41 -61 -92 -140 123 -178 hhcurveto
          -36 -36 -3 -5 -34 hvcurveto
          62 76 44 83 88 vvcurveto
          53 -5 50 -7 49 vhcurveto
          293 98 hlineto
          hintmask 11111011
          -310 hlineto
          -22 113 -27 111 139 vvcurveto
          151 78 138 154 96 55 -48 -53 15 vhcurveto
          -22 -24 -4 -30 -15 vvcurveto
          -31 21 -51 61 2 vhcurveto
          52 1 30 40 48 vvcurveto
          94 -79 145 -241 -220 -159 -177 -272 -115 17 -87 20 -79 vhcurveto
          endchar
        </CharString>
        <CharString name="summation">
          117 -522 76 1791 88 -77 77 hstemhm
          1087 63 -12 64 hintmask 00000000
          hintmask 10110000
          1155 1075 rmoveto
          -10 359 rlineto
          -1082 hlineto
          hintmask 11001000
          -91 vlineto
          94 5 4 -26 16 -36 32 -59 rlinecurve
          424 -803 -414 -723 -32 -56 -58 -79 -51 2 rlinecurve
          -90 1118 vlineto
          12 399 rlineto
          -70 hlineto
          -241 -112 -86 -178 4 vhcurveto
          -605 hlineto
          34 50 34 55 35 61 440 782 rcurveline
          hintmask 10110000
          -391 762 -16 30 -17 30 -20 28 rlinecurve
          469 10 rlineto
          153 3 123 -48 -242 vvcurveto
          endchar
        </CharString>
        <CharString name="t">
          42 callsubr
          vstem
          311 1311 -73 callsubr
          endchar
        </CharString>
        <CharString name="tcaron">
          42 callsubr
          258 145 vstem
          616 1611 -39 callgsubr
          -446 -273 -73 callsubr
          endchar
        </CharString>
        <CharString name="thorn">
          -6 -522 61 428 82 908 100 352 82 55 -20 hstem
          155 172 555 211 vstem
          329 1546 rmoveto
          -59 hlineto
          -28 -31 -41 -2 callgsubr
          -1491 vlineto
          -147 -6 6 -103 -125 hhcurveto
          -105 callsubr
          336 vlineto
          -44 68 81 -20 95 hhcurveto
          286 236 225 349 317 -209 199 -248 -113 -112 -44 -66 -82 hvcurveto
          -2 -95 rmoveto
          62 60 86 43 94 hhcurveto
          223 92 -226 -221 -271 -121 -190 -194 -89 -83 27 51 -68 hvcurveto
          endchar
        </CharString>
        <CharString name="three">
          -47 -33 87 660 89 584 80 hstemhm
          90 190 -155 183 449 199 -128 211 hintmask 00000000
          hintmask 11101010
          390 803 rmoveto
          -92 vlineto
          2 27 26 1 21 hhcurveto
          300 6 64 -176 -179 vvcurveto
          -203 -126 -108 -195 vhcurveto
          hintmask 11110010
          -111 -111 38 92 -27 hvcurveto
          12 27 10 27 28 70 callsubr
          138 -158 295 268 248 134 278 212 -160 149 -258 27 vhcurveto
          2 vlineto
          hintmask 11101100
          252 77 83 135 130 vvcurveto
          258 -195 98 -218 -282 -136 -182 -113 -57 31 -47 58 -2 vhcurveto
          69 -2 25 58 33 vvcurveto
          28 -9 30 -24 26 vhcurveto
          68 21 96 80 123 hhcurveto
          187 55 -126 -168 -112 -68 -178 -215 hvcurveto
          endchar
        </CharString>
        <CharString name="threequarters">
          442 0 68 147 79 331 45 callsubr
          663 115 hintmask 0000000000000000
          hintmask 1111101011000000
          24 callgsubr
          hintmask 1111110011000000
          -13 callsubr
          hintmask 1111101101000000
          -16 callgsubr
          1075 295 29 callgsubr
          1012 322 -51 callgsubr
        </CharString>
        <CharString name="threesuperior">
          -430 625 45 callsubr
          hintmask 00000000
          hintmask 11101010
          24 callgsubr
          hintmask 11110010
          -13 callsubr
          hintmask 11101100
          -16 callgsubr
          endchar
        </CharString>
        <CharString name="tilde">
          -357 1253 127 -16 125 -41 -20 hstemhm
          72 688 hintmask 00000000
          133 37 callsubr
          hintmask 01010000
          -47 callsubr
          hintmask 10110000
          72 callgsubr
          endchar
        </CharString>
        <CharString name="trademark">
          999 621 57 -55 69 663 79 hstemhm
          132 58 244 147 244 57 78 178 676 143 hintmask 00000000
          hintmask 01111100
          887 1163 rmoveto
          -8 271 rlineto
          -743 hlineto
          -7 -271 rlineto
          62 hlineto
          123 31 68 82 1 vhcurveto
          131 -550 hlineto
          hintmask 10111100
          -74 -17 -53 -78 vhcurveto
          hintmask 01111111
          -57 334 73 vlineto
          -94 -4 rlineto
          2 23 0 30 31 vvcurveto
          583 90 vlineto
          119 2 31 -63 4 -133 rrcurveto
          1186 271 rmoveto
          -240 hlineto
          -72 -183 -67 -157 -68 -168 -16 -41 -26 -64 -22 -47 rrcurveto
          -2 hlineto
          -34 78 -31 77 -27 66 -182 439 rcurveline
          -264 -82 hlineto
          87 5 -2 -13 1 -21 -23 -498 rlinecurve
          -4 -84 -16 -57 -82 -2 rrcurveto
          -57 289 69 vlineto
          -101 -6 7 23 2 28 2 35 rlinecurve
          16 447 rlineto
          1 23 1 25 24 vvcurveto
          2 hlineto
          19 -55 20 -54 21 -49 62 -149 97 -220 70 -154 rrcurveto
          96 hlineto
          260 637 rlineto
          2 hlineto
          27 -420 5 -82 -15 -59 -72 -8 rlinecurve
          -12 -57 338 71 hlineto
          -101 -4 1 27 -1 43 -2 31 rlinecurve
          -30 430 -6 86 12 57 80 2 rlinecurve
          endchar
        </CharString>
        <CharString name="two">
          -88 0 142 1245 80 hstemhm
          103 194 453 211 -29 55 hintmask 00000000
          hintmask 11001000
          981 hmoveto
          13 287 rlineto
          -62 hlineto
          -160 -143 12 -199 6 vhcurveto
          -363 10 18 95 127 141 187 153 rlinecurve
          hintmask 11110000
          292 239 110 174 138 vvcurveto
          278 -213 94 -217 -283 -145 -183 -116 -61 33 -50 61 -2 vhcurveto
          74 -2 26 62 35 vvcurveto
          30 -10 33 -27 29 vhcurveto
          80 29 96 65 113 hhcurveto
          197 55 -165 -152 -135 -74 -141 -178 -170 hvcurveto
          -205 -195 -199 -140 -289 vvcurveto
          endchar
        </CharString>
        <CharString name="twosuperior">
          -400 627 113 653 74 hstemhm
          139 95 callsubr
          hintmask 11001000
          649 627 35 callsubr
          hintmask 11110000
          -29 callsubr
        </CharString>
        <CharString name="u">
          -45 callgsubr
          1026 1044 -103 callsubr
        </CharString>
        <CharString name="uacute">
          -45 callgsubr
          420 1235 -96 callsubr
          434 -467 -103 callsubr
        </CharString>
        <CharString name="ucircumflex">
          -45 callgsubr
          902 -60 callsubr
          179 -150 -103 callsubr
        </CharString>
        <CharString name="udieresis">
          35 -33 105 -72 82 826 81 55 -20 51 callgsubr
          186 180 -15 61 callgsubr
          -46 176 hintmask 0000000000000000
          454 -88 callsubr
          hintmask 0111101100000000
          230 -447 rmoveto
          -59 hlineto
          -28 -31 -43 -27 -117 hhcurveto
          -63 -84 hlineto
          147 6 -4 callgsubr
          -2 -43 -66 vvcurveto
          -525 vlineto
          -57 -84 -102 -73 -103 -1 rrcurveto
          -162 -2 -60 114 236 vvcurveto
          624 60 callsubr
          -116 hhcurveto
          -64 -84 hlineto
          141 6 5 callgsubr
          -364 vlineto
          -338 113 -109 223 120 130 71 85 84 vhcurveto
          hintmask 1011010010000000
          3 -38 4 -38 7 39 callgsubr
          -147 -8 6 55 2 94 2 43 rlinecurve
          endchar
        </CharString>
        <CharString name="ugrave">
          -45 callgsubr
          693 -79 callgsubr
          563 -361 -103 callsubr
        </CharString>
        <CharString name="uhungarumlaut">
          -45 callgsubr
          362 -49 callgsubr
          204 -484 -103 callsubr
        </CharString>
        <CharString name="umacron">
          35 -33 105 -72 82 826 81 55 -20 291 119 hstemhm
          186 180 484 0 callgsubr
          hintmask 01111110
          856 1319 -31 callsubr
          713 -267 rmoveto
          -59 hlineto
          -28 -31 -43 -27 -117 hhcurveto
          -63 -84 hlineto
          147 6 -4 callgsubr
          -2 -43 -66 vvcurveto
          -525 vlineto
          hintmask 10111110
          -57 -84 -102 -73 -103 -1 rrcurveto
          -162 -2 -60 114 236 vvcurveto
          624 60 callsubr
          -116 hhcurveto
          -64 -84 hlineto
          141 6 5 callgsubr
          -364 vlineto
          -338 113 -109 223 120 130 71 85 84 vhcurveto
          hintmask 01111110
          3 -38 4 -38 7 39 callgsubr
          -147 -8 6 55 2 94 2 43 rlinecurve
          endchar
        </CharString>
        <CharString name="underscore">
          305 -227 125 hstem
          117 1259 vstem
          1376 -102 rmoveto
          -1259 -125 1259 hlineto
          endchar
        </CharString>
        <CharString name="uni00A0">
          -649 endchar
        </CharString>
        <CharString name="uni00AD">
          -588 588 139 hstem
          137 727 vstem
          864 592 67 callsubr
        </CharString>
        <CharString name="uni00B5">
          -64 callgsubr
        </CharString>
        <CharString name="uni0149">
          3 callsubr
          523 218 94 callsubr
          -161 111 548 0 callgsubr
          hintmask 10100101
          185 1192 rmoveto
          hintmask 11011011
          -91 callsubr
          188 -189 rmoveto
          -28 -31 45 callgsubr
          hintmask 11000101
          -90 callsubr
          hintmask 10100101
          60 74 102 57 99 2 162 2 72 -123 2 -235 rrcurveto
          -78 callsubr
          313 -104 145 -238 -118 -128 -60 -77 -87 vhcurveto
          hintmask 10010101
          38 callsubr
        </CharString>
        <CharString name="uni0162">
          123 -208 92 116 -11 callgsubr
          34 168 241 71 hintmask 00000000
          hintmask 11101111
          1263 1001 rmoveto
          -90 callgsubr
          179 vlineto
          -55 -204 69 -34 rlineto
          -83 callgsubr
          51 152 rlineto
          188 90 hlineto
          -35 callsubr
          hintmask 11011111
          1115 176 vlineto
          211 2 52 -118 4 -242 rrcurveto
          endchar
        </CharString>
        <CharString name="uni0163">
          -395 -208 92 1058 82 hstem
          200 177 180 168 vstem
          488 -33 rmoveto
          70 2 112 23 114 169 -55 45 rcurveline
          -78 -53 -74 -45 -70 hhcurveto
          -119 -36 101 186 3 1 34 2 533 hvcurveto
          345 4 rlineto
          80 -345 vlineto
          84 1 94 109 vvcurveto
          -70 hlineto
          -35 -117 -88 -168 -145 -2 rrcurveto
          -88 157 -591 vlineto
          -6 -247 89 -89 96 -29 -49 -184 rcurveline
          69 -34 rlineto
          -83 callgsubr
          endchar
        </CharString>
        <CharString name="uni021A">
          123 0 -11 callgsubr
          -106 147 402 71 hintmask 00000000
          hintmask 11011010
          1263 1001 -56 callsubr
          hintmask 10111010
          1115 176 vlineto
          211 2 52 -118 4 -242 rrcurveto
          hintmask 11010110
          -567 -1148 -99 callsubr
        </CharString>
        <CharString name="uni021B">
          42 callsubr
          40 147 vstem
          311 1311 -73 callsubr
          18 -1458 -99 callsubr
        </CharString>
        <CharString name="uni02C9">
          -588 1230 119 hstem
          22 543 vstem
          565 1234 -31 callsubr
          endchar
        </CharString>
        <CharString name="uni0400">
          -69 callsubr
          778 1598 rmoveto
          57 47 -172 276 -62 88 -61 -40 -10 -9 rlinecurve
          -17 -14 -39 -53 74 -78 rrcurveto
          560 -740 -15 callsubr
          hintmask 11101111
          -91 vlineto
          -107 callsubr
          hintmask 11011110
          -88 callgsubr
        </CharString>
        <CharString name="uni0401">
          -89 callsubr
        </CharString>
        <CharString name="uni0402">
          370 51 callsubr
          38 169 hintmask 00000000
          745 1359 rmoveto
          174 hlineto
          211 2 52 -118 4 -242 rrcurveto
          77 hlineto
          hintmask 11011111
          -90 callgsubr
          431 90 vlineto
          -120 -65 callsubr
          476 vlineto
          30 64 78 20 86 hhcurveto
          194 1 130 -94 -249 vvcurveto
          hintmask 11101111
          -200 -34 -166 -61 -15 -10 2 7 -9 vhcurveto
          8 19 3 13 19 vvcurveto
          33 -22 56 -77 -1 vhcurveto
          -57 -1 -43 -40 -68 vvcurveto
          -78 66 -46 86 194 140 205 263 273 -123 156 -300 -106 -107 -22 -35 -83 vhcurveto
          endchar
        </CharString>
        <CharString name="uni0403">
          -20 callsubr
          455 -98 callsubr
          361 -787 rmoveto
          -11 359 rlineto
          -950 -81 callgsubr
          149 94 callgsubr
          129 -49 -242 vvcurveto
          endchar
        </CharString>
        <CharString name="uni0404">
          244 -33 107 634 76 599 84 -15 -20 98 callsubr
          699 67 152 106 hintmask 00000000
          hintmask 11101110
          1317 309 rmoveto
          -153 -111 -184 -82 -178 hhcurveto
          -298 -242 255 376 -9 hvcurveto
          455 6 rlineto
          174 2 70 -2 -181 vvcurveto
          67 431 -91 hlineto
          15 -177 rlineto
          -688 hlineto
          368 22 224 231 276 hhcurveto
          238 159 -150 -256 29 hvcurveto
          74 hlineto
          hintmask 11011110
          475 -111 vlineto
          10 -110 rlineto
          hintmask 11101110
          84 -126 -133 41 -154 hhcurveto
          -477 -234 -388 -385 -407 285 -320 411 168 236 56 243 176 hvcurveto
          endchar
        </CharString>
        <CharString name="uni0405">
          -76 callgsubr
        </CharString>
        <CharString name="uni0406">
          -14 callsubr
          574 1434 rmoveto
          -461 9 callgsubr
          870 vlineto
          hintmask 10110000
          -84 callgsubr
          endchar
        </CharString>
        <CharString name="uni0407">
          58 callgsubr
          227 245 hstemhm
          77 204 -27 179 -14 204 hintmask 00000000
          180 1906 rmoveto
          -37 callsubr
          342 hmoveto
          -37 callsubr
          52 -472 rmoveto
          -461 -91 hlineto
          hintmask 11110100
          148 9 rlineto
          -5 -41 -2 -51 -56 vvcurveto
          -885 35 callgsubr
          870 vlineto
          hintmask 11001000
          -84 callgsubr
          endchar
        </CharString>
        <CharString name="uni0408">
          -54 callsubr
        </CharString>
        <CharString name="uni0409">
          768 -33 84 -51 78 683 75 515 82 -68 68 hstemhm
          25 187 287 98 404 179 513 198 hintmask 0000000000000000
          hintmask 0111001110000000
          1180 834 rmoveto
          280 vlineto
          hintmask 0110101110000000
          146 -11 100 151 6 vhcurveto
          hintmask 1011011110000000
          68 -1012 -91 vlineto
          -49 callsubr
          43 -265 hlineto
          -643 -156 -393 96 callgsubr
          2 13 25 vvcurveto
          41 -30 54 -67 -3 vhcurveto
          -59 -3 -31 -50 -55 vvcurveto
          -90 79 -49 99 317 79 626 598 -2 vhcurveto
          45 vlineto
          5 63 33 46 77 7 rrcurveto
          289 -1033 hlineto
          hintmask 0111001110000000
          -148 9 -99 -150 -4 vhcurveto
          -68 548 75 callgsubr
          181 -450 -20 hvcurveto
          -560 514 rmoveto
          -3 hlineto
          448 -598 12 callsubr
        </CharString>
        <CharString name="uni040A">
          893 0 78 -78 86 664 85 -75 75 511 86 -46 callsubr
          693 179 513 198 hintmask 0000000000000000
          1305 834 rmoveto
          280 vlineto
          -30 callgsubr
          hintmask 1001011110000000
          68 -462 -91 vlineto
          148 -44 callgsubr
          -368 -693 278 vlineto
          hintmask 1010101110000000
          -84 callgsubr
          hintmask 1010011110000000
          -27 callgsubr
          -30 callsubr
          53 74 vvcurveto
          502 vlineto
          693 9 rlineto
          -436 vlineto
          hintmask 0110101110000000
          36 callsubr
          548 75 callgsubr
          181 -450 -20 hvcurveto
          -115 -84 12 callsubr
        </CharString>
        <CharString name="uni040B">
          491 51 callsubr
          37 179 hintmask 00000000
          hintmask 11101111
          1614 91 rmoveto
          -148 -9 rlineto
          6 45 1 58 280 vvcurveto
          263 -127 146 -296 -114 -108 -22 -35 -83 vhcurveto
          hintmask 11011111
          542 174 vlineto
          211 2 52 -118 4 -242 rrcurveto
          77 hlineto
          hintmask 11101111
          -79 callsubr
          476 vlineto
          64 29 79 20 88 1 226 2 92 -123 2 -138 -2 -327 22 -110 -161 -6 rrcurveto
          -68 461 vlineto
          endchar
        </CharString>
        <CharString name="uni040C">
          -13 callgsubr
          hintmask 00000000
          hintmask 01110100
          546 1645 -96 callsubr
          585 -487 -97 callsubr
        </CharString>
        <CharString name="uni040D">
          430 -2 callsubr
          254 179 753 178 -17 callgsubr
          855 -70 callsubr
          947 -305 rmoveto
          -461 -91 hlineto
          148 9 -2 -24 -2 -27 -1 -30 rlinecurve
          -754 -931 rlineto
          774 54 callgsubr
          hintmask 11011000
          -77 callsubr
          hintmask 10111000
          -30 callgsubr
          endchar
        </CharString>
        <CharString name="uni040E">
          62 -34 92 1287 88 -68 68 103 75 hstemhm
          -10 1285 -1057 198 -53 184 264 184 hintmask 00000000
          679 -29 callgsubr
          596 -103 rmoveto
          -418 hlineto
          hintmask 10110011
          32 callgsubr
          hintmask 11010001
          131 -66 1 92 173 hhcurveto
          68 -494 vlineto
          hintmask 10111000
          40 callsubr
          0 callsubr
          rlineto
          hintmask 11010100
          69 168 31 83 152 9 rrcurveto
          endchar
        </CharString>
        <CharString name="uni040F">
          390 0 84 1263 86 -68 68 hstemhm
          274 178 341 85 267 179 63 callsubr
          1465 39 callsubr
          -90 hlineto
          148 26 callgsubr
          -938 vlineto
          -2 -96 -18 -62 -116 -6 -557 -4 callsubr
          497 63 callgsubr
          364 587 91 hlineto
          -6 callgsubr
          hintmask 10111100
          59 callgsubr
          endchar
        </CharString>
        <CharString name="uni0410">
          -32 callgsubr
          657 1473 rmoveto
          -99 callgsubr
          rrcurveto
          hintmask 11010000
          -103 callgsubr
        </CharString>
        <CharString name="uni0411">
          86 0 78 663 75 531 86 -74 74 -63 callsubr
          563 198 -188 62 hintmask 00000000
          hintmask 11011010
          83 callsubr
          hintmask 11101100
          -91 vlineto
          -49 callsubr
          -5 -46 callgsubr
          -874 vlineto
          -154 13 -104 -154 -4 vhcurveto
          80 callgsubr
          154 262 247 -146 168 -450 -13 hvcurveto
          -165 -4 rlineto
          292 vlineto
          hintmask 11011010
          46 callsubr
          -573 -340 71 callsubr
          hintmask 11011100
          187 166 -70 -267 -217 -142 -109 -211 -26 -127 -26 callgsubr
        </CharString>
        <CharString name="uni0412">
          -85 callgsubr
        </CharString>
        <CharString name="uni0413">
          -20 callsubr
          1074 1075 rmoveto
          -11 359 rlineto
          -950 -81 callgsubr
          149 94 callgsubr
          129 -49 -242 vvcurveto
          endchar
        </CharString>
        <CharString name="uni0414">
          228 0 81 1271 82 -68 68 hstemhm
          55 85 862 178 86 85 63 callsubr
          1351 81 rmoveto
          -177 hlineto
          4 35 2 54 74 vvcurveto
          870 vlineto
          hintmask 10111100
          -30 callgsubr
          hintmask 11011100
          68 -1046 -91 vlineto
          -49 callsubr
          50 hlineto
          -11 -494 -16 -435 -140 -223 rrcurveto
          -75 -48 -57 -44 -67 hhcurveto
          -79 -445 85 hlineto
          234 35 130 135 vhcurveto
          786 hlineto
          135 35 -130 -234 hvcurveto
          85 hlineto
          -1020 445 rmoveto
          14 17 14 19 13 21 142 229 35 419 21 471 5 54 35 37 78 4 rrcurveto
          314 -1033 hlineto
          -145 12 -93 -154 vhcurveto
          endchar
        </CharString>
        <CharString name="uni0415">
          -69 callsubr
          1108 1075 -15 callsubr
          hintmask 11101111
          -91 vlineto
          -107 callsubr
          hintmask 11011110
          -88 callgsubr
        </CharString>
        <CharString name="uni0416">
          783 0 86 611 81 574 82 -68 68 hstemhm
          896 179 hintmask 00000000
          hintmask 11101000
          1501 596 rmoveto
          -51 82 -42 45 -77 47 186 320 rcurveline
          hintmask 11011000
          132 228 104 34 172 14 rrcurveto
          hintmask 11101000
          68 -440 -84 vlineto
          95 callgsubr
          -57 -72 -32 -55 rlinecurve
          -236 44 callgsubr
          hintmask 11011000
          -84 callgsubr
          hintmask 11101000
          68 -461 -91 vlineto
          -49 callsubr
          -5 -46 callgsubr
          -426 -153 vlineto
          -236 404 -32 55 -57 72 -57 45 rlinecurve
          125 -4 rlineto
          84 -440 vlineto
          hintmask 11011000
          -68 vlineto
          172 -14 104 -34 132 -228 186 -320 rcurveline
          -77 -47 -43 -45 -50 -82 -178 -291 rcurveline
          -199 -122 -72 -38 -88 hhcurveto
          -68 220 vlineto
          41 91 70 131 79 hvcurveto
          201 331 38 63 32 54 62 49 rlinecurve
          122 -2 rlineto
          -377 35 callgsubr
          452 vlineto
          122 2 62 -49 31 -54 39 -63 rlinecurve
          205 -331 rlineto
          -130 81 95 -71 41 hhcurveto
          210 68 hlineto
          -88 -71 38 199 -122 hvcurveto
          endchar
        </CharString>
        <CharString name="uni0417">
          67 -24 97 628 89 -88 58 623 84 -15 -20 hstemhm
          182 106 145 186 292 188 -123 198 hintmask 0000000000000000
          761 764 rmoveto
          hintmask 1011010010000000
          225 41 111 149 3 163 rrcurveto
          215 3 -176 135 -263 hhcurveto
          -158 -104 -40 -85 -119 hvcurveto
          hintmask 1101010100000000
          10 110 rlineto
          -111 -475 74 hlineto
          hintmask 1100110010000000
          258 62 112 148 227 hhcurveto
          142 113 -78 -202 -157 -75 -151 -234 -5 hvcurveto
          -170 -90 hlineto
          163 2 rlineto
          hintmask 1101011100000000
          255 -6 126 -85 -197 vvcurveto
          -232 -179 -109 -202 -176 -194 82 154 -112 vhcurveto
          -53 -43 rlineto
          -202 146 214 -88 219 hhcurveto
          271 264 140 295 hvcurveto
          hintmask 1101010010000000
          192 -140 144 -274 13 vhcurveto
          hintmask 1011010010000000
          -143 -19 rmoveto
          10 -13 -7 -3 rlineto
          endchar
        </CharString>
        <CharString name="uni0418">
          430 -2 callsubr
          254 179 753 178 -17 callgsubr
          1505 -16 callsubr
          -2 -24 -2 -27 -1 -30 rlinecurve
          -754 -931 rlineto
          774 54 callgsubr
          hintmask 11011000
          -77 callsubr
          hintmask 10111000
          -30 callgsubr
          endchar
        </CharString>
        <CharString name="uni0419">
          430 79 callsubr
          103 75 -63 callsubr
          70 184 264 184 51 178 hintmask 00000000
          hintmask 11011111
          819 -29 callgsubr
          686 -103 rmoveto
          -461 -91 hlineto
          148 9 -2 -24 -2 -27 -1 -30 rlinecurve
          -754 -931 rlineto
          774 vlineto
          hintmask 10111111
          -84 callgsubr
          hintmask 11011111
          -77 callsubr
          hintmask 10111111
          -30 callgsubr
          endchar
        </CharString>
        <CharString name="uni041A">
          -13 callgsubr
          hintmask 00000000
          hintmask 01110100
          1303 1434 -97 callsubr
        </CharString>
        <CharString name="uni041B">
          244 -33 84 -51 86 1266 82 -68 68 hstemhm
          14 202 283 98 404 178 hintmask 00000000
          hintmask 01100110
          1320 -14 callgsubr
          -1012 -91 hlineto
          -49 callsubr
          43 -305 hlineto
          hintmask 10101110
          -683 -156 -313 96 callgsubr
          6 13 25 vvcurveto
          41 -34 54 -67 -3 vhcurveto
          -59 -3 -42 -46 -59 vvcurveto
          -86 90 -53 99 287 109 626 598 -2 vhcurveto
          45 vlineto
          5 65 34 46 83 5 rrcurveto
          282 -1033 hlineto
          hintmask 01010110
          -87 callsubr
          -30 callgsubr
          hintmask 01100110
          -585 -13 rmoveto
          -3 hlineto
          endchar
        </CharString>
        <CharString name="uni041C">
          -85 callsubr
        </CharString>
        <CharString name="uni041D">
          -80 callsubr
        </CharString>
        <CharString name="uni041E">
          -37 callgsubr
          807 1467 -105 callgsubr
        </CharString>
        <CharString name="uni041F">
          -68 callsubr
        </CharString>
        <CharString name="uni0420">
          -69 callgsubr
        </CharString>
        <CharString name="uni0421">
          -8 callsubr
          -17 callgsubr
          1317 309 -94 callgsubr
        </CharString>
        <CharString name="uni0422">
          123 0 -11 callgsubr
          443 71 63 callsubr
          1263 1001 -73 callgsubr
        </CharString>
        <CharString name="uni0423">
          62 -34 92 1287 88 -68 68 hstemhm
          -10 1285 -1057 198 hintmask 00000000
          hintmask 10110000
          1275 -14 callgsubr
          -418 hlineto
          hintmask 11010000
          32 callgsubr
          hintmask 10110000
          131 -66 1 92 173 hhcurveto
          68 -494 vlineto
          hintmask 11010000
          40 callsubr
          hintmask 10101000
          0 callsubr
          69 168 31 83 152 9 rlinecurve
          endchar
        </CharString>
        <CharString name="uni0424">
          492 -100 68 -68 82 -82 90 158 83 1237 86 -68 68 98 callsubr
          449 179 466 201 hintmask 0000000000000000
          hintmask 0010101110000000
          1064 1555 rmoveto
          -461 -91 hlineto
          -49 callsubr
          -5 -46 callgsubr
          -447 -29 -203 -254 -355 vvcurveto
          -316 230 -193 420 -27 vhcurveto
          hintmask 1000101110000000
          -3 -101 -20 -77 -118 -5 rrcurveto
          hintmask 0010101110000000
          -68 461 90 vlineto
          hintmask 0101011110000000
          11 callsubr
          rlineto
          4 31 3 69 66 vvcurveto
          459 20 208 223 326 vvcurveto
          353 -236 226 -431 28 vhcurveto
          2 96 19 62 120 5 rrcurveto
          -320 -1238 rmoveto
          -13 vlineto
          -292 27 -157 148 313 vvcurveto
          312 157 177 292 28 vhcurveto
          179 -6 rmoveto
          4 vlineto
          303 -29 163 -179 -351 vvcurveto
          -285 -163 -145 -303 -19 vhcurveto
          endchar
        </CharString>
        <CharString name="uni0425">
          -86 callsubr
        </CharString>
        <CharString name="uni0426">
          332 0 84 1263 80 callsubr
          673 179 86 85 63 callsubr
          1455 91 rmoveto
          -30 hlineto
          -6 callgsubr
          hintmask 10111100
          145 -13 83 callgsubr
          148 26 callgsubr
          -938 vlineto
          -2 -96 -17 -63 -113 -5 -541 -4 callsubr
          1094 63 callgsubr
          hlineto
          endchar
        </CharString>
        <CharString name="uni0427">
          250 0 86 474 104 683 86 -68 68 hstemhm
          206 179 621 178 hintmask 00000000
          hintmask 11101100
          1325 -23 callsubr
          -4 -41 -2 -51 -56 vvcurveto
          -467 vlineto
          -73 -42 -107 -30 -121 -1 -226 -2 -92 123 -2 138 rrcurveto
          hintmask 11011100
          2 327 -22 110 161 6 rrcurveto
          hintmask 11101100
          68 -461 -91 vlineto
          -49 callsubr
          -6 -45 -1 -58 -280 vvcurveto
          -263 127 -146 297 144 136 30 47 96 vhcurveto
          -318 vlineto
          -87 callsubr
          hintmask 11011100
          -30 callgsubr
          endchar
        </CharString>
        <CharString name="uni0428">
          870 0 85 -85 90 1258 80 callsubr
          507 179 507 179 hintmask 00000000
          hintmask 01101110
          1945 -14 callgsubr
          -441 -90 hlineto
          128 26 callgsubr
          -1100 -513 vlineto
          4 43 2 45 52 vvcurveto
          885 vlineto
          hintmask 01011110
          59 callgsubr
          hintmask 10101110
          68 -441 -90 vlineto
          128 26 callgsubr
          -1105 -507 1030 vlineto
          hintmask 01011110
          145 -12 100 154 6 vhcurveto
          hintmask 01101110
          68 -461 -90 vlineto
          147 8 rlineto
          -4 34 callsubr
          -870 vlineto
          -146 12 -100 -153 -26 callsubr
          1832 91 vlineto
          -6 callgsubr
          hintmask 01011110
          59 callgsubr
          endchar
        </CharString>
        <CharString name="uni0429">
          862 0 85 -85 90 1258 80 callsubr
          507 179 507 179 96 85 hintmask 00000000
          hintmask 01101111
          1985 91 rmoveto
          -30 hlineto
          -10 -4 rlineto
          4 vlineto
          -6 callgsubr
          hintmask 01011111
          59 callgsubr
          hintmask 01101111
          68 -441 -90 vlineto
          128 26 callgsubr
          -1100 -513 vlineto
          4 43 2 45 52 vvcurveto
          885 vlineto
          hintmask 01011111
          59 callgsubr
          hintmask 10101111
          68 -441 -90 vlineto
          128 26 callgsubr
          -1105 -507 1030 vlineto
          hintmask 01011111
          145 -12 100 154 6 vhcurveto
          hintmask 01101111
          68 -461 -90 vlineto
          147 8 rlineto
          -4 34 callsubr
          -870 vlineto
          -146 12 -100 -153 -26 callsubr
          1624 63 callgsubr
          hlineto
          endchar
        </CharString>
        <CharString name="uni042A">
          281 0 78 683 75 513 84 -68 68 hstemhm
          51 70 373 179 533 198 hintmask 00000000
          hintmask 11101110
          673 834 rmoveto
          280 vlineto
          hintmask 11011110
          -84 callgsubr
          hintmask 11101110
          68 -757 vlineto
          -12 -433 rlineto
          76 hlineto
          242 63 106 172 1 vhcurveto
          145 hlineto
          -5 -40 -2 -51 -55 vvcurveto
          -885 vlineto
          36 callsubr
          588 vlineto
          267 196 43 callsubr
          174 -430 -13 hvcurveto
          -155 -84 rmoveto
          4 65 54 2 81 hhcurveto
          167 38 callgsubr
          -191 -26 -117 -26 callgsubr
        </CharString>
        <CharString name="uni042B">
          652 0 78 -78 86 675 75 511 86 -46 callsubr
          533 198 244 179 hintmask 00000000
          hintmask 10110111
          -25 callgsubr
          36 callsubr
          598 vlineto
          247 206 43 callsubr
          174 -420 -13 hvcurveto
          -165 -5 rlineto
          280 vlineto
          hintmask 10101111
          -84 callgsubr
          hintmask 01110111
          1154 68 rmoveto
          -461 9 callgsubr
          870 vlineto
          hintmask 10101111
          -84 callgsubr
          -1295 -611 71 callsubr
          157 38 callgsubr
          -181 -26 -127 -26 callgsubr
        </CharString>
        <CharString name="uni042C">
          71 0 78 683 75 511 86 -46 callsubr
          563 198 hintmask 00000000
          hintmask 11101100
          -25 callgsubr
          36 callsubr
          598 75 callgsubr
          173 -450 -12 hvcurveto
          -165 -5 rlineto
          280 vlineto
          hintmask 11011100
          -84 callgsubr
          -141 -611 rmoveto
          4 65 64 56 callsubr
          -127 -26 callgsubr
        </CharString>
        <CharString name="uni042D">
          240 -33 107 634 77 666 -20 hstemhm
          113 106 152 67 699 201 hintmask 00000000
          224 1452 rmoveto
          -111 -475 74 hlineto
          hintmask 11111100
          256 29 159 150 238 hhcurveto
          276 224 -231 -366 22 hvcurveto
          -688 hlineto
          15 175 rlineto
          -91 -431 67 hlineto
          181 70 2 174 -2 vhcurveto
          455 -5 rlineto
          -377 -8 -243 -255 -298 hhcurveto
          -178 -184 82 153 -111 hvcurveto
          -53 -43 rlineto
          -243 176 236 -56 168 hhcurveto
          411 285 320 407 385 -234 388 -477 -154 -133 -41 -84 -126 hvcurveto
          endchar
        </CharString>
        <CharString name="uni042E">
          1014 -33 84 -51 86 601 86 573 86 -68 68 -49 82 -63 callsubr
          297 201 976 205 hintmask 0000000000000000
          hintmask 1010011110000000
          433 774 rmoveto
          340 vlineto
          hintmask 1010101110000000
          -84 callgsubr
          hintmask 0111001110000000
          -27 callgsubr
          -30 callsubr
          53 74 vvcurveto
          440 vlineto
          297 7 rlineto
          hintmask 1010011110000000
          -350 10 201 -374 458 hhcurveto
          483 230 410 340 342 -230 408 -499 -409 -219 -363 -330 -23 hvcurveto
          671 -723 rmoveto
          -315 -157 399 304 303 156 328 289 340 191 -371 -336 -301 -168 -326 -336 hvcurveto
          endchar
        </CharString>
        <CharString name="uni042F">
          190 0 86 512 74 683 78 hstem
          260 193 493 179 vstem
          1266 -14 callgsubr
          -548 hlineto
          -307 -151 -145 -288 -186 148 -138 198 -46 hvcurveto
          -68 -18 -40 -38 -51 -76 -159 -237 rcurveline
          -129 -86 -42 -65 -115 hhcurveto
          -68 241 vlineto
          61 31 71 106 58 90 152 235 rcurveline
          30 47 45 54 61 35 182 2 rcurveline
          -280 vlineto
          -146 -98 callgsubr
          461 91 vlineto
          -6 callgsubr
          -1 148 -8 99 150 4 rrcurveto
          -320 -687 rmoveto
          -4 -15 -64 -2 -81 hhcurveto
          -183 -150 147 185 245 142 106 191 26 127 2 -6 14 hvcurveto
          -5 -35 -2 -51 -74 vvcurveto
          endchar
        </CharString>
        <CharString name="uni0430">
          -55 callsubr
          695 571 -42 callgsubr
          hintmask 10111010
          -65 callgsubr
          hintmask 01110110
          -106 callsubr
          hintmask 10111010
          -101 callsubr
        </CharString>
        <CharString name="uni0431">
          -73 -31 78 864 75 547 -20 44 -20 hstemhm
          87 93 661 199 63 callsubr
          907 1557 rmoveto
          -23 -62 -29 -16 -73 -20 -109 -29 -107 1 -104 -40 rrcurveto
          -270 -102 -105 -319 -358 vvcurveto
          -434 209 -209 264 266 214 213 329 309 -198 166 -256 -199 -132 -105 -160 -61 vhcurveto
          -14 hlineto
          -2 234 89 199 208 63 96 29 117 -1 112 39 rrcurveto
          hintmask 11101100
          142 49 7 68 29 132 rrcurveto
          -429 -622 rmoveto
          208 84 -233 -224 -207 -72 -200 -201 -190 -99 179 294 203 85 188 185 hvcurveto
          endchar
        </CharString>
        <CharString name="uni0432">
          -120 0 81 405 74 391 74 hstemhm
          213 176 375 188 -140 196 hintmask 00000000
          hintmask 11110100
          93 940 rmoveto
          129 6 rlineto
          -6 -32 -3 -37 -49 vvcurveto
          -592 17 callgsubr
          568 vlineto
          183 167 107 183 141 -99 100 -184 7 hvcurveto
          3 vlineto
          hintmask 11111000
          155 35 71 104 1 111 rrcurveto
          157 2 -134 78 -192 hhcurveto
          -207 -221 -1 -1 -107 hvcurveto
          296 -465 rmoveto
          251 vlineto
          117 64 25 98 111 99 -31 -141 3 vhcurveto
          2 -101 -56 -114 -168 -3 rrcurveto
          -153 -81 rmoveto
          3 46 66 2 58 hhcurveto
          hintmask 11110100
          134 119 -57 -144 -143 -102 -61 -151 -19 -110 8 callsubr
        </CharString>
        <CharString name="uni0433">
          43 callgsubr
          871 715 rmoveto
          -9 309 rlineto
          -769 -50 callgsubr
          221 54 -55 -172 4 hvcurveto
          endchar
        </CharString>
        <CharString name="uni0434">
          22 0 77 862 84 -78 78 -61 61 hstemhm
          45 78 681 176 97 78 hintmask 00000000
          hintmask 10101110
          1155 -364 rmoveto
          450 vlineto
          -186 -8 31 callsubr
          496 vlineto
          hintmask 10011110
          -11 callsubr
          hintmask 10101110
          61 -905 vlineto
          hintmask 11001110
          -89 vlineto
          181 9 -10 -344 -31 -231 -61 -162 rlinecurve
          -110 -41 -39 -20 -67 hhcurveto
          -83 -441 78 hlineto
          224 37 140 135 vhcurveto
          612 hlineto
          135 35 -142 -222 hvcurveto
          -763 441 rmoveto
          26 29 22 40 18 52 35 103 42 234 23 273 rrcurveto
          hintmask 10101110
          85 10 23 53 86 hhcurveto
          213 92 callgsubr
          -480 vlineto
          -147 1 -103 -125 vhcurveto
          endchar
        </CharString>
        <CharString name="uni0435">
          -52 callgsubr
          980 242 -33 callgsubr
          -106 callgsubr
        </CharString>
</ttFont>
